G04 #@! TF.GenerationSoftware,KiCad,Pcbnew,(5.1.0)-1*
G04 #@! TF.CreationDate,2019-08-08T12:31:07-05:00*
G04 #@! TF.ProjectId,STM32F070_Breakout,53544d33-3246-4303-9730-5f427265616b,v02*
G04 #@! TF.SameCoordinates,Original*
G04 #@! TF.FileFunction,Soldermask,Bot*
G04 #@! TF.FilePolarity,Negative*
%FSLAX46Y46*%
G04 Gerber Fmt 4.6, Leading zero omitted, Abs format (unit mm)*
G04 Created by KiCad (PCBNEW (5.1.0)-1) date 2019-08-08 12:31:07*
%MOMM*%
%LPD*%
G04 APERTURE LIST*
%ADD10C,0.100000*%
G04 APERTURE END LIST*
D10*
G36*
X128380443Y-114675519D02*
G01*
X128446627Y-114682037D01*
X128616466Y-114733557D01*
X128772991Y-114817222D01*
X128808729Y-114846552D01*
X128910186Y-114929814D01*
X128993448Y-115031271D01*
X129022778Y-115067009D01*
X129106443Y-115223534D01*
X129157963Y-115393373D01*
X129175359Y-115570000D01*
X129157963Y-115746627D01*
X129106443Y-115916466D01*
X129022778Y-116072991D01*
X128993448Y-116108729D01*
X128910186Y-116210186D01*
X128837480Y-116269853D01*
X128772991Y-116322778D01*
X128616466Y-116406443D01*
X128446627Y-116457963D01*
X128380442Y-116464482D01*
X128314260Y-116471000D01*
X128225740Y-116471000D01*
X128159558Y-116464482D01*
X128093373Y-116457963D01*
X127923534Y-116406443D01*
X127767009Y-116322778D01*
X127702520Y-116269853D01*
X127629814Y-116210186D01*
X127546552Y-116108729D01*
X127517222Y-116072991D01*
X127433557Y-115916466D01*
X127382037Y-115746627D01*
X127364641Y-115570000D01*
X127382037Y-115393373D01*
X127433557Y-115223534D01*
X127517222Y-115067009D01*
X127546552Y-115031271D01*
X127629814Y-114929814D01*
X127731271Y-114846552D01*
X127767009Y-114817222D01*
X127923534Y-114733557D01*
X128093373Y-114682037D01*
X128159557Y-114675519D01*
X128225740Y-114669000D01*
X128314260Y-114669000D01*
X128380443Y-114675519D01*
X128380443Y-114675519D01*
G37*
G36*
X141080443Y-114675519D02*
G01*
X141146627Y-114682037D01*
X141316466Y-114733557D01*
X141472991Y-114817222D01*
X141508729Y-114846552D01*
X141610186Y-114929814D01*
X141693448Y-115031271D01*
X141722778Y-115067009D01*
X141806443Y-115223534D01*
X141857963Y-115393373D01*
X141875359Y-115570000D01*
X141857963Y-115746627D01*
X141806443Y-115916466D01*
X141722778Y-116072991D01*
X141693448Y-116108729D01*
X141610186Y-116210186D01*
X141537480Y-116269853D01*
X141472991Y-116322778D01*
X141316466Y-116406443D01*
X141146627Y-116457963D01*
X141080442Y-116464482D01*
X141014260Y-116471000D01*
X140925740Y-116471000D01*
X140859558Y-116464482D01*
X140793373Y-116457963D01*
X140623534Y-116406443D01*
X140467009Y-116322778D01*
X140402520Y-116269853D01*
X140329814Y-116210186D01*
X140246552Y-116108729D01*
X140217222Y-116072991D01*
X140133557Y-115916466D01*
X140082037Y-115746627D01*
X140064641Y-115570000D01*
X140082037Y-115393373D01*
X140133557Y-115223534D01*
X140217222Y-115067009D01*
X140246552Y-115031271D01*
X140329814Y-114929814D01*
X140431271Y-114846552D01*
X140467009Y-114817222D01*
X140623534Y-114733557D01*
X140793373Y-114682037D01*
X140859557Y-114675519D01*
X140925740Y-114669000D01*
X141014260Y-114669000D01*
X141080443Y-114675519D01*
X141080443Y-114675519D01*
G37*
G36*
X138540443Y-114675519D02*
G01*
X138606627Y-114682037D01*
X138776466Y-114733557D01*
X138932991Y-114817222D01*
X138968729Y-114846552D01*
X139070186Y-114929814D01*
X139153448Y-115031271D01*
X139182778Y-115067009D01*
X139266443Y-115223534D01*
X139317963Y-115393373D01*
X139335359Y-115570000D01*
X139317963Y-115746627D01*
X139266443Y-115916466D01*
X139182778Y-116072991D01*
X139153448Y-116108729D01*
X139070186Y-116210186D01*
X138997480Y-116269853D01*
X138932991Y-116322778D01*
X138776466Y-116406443D01*
X138606627Y-116457963D01*
X138540442Y-116464482D01*
X138474260Y-116471000D01*
X138385740Y-116471000D01*
X138319558Y-116464482D01*
X138253373Y-116457963D01*
X138083534Y-116406443D01*
X137927009Y-116322778D01*
X137862520Y-116269853D01*
X137789814Y-116210186D01*
X137706552Y-116108729D01*
X137677222Y-116072991D01*
X137593557Y-115916466D01*
X137542037Y-115746627D01*
X137524641Y-115570000D01*
X137542037Y-115393373D01*
X137593557Y-115223534D01*
X137677222Y-115067009D01*
X137706552Y-115031271D01*
X137789814Y-114929814D01*
X137891271Y-114846552D01*
X137927009Y-114817222D01*
X138083534Y-114733557D01*
X138253373Y-114682037D01*
X138319557Y-114675519D01*
X138385740Y-114669000D01*
X138474260Y-114669000D01*
X138540443Y-114675519D01*
X138540443Y-114675519D01*
G37*
G36*
X136000443Y-114675519D02*
G01*
X136066627Y-114682037D01*
X136236466Y-114733557D01*
X136392991Y-114817222D01*
X136428729Y-114846552D01*
X136530186Y-114929814D01*
X136613448Y-115031271D01*
X136642778Y-115067009D01*
X136726443Y-115223534D01*
X136777963Y-115393373D01*
X136795359Y-115570000D01*
X136777963Y-115746627D01*
X136726443Y-115916466D01*
X136642778Y-116072991D01*
X136613448Y-116108729D01*
X136530186Y-116210186D01*
X136457480Y-116269853D01*
X136392991Y-116322778D01*
X136236466Y-116406443D01*
X136066627Y-116457963D01*
X136000442Y-116464482D01*
X135934260Y-116471000D01*
X135845740Y-116471000D01*
X135779558Y-116464482D01*
X135713373Y-116457963D01*
X135543534Y-116406443D01*
X135387009Y-116322778D01*
X135322520Y-116269853D01*
X135249814Y-116210186D01*
X135166552Y-116108729D01*
X135137222Y-116072991D01*
X135053557Y-115916466D01*
X135002037Y-115746627D01*
X134984641Y-115570000D01*
X135002037Y-115393373D01*
X135053557Y-115223534D01*
X135137222Y-115067009D01*
X135166552Y-115031271D01*
X135249814Y-114929814D01*
X135351271Y-114846552D01*
X135387009Y-114817222D01*
X135543534Y-114733557D01*
X135713373Y-114682037D01*
X135779557Y-114675519D01*
X135845740Y-114669000D01*
X135934260Y-114669000D01*
X136000443Y-114675519D01*
X136000443Y-114675519D01*
G37*
G36*
X130923512Y-114673927D02*
G01*
X131072812Y-114703624D01*
X131236784Y-114771544D01*
X131384354Y-114870147D01*
X131509853Y-114995646D01*
X131608456Y-115143216D01*
X131676376Y-115307188D01*
X131711000Y-115481259D01*
X131711000Y-115658741D01*
X131676376Y-115832812D01*
X131608456Y-115996784D01*
X131509853Y-116144354D01*
X131384354Y-116269853D01*
X131236784Y-116368456D01*
X131072812Y-116436376D01*
X130923512Y-116466073D01*
X130898742Y-116471000D01*
X130721258Y-116471000D01*
X130696488Y-116466073D01*
X130547188Y-116436376D01*
X130383216Y-116368456D01*
X130235646Y-116269853D01*
X130110147Y-116144354D01*
X130011544Y-115996784D01*
X129943624Y-115832812D01*
X129909000Y-115658741D01*
X129909000Y-115481259D01*
X129943624Y-115307188D01*
X130011544Y-115143216D01*
X130110147Y-114995646D01*
X130235646Y-114870147D01*
X130383216Y-114771544D01*
X130547188Y-114703624D01*
X130696488Y-114673927D01*
X130721258Y-114669000D01*
X130898742Y-114669000D01*
X130923512Y-114673927D01*
X130923512Y-114673927D01*
G37*
G36*
X143620443Y-114675519D02*
G01*
X143686627Y-114682037D01*
X143856466Y-114733557D01*
X144012991Y-114817222D01*
X144048729Y-114846552D01*
X144150186Y-114929814D01*
X144233448Y-115031271D01*
X144262778Y-115067009D01*
X144346443Y-115223534D01*
X144397963Y-115393373D01*
X144415359Y-115570000D01*
X144397963Y-115746627D01*
X144346443Y-115916466D01*
X144262778Y-116072991D01*
X144233448Y-116108729D01*
X144150186Y-116210186D01*
X144077480Y-116269853D01*
X144012991Y-116322778D01*
X143856466Y-116406443D01*
X143686627Y-116457963D01*
X143620442Y-116464482D01*
X143554260Y-116471000D01*
X143465740Y-116471000D01*
X143399558Y-116464482D01*
X143333373Y-116457963D01*
X143163534Y-116406443D01*
X143007009Y-116322778D01*
X142942520Y-116269853D01*
X142869814Y-116210186D01*
X142786552Y-116108729D01*
X142757222Y-116072991D01*
X142673557Y-115916466D01*
X142622037Y-115746627D01*
X142604641Y-115570000D01*
X142622037Y-115393373D01*
X142673557Y-115223534D01*
X142757222Y-115067009D01*
X142786552Y-115031271D01*
X142869814Y-114929814D01*
X142971271Y-114846552D01*
X143007009Y-114817222D01*
X143163534Y-114733557D01*
X143333373Y-114682037D01*
X143399557Y-114675519D01*
X143465740Y-114669000D01*
X143554260Y-114669000D01*
X143620443Y-114675519D01*
X143620443Y-114675519D01*
G37*
G36*
X133460443Y-114675519D02*
G01*
X133526627Y-114682037D01*
X133696466Y-114733557D01*
X133852991Y-114817222D01*
X133888729Y-114846552D01*
X133990186Y-114929814D01*
X134073448Y-115031271D01*
X134102778Y-115067009D01*
X134186443Y-115223534D01*
X134237963Y-115393373D01*
X134255359Y-115570000D01*
X134237963Y-115746627D01*
X134186443Y-115916466D01*
X134102778Y-116072991D01*
X134073448Y-116108729D01*
X133990186Y-116210186D01*
X133917480Y-116269853D01*
X133852991Y-116322778D01*
X133696466Y-116406443D01*
X133526627Y-116457963D01*
X133460442Y-116464482D01*
X133394260Y-116471000D01*
X133305740Y-116471000D01*
X133239558Y-116464482D01*
X133173373Y-116457963D01*
X133003534Y-116406443D01*
X132847009Y-116322778D01*
X132782520Y-116269853D01*
X132709814Y-116210186D01*
X132626552Y-116108729D01*
X132597222Y-116072991D01*
X132513557Y-115916466D01*
X132462037Y-115746627D01*
X132444641Y-115570000D01*
X132462037Y-115393373D01*
X132513557Y-115223534D01*
X132597222Y-115067009D01*
X132626552Y-115031271D01*
X132709814Y-114929814D01*
X132811271Y-114846552D01*
X132847009Y-114817222D01*
X133003534Y-114733557D01*
X133173373Y-114682037D01*
X133239557Y-114675519D01*
X133305740Y-114669000D01*
X133394260Y-114669000D01*
X133460443Y-114675519D01*
X133460443Y-114675519D01*
G37*
G36*
X128380443Y-112135519D02*
G01*
X128446627Y-112142037D01*
X128616466Y-112193557D01*
X128772991Y-112277222D01*
X128808729Y-112306552D01*
X128910186Y-112389814D01*
X128993448Y-112491271D01*
X129022778Y-112527009D01*
X129106443Y-112683534D01*
X129157963Y-112853373D01*
X129175359Y-113030000D01*
X129157963Y-113206627D01*
X129106443Y-113376466D01*
X129022778Y-113532991D01*
X128993448Y-113568729D01*
X128910186Y-113670186D01*
X128808729Y-113753448D01*
X128772991Y-113782778D01*
X128616466Y-113866443D01*
X128446627Y-113917963D01*
X128380443Y-113924481D01*
X128314260Y-113931000D01*
X128225740Y-113931000D01*
X128159557Y-113924481D01*
X128093373Y-113917963D01*
X127923534Y-113866443D01*
X127767009Y-113782778D01*
X127731271Y-113753448D01*
X127629814Y-113670186D01*
X127546552Y-113568729D01*
X127517222Y-113532991D01*
X127433557Y-113376466D01*
X127382037Y-113206627D01*
X127364641Y-113030000D01*
X127382037Y-112853373D01*
X127433557Y-112683534D01*
X127517222Y-112527009D01*
X127546552Y-112491271D01*
X127629814Y-112389814D01*
X127731271Y-112306552D01*
X127767009Y-112277222D01*
X127923534Y-112193557D01*
X128093373Y-112142037D01*
X128159557Y-112135519D01*
X128225740Y-112129000D01*
X128314260Y-112129000D01*
X128380443Y-112135519D01*
X128380443Y-112135519D01*
G37*
G36*
X143620443Y-112135519D02*
G01*
X143686627Y-112142037D01*
X143856466Y-112193557D01*
X144012991Y-112277222D01*
X144048729Y-112306552D01*
X144150186Y-112389814D01*
X144233448Y-112491271D01*
X144262778Y-112527009D01*
X144346443Y-112683534D01*
X144397963Y-112853373D01*
X144415359Y-113030000D01*
X144397963Y-113206627D01*
X144346443Y-113376466D01*
X144262778Y-113532991D01*
X144233448Y-113568729D01*
X144150186Y-113670186D01*
X144048729Y-113753448D01*
X144012991Y-113782778D01*
X143856466Y-113866443D01*
X143686627Y-113917963D01*
X143620443Y-113924481D01*
X143554260Y-113931000D01*
X143465740Y-113931000D01*
X143399557Y-113924481D01*
X143333373Y-113917963D01*
X143163534Y-113866443D01*
X143007009Y-113782778D01*
X142971271Y-113753448D01*
X142869814Y-113670186D01*
X142786552Y-113568729D01*
X142757222Y-113532991D01*
X142673557Y-113376466D01*
X142622037Y-113206627D01*
X142604641Y-113030000D01*
X142622037Y-112853373D01*
X142673557Y-112683534D01*
X142757222Y-112527009D01*
X142786552Y-112491271D01*
X142869814Y-112389814D01*
X142971271Y-112306552D01*
X143007009Y-112277222D01*
X143163534Y-112193557D01*
X143333373Y-112142037D01*
X143399557Y-112135519D01*
X143465740Y-112129000D01*
X143554260Y-112129000D01*
X143620443Y-112135519D01*
X143620443Y-112135519D01*
G37*
G36*
X143620442Y-109595518D02*
G01*
X143686627Y-109602037D01*
X143856466Y-109653557D01*
X144012991Y-109737222D01*
X144048729Y-109766552D01*
X144150186Y-109849814D01*
X144233448Y-109951271D01*
X144262778Y-109987009D01*
X144346443Y-110143534D01*
X144397963Y-110313373D01*
X144415359Y-110490000D01*
X144397963Y-110666627D01*
X144346443Y-110836466D01*
X144262778Y-110992991D01*
X144233448Y-111028729D01*
X144150186Y-111130186D01*
X144048729Y-111213448D01*
X144012991Y-111242778D01*
X143856466Y-111326443D01*
X143686627Y-111377963D01*
X143620443Y-111384481D01*
X143554260Y-111391000D01*
X143465740Y-111391000D01*
X143399557Y-111384481D01*
X143333373Y-111377963D01*
X143163534Y-111326443D01*
X143007009Y-111242778D01*
X142971271Y-111213448D01*
X142869814Y-111130186D01*
X142786552Y-111028729D01*
X142757222Y-110992991D01*
X142673557Y-110836466D01*
X142622037Y-110666627D01*
X142604641Y-110490000D01*
X142622037Y-110313373D01*
X142673557Y-110143534D01*
X142757222Y-109987009D01*
X142786552Y-109951271D01*
X142869814Y-109849814D01*
X142971271Y-109766552D01*
X143007009Y-109737222D01*
X143163534Y-109653557D01*
X143333373Y-109602037D01*
X143399558Y-109595518D01*
X143465740Y-109589000D01*
X143554260Y-109589000D01*
X143620442Y-109595518D01*
X143620442Y-109595518D01*
G37*
G36*
X128380442Y-109595518D02*
G01*
X128446627Y-109602037D01*
X128616466Y-109653557D01*
X128772991Y-109737222D01*
X128808729Y-109766552D01*
X128910186Y-109849814D01*
X128993448Y-109951271D01*
X129022778Y-109987009D01*
X129106443Y-110143534D01*
X129157963Y-110313373D01*
X129175359Y-110490000D01*
X129157963Y-110666627D01*
X129106443Y-110836466D01*
X129022778Y-110992991D01*
X128993448Y-111028729D01*
X128910186Y-111130186D01*
X128808729Y-111213448D01*
X128772991Y-111242778D01*
X128616466Y-111326443D01*
X128446627Y-111377963D01*
X128380443Y-111384481D01*
X128314260Y-111391000D01*
X128225740Y-111391000D01*
X128159557Y-111384481D01*
X128093373Y-111377963D01*
X127923534Y-111326443D01*
X127767009Y-111242778D01*
X127731271Y-111213448D01*
X127629814Y-111130186D01*
X127546552Y-111028729D01*
X127517222Y-110992991D01*
X127433557Y-110836466D01*
X127382037Y-110666627D01*
X127364641Y-110490000D01*
X127382037Y-110313373D01*
X127433557Y-110143534D01*
X127517222Y-109987009D01*
X127546552Y-109951271D01*
X127629814Y-109849814D01*
X127731271Y-109766552D01*
X127767009Y-109737222D01*
X127923534Y-109653557D01*
X128093373Y-109602037D01*
X128159558Y-109595518D01*
X128225740Y-109589000D01*
X128314260Y-109589000D01*
X128380442Y-109595518D01*
X128380442Y-109595518D01*
G37*
G36*
X143620442Y-107055518D02*
G01*
X143686627Y-107062037D01*
X143856466Y-107113557D01*
X144012991Y-107197222D01*
X144048729Y-107226552D01*
X144150186Y-107309814D01*
X144233448Y-107411271D01*
X144262778Y-107447009D01*
X144346443Y-107603534D01*
X144397963Y-107773373D01*
X144415359Y-107950000D01*
X144397963Y-108126627D01*
X144346443Y-108296466D01*
X144262778Y-108452991D01*
X144233448Y-108488729D01*
X144150186Y-108590186D01*
X144048729Y-108673448D01*
X144012991Y-108702778D01*
X143856466Y-108786443D01*
X143686627Y-108837963D01*
X143620442Y-108844482D01*
X143554260Y-108851000D01*
X143465740Y-108851000D01*
X143399558Y-108844482D01*
X143333373Y-108837963D01*
X143163534Y-108786443D01*
X143007009Y-108702778D01*
X142971271Y-108673448D01*
X142869814Y-108590186D01*
X142786552Y-108488729D01*
X142757222Y-108452991D01*
X142673557Y-108296466D01*
X142622037Y-108126627D01*
X142604641Y-107950000D01*
X142622037Y-107773373D01*
X142673557Y-107603534D01*
X142757222Y-107447009D01*
X142786552Y-107411271D01*
X142869814Y-107309814D01*
X142971271Y-107226552D01*
X143007009Y-107197222D01*
X143163534Y-107113557D01*
X143333373Y-107062037D01*
X143399558Y-107055518D01*
X143465740Y-107049000D01*
X143554260Y-107049000D01*
X143620442Y-107055518D01*
X143620442Y-107055518D01*
G37*
G36*
X128380442Y-107055518D02*
G01*
X128446627Y-107062037D01*
X128616466Y-107113557D01*
X128772991Y-107197222D01*
X128808729Y-107226552D01*
X128910186Y-107309814D01*
X128993448Y-107411271D01*
X129022778Y-107447009D01*
X129106443Y-107603534D01*
X129157963Y-107773373D01*
X129175359Y-107950000D01*
X129157963Y-108126627D01*
X129106443Y-108296466D01*
X129022778Y-108452991D01*
X128993448Y-108488729D01*
X128910186Y-108590186D01*
X128808729Y-108673448D01*
X128772991Y-108702778D01*
X128616466Y-108786443D01*
X128446627Y-108837963D01*
X128380442Y-108844482D01*
X128314260Y-108851000D01*
X128225740Y-108851000D01*
X128159558Y-108844482D01*
X128093373Y-108837963D01*
X127923534Y-108786443D01*
X127767009Y-108702778D01*
X127731271Y-108673448D01*
X127629814Y-108590186D01*
X127546552Y-108488729D01*
X127517222Y-108452991D01*
X127433557Y-108296466D01*
X127382037Y-108126627D01*
X127364641Y-107950000D01*
X127382037Y-107773373D01*
X127433557Y-107603534D01*
X127517222Y-107447009D01*
X127546552Y-107411271D01*
X127629814Y-107309814D01*
X127731271Y-107226552D01*
X127767009Y-107197222D01*
X127923534Y-107113557D01*
X128093373Y-107062037D01*
X128159558Y-107055518D01*
X128225740Y-107049000D01*
X128314260Y-107049000D01*
X128380442Y-107055518D01*
X128380442Y-107055518D01*
G37*
G36*
X143620443Y-104515519D02*
G01*
X143686627Y-104522037D01*
X143856466Y-104573557D01*
X144012991Y-104657222D01*
X144048729Y-104686552D01*
X144150186Y-104769814D01*
X144233448Y-104871271D01*
X144262778Y-104907009D01*
X144346443Y-105063534D01*
X144397963Y-105233373D01*
X144415359Y-105410000D01*
X144397963Y-105586627D01*
X144346443Y-105756466D01*
X144262778Y-105912991D01*
X144233448Y-105948729D01*
X144150186Y-106050186D01*
X144048729Y-106133448D01*
X144012991Y-106162778D01*
X143856466Y-106246443D01*
X143686627Y-106297963D01*
X143620442Y-106304482D01*
X143554260Y-106311000D01*
X143465740Y-106311000D01*
X143399558Y-106304482D01*
X143333373Y-106297963D01*
X143163534Y-106246443D01*
X143007009Y-106162778D01*
X142971271Y-106133448D01*
X142869814Y-106050186D01*
X142786552Y-105948729D01*
X142757222Y-105912991D01*
X142673557Y-105756466D01*
X142622037Y-105586627D01*
X142604641Y-105410000D01*
X142622037Y-105233373D01*
X142673557Y-105063534D01*
X142757222Y-104907009D01*
X142786552Y-104871271D01*
X142869814Y-104769814D01*
X142971271Y-104686552D01*
X143007009Y-104657222D01*
X143163534Y-104573557D01*
X143333373Y-104522037D01*
X143399557Y-104515519D01*
X143465740Y-104509000D01*
X143554260Y-104509000D01*
X143620443Y-104515519D01*
X143620443Y-104515519D01*
G37*
G36*
X128380443Y-104515519D02*
G01*
X128446627Y-104522037D01*
X128616466Y-104573557D01*
X128772991Y-104657222D01*
X128808729Y-104686552D01*
X128910186Y-104769814D01*
X128993448Y-104871271D01*
X129022778Y-104907009D01*
X129106443Y-105063534D01*
X129157963Y-105233373D01*
X129175359Y-105410000D01*
X129157963Y-105586627D01*
X129106443Y-105756466D01*
X129022778Y-105912991D01*
X128993448Y-105948729D01*
X128910186Y-106050186D01*
X128808729Y-106133448D01*
X128772991Y-106162778D01*
X128616466Y-106246443D01*
X128446627Y-106297963D01*
X128380442Y-106304482D01*
X128314260Y-106311000D01*
X128225740Y-106311000D01*
X128159558Y-106304482D01*
X128093373Y-106297963D01*
X127923534Y-106246443D01*
X127767009Y-106162778D01*
X127731271Y-106133448D01*
X127629814Y-106050186D01*
X127546552Y-105948729D01*
X127517222Y-105912991D01*
X127433557Y-105756466D01*
X127382037Y-105586627D01*
X127364641Y-105410000D01*
X127382037Y-105233373D01*
X127433557Y-105063534D01*
X127517222Y-104907009D01*
X127546552Y-104871271D01*
X127629814Y-104769814D01*
X127731271Y-104686552D01*
X127767009Y-104657222D01*
X127923534Y-104573557D01*
X128093373Y-104522037D01*
X128159557Y-104515519D01*
X128225740Y-104509000D01*
X128314260Y-104509000D01*
X128380443Y-104515519D01*
X128380443Y-104515519D01*
G37*
G36*
X128380442Y-101975518D02*
G01*
X128446627Y-101982037D01*
X128616466Y-102033557D01*
X128772991Y-102117222D01*
X128808729Y-102146552D01*
X128910186Y-102229814D01*
X128988885Y-102325710D01*
X129022778Y-102367009D01*
X129106443Y-102523534D01*
X129157963Y-102693373D01*
X129175359Y-102870000D01*
X129157963Y-103046627D01*
X129106443Y-103216466D01*
X129022778Y-103372991D01*
X128993448Y-103408729D01*
X128910186Y-103510186D01*
X128808729Y-103593448D01*
X128772991Y-103622778D01*
X128616466Y-103706443D01*
X128446627Y-103757963D01*
X128380443Y-103764481D01*
X128314260Y-103771000D01*
X128225740Y-103771000D01*
X128159557Y-103764481D01*
X128093373Y-103757963D01*
X127923534Y-103706443D01*
X127767009Y-103622778D01*
X127731271Y-103593448D01*
X127629814Y-103510186D01*
X127546552Y-103408729D01*
X127517222Y-103372991D01*
X127433557Y-103216466D01*
X127382037Y-103046627D01*
X127364641Y-102870000D01*
X127382037Y-102693373D01*
X127433557Y-102523534D01*
X127517222Y-102367009D01*
X127551115Y-102325710D01*
X127629814Y-102229814D01*
X127731271Y-102146552D01*
X127767009Y-102117222D01*
X127923534Y-102033557D01*
X128093373Y-101982037D01*
X128159558Y-101975518D01*
X128225740Y-101969000D01*
X128314260Y-101969000D01*
X128380442Y-101975518D01*
X128380442Y-101975518D01*
G37*
G36*
X143620442Y-101975518D02*
G01*
X143686627Y-101982037D01*
X143856466Y-102033557D01*
X144012991Y-102117222D01*
X144048729Y-102146552D01*
X144150186Y-102229814D01*
X144228885Y-102325710D01*
X144262778Y-102367009D01*
X144346443Y-102523534D01*
X144397963Y-102693373D01*
X144415359Y-102870000D01*
X144397963Y-103046627D01*
X144346443Y-103216466D01*
X144262778Y-103372991D01*
X144233448Y-103408729D01*
X144150186Y-103510186D01*
X144048729Y-103593448D01*
X144012991Y-103622778D01*
X143856466Y-103706443D01*
X143686627Y-103757963D01*
X143620443Y-103764481D01*
X143554260Y-103771000D01*
X143465740Y-103771000D01*
X143399557Y-103764481D01*
X143333373Y-103757963D01*
X143163534Y-103706443D01*
X143007009Y-103622778D01*
X142971271Y-103593448D01*
X142869814Y-103510186D01*
X142786552Y-103408729D01*
X142757222Y-103372991D01*
X142673557Y-103216466D01*
X142622037Y-103046627D01*
X142604641Y-102870000D01*
X142622037Y-102693373D01*
X142673557Y-102523534D01*
X142757222Y-102367009D01*
X142791115Y-102325710D01*
X142869814Y-102229814D01*
X142971271Y-102146552D01*
X143007009Y-102117222D01*
X143163534Y-102033557D01*
X143333373Y-101982037D01*
X143399558Y-101975518D01*
X143465740Y-101969000D01*
X143554260Y-101969000D01*
X143620442Y-101975518D01*
X143620442Y-101975518D01*
G37*
G36*
X139581199Y-101161954D02*
G01*
X139593450Y-101162556D01*
X139611869Y-101162556D01*
X139634149Y-101164750D01*
X139718233Y-101181476D01*
X139739660Y-101187976D01*
X139818858Y-101220780D01*
X139824303Y-101223691D01*
X139824309Y-101223693D01*
X139833169Y-101228429D01*
X139833173Y-101228432D01*
X139838614Y-101231340D01*
X139909899Y-101278971D01*
X139927204Y-101293172D01*
X139987828Y-101353796D01*
X140002029Y-101371101D01*
X140049660Y-101442386D01*
X140052568Y-101447827D01*
X140052571Y-101447831D01*
X140057307Y-101456691D01*
X140057309Y-101456697D01*
X140060220Y-101462142D01*
X140093024Y-101541340D01*
X140099524Y-101562767D01*
X140116250Y-101646851D01*
X140118444Y-101669131D01*
X140118444Y-101687550D01*
X140119046Y-101699801D01*
X140120852Y-101718139D01*
X140120852Y-102205860D01*
X140119263Y-102221999D01*
X140116348Y-102231608D01*
X140111610Y-102240472D01*
X140105237Y-102248237D01*
X140092794Y-102258448D01*
X140082425Y-102265378D01*
X140065098Y-102282705D01*
X140051485Y-102303080D01*
X140042109Y-102325720D01*
X140037329Y-102349753D01*
X140037330Y-102374257D01*
X140042112Y-102398290D01*
X140051490Y-102420929D01*
X140065105Y-102441302D01*
X140082432Y-102458629D01*
X140092802Y-102465558D01*
X140105237Y-102475763D01*
X140111610Y-102483528D01*
X140116348Y-102492392D01*
X140119263Y-102502001D01*
X140120852Y-102518140D01*
X140120852Y-103005862D01*
X140119046Y-103024199D01*
X140118444Y-103036450D01*
X140118444Y-103054869D01*
X140116250Y-103077149D01*
X140099524Y-103161233D01*
X140093024Y-103182660D01*
X140060220Y-103261858D01*
X140057309Y-103267303D01*
X140057307Y-103267309D01*
X140052571Y-103276169D01*
X140052568Y-103276173D01*
X140049660Y-103281614D01*
X140002029Y-103352899D01*
X139987828Y-103370204D01*
X139927204Y-103430828D01*
X139909899Y-103445029D01*
X139838614Y-103492660D01*
X139833173Y-103495568D01*
X139833169Y-103495571D01*
X139824309Y-103500307D01*
X139824303Y-103500309D01*
X139818858Y-103503220D01*
X139739660Y-103536024D01*
X139718233Y-103542524D01*
X139634149Y-103559250D01*
X139611869Y-103561444D01*
X139593450Y-103561444D01*
X139581199Y-103562046D01*
X139562862Y-103563852D01*
X139075138Y-103563852D01*
X139056801Y-103562046D01*
X139044550Y-103561444D01*
X139026131Y-103561444D01*
X139003851Y-103559250D01*
X138919767Y-103542524D01*
X138898340Y-103536024D01*
X138819142Y-103503220D01*
X138813697Y-103500309D01*
X138813691Y-103500307D01*
X138804831Y-103495571D01*
X138804827Y-103495568D01*
X138799386Y-103492660D01*
X138728101Y-103445029D01*
X138710796Y-103430828D01*
X138650172Y-103370204D01*
X138635971Y-103352899D01*
X138588340Y-103281614D01*
X138585432Y-103276173D01*
X138585429Y-103276169D01*
X138580693Y-103267309D01*
X138580691Y-103267303D01*
X138577780Y-103261858D01*
X138544976Y-103182660D01*
X138538476Y-103161233D01*
X138521750Y-103077149D01*
X138519556Y-103054869D01*
X138519556Y-103036450D01*
X138518954Y-103024199D01*
X138517148Y-103005862D01*
X138517148Y-102518140D01*
X138518737Y-102502001D01*
X138521652Y-102492392D01*
X138526390Y-102483528D01*
X138532763Y-102475763D01*
X138545206Y-102465552D01*
X138555575Y-102458622D01*
X138572902Y-102441295D01*
X138586515Y-102420920D01*
X138595891Y-102398280D01*
X138600671Y-102374247D01*
X138600670Y-102349743D01*
X138595888Y-102325710D01*
X138586510Y-102303071D01*
X138572895Y-102282698D01*
X138555568Y-102265371D01*
X138545198Y-102258442D01*
X138532763Y-102248237D01*
X138526390Y-102240472D01*
X138521652Y-102231608D01*
X138518737Y-102221999D01*
X138517148Y-102205860D01*
X138517148Y-101718139D01*
X138518954Y-101699801D01*
X138519556Y-101687550D01*
X138519556Y-101669131D01*
X138521750Y-101646851D01*
X138538476Y-101562767D01*
X138544976Y-101541340D01*
X138577780Y-101462142D01*
X138580691Y-101456697D01*
X138580693Y-101456691D01*
X138585429Y-101447831D01*
X138585432Y-101447827D01*
X138588340Y-101442386D01*
X138635971Y-101371101D01*
X138650172Y-101353796D01*
X138710796Y-101293172D01*
X138728101Y-101278971D01*
X138799386Y-101231340D01*
X138804827Y-101228432D01*
X138804831Y-101228429D01*
X138813691Y-101223693D01*
X138813697Y-101223691D01*
X138819142Y-101220780D01*
X138898340Y-101187976D01*
X138919767Y-101181476D01*
X139003851Y-101164750D01*
X139026131Y-101162556D01*
X139044550Y-101162556D01*
X139056801Y-101161954D01*
X139075139Y-101160148D01*
X139562861Y-101160148D01*
X139581199Y-101161954D01*
X139581199Y-101161954D01*
G37*
G36*
X143620443Y-99435519D02*
G01*
X143686627Y-99442037D01*
X143856466Y-99493557D01*
X144012991Y-99577222D01*
X144048729Y-99606552D01*
X144150186Y-99689814D01*
X144233448Y-99791271D01*
X144262778Y-99827009D01*
X144346443Y-99983534D01*
X144397963Y-100153373D01*
X144415359Y-100330000D01*
X144397963Y-100506627D01*
X144346443Y-100676466D01*
X144262778Y-100832991D01*
X144233448Y-100868729D01*
X144150186Y-100970186D01*
X144048729Y-101053448D01*
X144012991Y-101082778D01*
X143856466Y-101166443D01*
X143686627Y-101217963D01*
X143628448Y-101223693D01*
X143554260Y-101231000D01*
X143465740Y-101231000D01*
X143391552Y-101223693D01*
X143333373Y-101217963D01*
X143163534Y-101166443D01*
X143007009Y-101082778D01*
X142971271Y-101053448D01*
X142869814Y-100970186D01*
X142786552Y-100868729D01*
X142757222Y-100832991D01*
X142673557Y-100676466D01*
X142622037Y-100506627D01*
X142604641Y-100330000D01*
X142622037Y-100153373D01*
X142673557Y-99983534D01*
X142757222Y-99827009D01*
X142786552Y-99791271D01*
X142869814Y-99689814D01*
X142971271Y-99606552D01*
X143007009Y-99577222D01*
X143163534Y-99493557D01*
X143333373Y-99442037D01*
X143399558Y-99435518D01*
X143465740Y-99429000D01*
X143554260Y-99429000D01*
X143620443Y-99435519D01*
X143620443Y-99435519D01*
G37*
G36*
X128380443Y-99435519D02*
G01*
X128446627Y-99442037D01*
X128616466Y-99493557D01*
X128772991Y-99577222D01*
X128808729Y-99606552D01*
X128910186Y-99689814D01*
X128993448Y-99791271D01*
X129022778Y-99827009D01*
X129106443Y-99983534D01*
X129157963Y-100153373D01*
X129175359Y-100330000D01*
X129157963Y-100506627D01*
X129106443Y-100676466D01*
X129022778Y-100832991D01*
X128993448Y-100868729D01*
X128910186Y-100970186D01*
X128808729Y-101053448D01*
X128772991Y-101082778D01*
X128616466Y-101166443D01*
X128446627Y-101217963D01*
X128388448Y-101223693D01*
X128314260Y-101231000D01*
X128225740Y-101231000D01*
X128151552Y-101223693D01*
X128093373Y-101217963D01*
X127923534Y-101166443D01*
X127767009Y-101082778D01*
X127731271Y-101053448D01*
X127629814Y-100970186D01*
X127546552Y-100868729D01*
X127517222Y-100832991D01*
X127433557Y-100676466D01*
X127382037Y-100506627D01*
X127364641Y-100330000D01*
X127382037Y-100153373D01*
X127433557Y-99983534D01*
X127517222Y-99827009D01*
X127546552Y-99791271D01*
X127629814Y-99689814D01*
X127731271Y-99606552D01*
X127767009Y-99577222D01*
X127923534Y-99493557D01*
X128093373Y-99442037D01*
X128159558Y-99435518D01*
X128225740Y-99429000D01*
X128314260Y-99429000D01*
X128380443Y-99435519D01*
X128380443Y-99435519D01*
G37*
G36*
X138692199Y-96843954D02*
G01*
X138704450Y-96844556D01*
X138722869Y-96844556D01*
X138745149Y-96846750D01*
X138829233Y-96863476D01*
X138850660Y-96869976D01*
X138929858Y-96902780D01*
X138935303Y-96905691D01*
X138935309Y-96905693D01*
X138944169Y-96910429D01*
X138944173Y-96910432D01*
X138949614Y-96913340D01*
X139020899Y-96960971D01*
X139038204Y-96975172D01*
X139098828Y-97035796D01*
X139113029Y-97053101D01*
X139160660Y-97124386D01*
X139163568Y-97129827D01*
X139163571Y-97129831D01*
X139168307Y-97138691D01*
X139168309Y-97138697D01*
X139171220Y-97144142D01*
X139204024Y-97223340D01*
X139210524Y-97244767D01*
X139227250Y-97328851D01*
X139229444Y-97351131D01*
X139229444Y-97369550D01*
X139230046Y-97381801D01*
X139231852Y-97400139D01*
X139231852Y-97887860D01*
X139230263Y-97903999D01*
X139227348Y-97913608D01*
X139222610Y-97922472D01*
X139216237Y-97930237D01*
X139203794Y-97940448D01*
X139193425Y-97947378D01*
X139176098Y-97964705D01*
X139162485Y-97985080D01*
X139153109Y-98007720D01*
X139148329Y-98031753D01*
X139148330Y-98056257D01*
X139153112Y-98080290D01*
X139162490Y-98102929D01*
X139176105Y-98123302D01*
X139193432Y-98140629D01*
X139203802Y-98147558D01*
X139216237Y-98157763D01*
X139222610Y-98165528D01*
X139227348Y-98174392D01*
X139230263Y-98184001D01*
X139231852Y-98200140D01*
X139231852Y-98687862D01*
X139230046Y-98706199D01*
X139229444Y-98718450D01*
X139229444Y-98736869D01*
X139227250Y-98759149D01*
X139210524Y-98843233D01*
X139204024Y-98864660D01*
X139171220Y-98943858D01*
X139168309Y-98949303D01*
X139168307Y-98949309D01*
X139163571Y-98958169D01*
X139163568Y-98958173D01*
X139160660Y-98963614D01*
X139113029Y-99034899D01*
X139098828Y-99052204D01*
X139038204Y-99112828D01*
X139020899Y-99127029D01*
X138949614Y-99174660D01*
X138944173Y-99177568D01*
X138944169Y-99177571D01*
X138935309Y-99182307D01*
X138935303Y-99182309D01*
X138929858Y-99185220D01*
X138850660Y-99218024D01*
X138829233Y-99224524D01*
X138745149Y-99241250D01*
X138722869Y-99243444D01*
X138704450Y-99243444D01*
X138692199Y-99244046D01*
X138673862Y-99245852D01*
X138186138Y-99245852D01*
X138167801Y-99244046D01*
X138155550Y-99243444D01*
X138137131Y-99243444D01*
X138114851Y-99241250D01*
X138030767Y-99224524D01*
X138009340Y-99218024D01*
X137930142Y-99185220D01*
X137924697Y-99182309D01*
X137924691Y-99182307D01*
X137915831Y-99177571D01*
X137915827Y-99177568D01*
X137910386Y-99174660D01*
X137839101Y-99127029D01*
X137821796Y-99112828D01*
X137761172Y-99052204D01*
X137746971Y-99034899D01*
X137699340Y-98963614D01*
X137696432Y-98958173D01*
X137696429Y-98958169D01*
X137691693Y-98949309D01*
X137691691Y-98949303D01*
X137688780Y-98943858D01*
X137655976Y-98864660D01*
X137649476Y-98843233D01*
X137632750Y-98759149D01*
X137630556Y-98736869D01*
X137630556Y-98718450D01*
X137629954Y-98706199D01*
X137628148Y-98687862D01*
X137628148Y-98200140D01*
X137629737Y-98184001D01*
X137632652Y-98174392D01*
X137637390Y-98165528D01*
X137643763Y-98157763D01*
X137656206Y-98147552D01*
X137666575Y-98140622D01*
X137683902Y-98123295D01*
X137697515Y-98102920D01*
X137706891Y-98080280D01*
X137711671Y-98056247D01*
X137711670Y-98031743D01*
X137706888Y-98007710D01*
X137697510Y-97985071D01*
X137683895Y-97964698D01*
X137666568Y-97947371D01*
X137656198Y-97940442D01*
X137643763Y-97930237D01*
X137637390Y-97922472D01*
X137632652Y-97913608D01*
X137629737Y-97903999D01*
X137628148Y-97887860D01*
X137628148Y-97400139D01*
X137629954Y-97381801D01*
X137630556Y-97369550D01*
X137630556Y-97351131D01*
X137632750Y-97328851D01*
X137649476Y-97244767D01*
X137655976Y-97223340D01*
X137688780Y-97144142D01*
X137691691Y-97138697D01*
X137691693Y-97138691D01*
X137696429Y-97129831D01*
X137696432Y-97129827D01*
X137699340Y-97124386D01*
X137746971Y-97053101D01*
X137761172Y-97035796D01*
X137821796Y-96975172D01*
X137839101Y-96960971D01*
X137910386Y-96913340D01*
X137915827Y-96910432D01*
X137915831Y-96910429D01*
X137924691Y-96905693D01*
X137924697Y-96905691D01*
X137930142Y-96902780D01*
X138009340Y-96869976D01*
X138030767Y-96863476D01*
X138114851Y-96846750D01*
X138137131Y-96844556D01*
X138155550Y-96844556D01*
X138167801Y-96843954D01*
X138186139Y-96842148D01*
X138673861Y-96842148D01*
X138692199Y-96843954D01*
X138692199Y-96843954D01*
G37*
G36*
X143620442Y-96895518D02*
G01*
X143686627Y-96902037D01*
X143856466Y-96953557D01*
X144012991Y-97037222D01*
X144026528Y-97048332D01*
X144150186Y-97149814D01*
X144210526Y-97223340D01*
X144262778Y-97287009D01*
X144346443Y-97443534D01*
X144397963Y-97613373D01*
X144415359Y-97790000D01*
X144397963Y-97966627D01*
X144346443Y-98136466D01*
X144262778Y-98292991D01*
X144233448Y-98328729D01*
X144150186Y-98430186D01*
X144048729Y-98513448D01*
X144012991Y-98542778D01*
X143856466Y-98626443D01*
X143686627Y-98677963D01*
X143620442Y-98684482D01*
X143554260Y-98691000D01*
X143465740Y-98691000D01*
X143399558Y-98684482D01*
X143333373Y-98677963D01*
X143163534Y-98626443D01*
X143007009Y-98542778D01*
X142971271Y-98513448D01*
X142869814Y-98430186D01*
X142786552Y-98328729D01*
X142757222Y-98292991D01*
X142673557Y-98136466D01*
X142622037Y-97966627D01*
X142604641Y-97790000D01*
X142622037Y-97613373D01*
X142673557Y-97443534D01*
X142757222Y-97287009D01*
X142809474Y-97223340D01*
X142869814Y-97149814D01*
X142993472Y-97048332D01*
X143007009Y-97037222D01*
X143163534Y-96953557D01*
X143333373Y-96902037D01*
X143399558Y-96895518D01*
X143465740Y-96889000D01*
X143554260Y-96889000D01*
X143620442Y-96895518D01*
X143620442Y-96895518D01*
G37*
G36*
X128380442Y-96895518D02*
G01*
X128446627Y-96902037D01*
X128616466Y-96953557D01*
X128772991Y-97037222D01*
X128786528Y-97048332D01*
X128910186Y-97149814D01*
X128970526Y-97223340D01*
X129022778Y-97287009D01*
X129106443Y-97443534D01*
X129157963Y-97613373D01*
X129175359Y-97790000D01*
X129157963Y-97966627D01*
X129106443Y-98136466D01*
X129022778Y-98292991D01*
X128993448Y-98328729D01*
X128910186Y-98430186D01*
X128808729Y-98513448D01*
X128772991Y-98542778D01*
X128616466Y-98626443D01*
X128446627Y-98677963D01*
X128380442Y-98684482D01*
X128314260Y-98691000D01*
X128225740Y-98691000D01*
X128159558Y-98684482D01*
X128093373Y-98677963D01*
X127923534Y-98626443D01*
X127767009Y-98542778D01*
X127731271Y-98513448D01*
X127629814Y-98430186D01*
X127546552Y-98328729D01*
X127517222Y-98292991D01*
X127433557Y-98136466D01*
X127382037Y-97966627D01*
X127364641Y-97790000D01*
X127382037Y-97613373D01*
X127433557Y-97443534D01*
X127517222Y-97287009D01*
X127569474Y-97223340D01*
X127629814Y-97149814D01*
X127753472Y-97048332D01*
X127767009Y-97037222D01*
X127923534Y-96953557D01*
X128093373Y-96902037D01*
X128159558Y-96895518D01*
X128225740Y-96889000D01*
X128314260Y-96889000D01*
X128380442Y-96895518D01*
X128380442Y-96895518D01*
G37*
G36*
X128380442Y-94355518D02*
G01*
X128446627Y-94362037D01*
X128616466Y-94413557D01*
X128772991Y-94497222D01*
X128808729Y-94526552D01*
X128910186Y-94609814D01*
X128993448Y-94711271D01*
X129022778Y-94747009D01*
X129106443Y-94903534D01*
X129157963Y-95073373D01*
X129175359Y-95250000D01*
X129157963Y-95426627D01*
X129106443Y-95596466D01*
X129022778Y-95752991D01*
X128993448Y-95788729D01*
X128910186Y-95890186D01*
X128808729Y-95973448D01*
X128772991Y-96002778D01*
X128616466Y-96086443D01*
X128446627Y-96137963D01*
X128380443Y-96144481D01*
X128314260Y-96151000D01*
X128225740Y-96151000D01*
X128159558Y-96144482D01*
X128093373Y-96137963D01*
X127923534Y-96086443D01*
X127767009Y-96002778D01*
X127731271Y-95973448D01*
X127629814Y-95890186D01*
X127546552Y-95788729D01*
X127517222Y-95752991D01*
X127433557Y-95596466D01*
X127382037Y-95426627D01*
X127364641Y-95250000D01*
X127382037Y-95073373D01*
X127433557Y-94903534D01*
X127517222Y-94747009D01*
X127546552Y-94711271D01*
X127629814Y-94609814D01*
X127731271Y-94526552D01*
X127767009Y-94497222D01*
X127923534Y-94413557D01*
X128093373Y-94362037D01*
X128159557Y-94355519D01*
X128225740Y-94349000D01*
X128314260Y-94349000D01*
X128380442Y-94355518D01*
X128380442Y-94355518D01*
G37*
G36*
X143620442Y-94355518D02*
G01*
X143686627Y-94362037D01*
X143856466Y-94413557D01*
X144012991Y-94497222D01*
X144048729Y-94526552D01*
X144150186Y-94609814D01*
X144233448Y-94711271D01*
X144262778Y-94747009D01*
X144346443Y-94903534D01*
X144397963Y-95073373D01*
X144415359Y-95250000D01*
X144397963Y-95426627D01*
X144346443Y-95596466D01*
X144262778Y-95752991D01*
X144233448Y-95788729D01*
X144150186Y-95890186D01*
X144048729Y-95973448D01*
X144012991Y-96002778D01*
X143856466Y-96086443D01*
X143686627Y-96137963D01*
X143620443Y-96144481D01*
X143554260Y-96151000D01*
X143465740Y-96151000D01*
X143399558Y-96144482D01*
X143333373Y-96137963D01*
X143163534Y-96086443D01*
X143007009Y-96002778D01*
X142971271Y-95973448D01*
X142869814Y-95890186D01*
X142786552Y-95788729D01*
X142757222Y-95752991D01*
X142673557Y-95596466D01*
X142622037Y-95426627D01*
X142604641Y-95250000D01*
X142622037Y-95073373D01*
X142673557Y-94903534D01*
X142757222Y-94747009D01*
X142786552Y-94711271D01*
X142869814Y-94609814D01*
X142971271Y-94526552D01*
X143007009Y-94497222D01*
X143163534Y-94413557D01*
X143333373Y-94362037D01*
X143399557Y-94355519D01*
X143465740Y-94349000D01*
X143554260Y-94349000D01*
X143620442Y-94355518D01*
X143620442Y-94355518D01*
G37*
G36*
X128380442Y-91815518D02*
G01*
X128446627Y-91822037D01*
X128616466Y-91873557D01*
X128772991Y-91957222D01*
X128808729Y-91986552D01*
X128910186Y-92069814D01*
X128993448Y-92171271D01*
X129022778Y-92207009D01*
X129106443Y-92363534D01*
X129157963Y-92533373D01*
X129175359Y-92710000D01*
X129157963Y-92886627D01*
X129106443Y-93056466D01*
X129022778Y-93212991D01*
X128993448Y-93248729D01*
X128910186Y-93350186D01*
X128808729Y-93433448D01*
X128772991Y-93462778D01*
X128616466Y-93546443D01*
X128446627Y-93597963D01*
X128380442Y-93604482D01*
X128314260Y-93611000D01*
X128225740Y-93611000D01*
X128159557Y-93604481D01*
X128093373Y-93597963D01*
X127923534Y-93546443D01*
X127767009Y-93462778D01*
X127731271Y-93433448D01*
X127629814Y-93350186D01*
X127546552Y-93248729D01*
X127517222Y-93212991D01*
X127433557Y-93056466D01*
X127382037Y-92886627D01*
X127364641Y-92710000D01*
X127382037Y-92533373D01*
X127433557Y-92363534D01*
X127517222Y-92207009D01*
X127546552Y-92171271D01*
X127629814Y-92069814D01*
X127731271Y-91986552D01*
X127767009Y-91957222D01*
X127923534Y-91873557D01*
X128093373Y-91822037D01*
X128159558Y-91815518D01*
X128225740Y-91809000D01*
X128314260Y-91809000D01*
X128380442Y-91815518D01*
X128380442Y-91815518D01*
G37*
G36*
X143620442Y-91815518D02*
G01*
X143686627Y-91822037D01*
X143856466Y-91873557D01*
X144012991Y-91957222D01*
X144048729Y-91986552D01*
X144150186Y-92069814D01*
X144233448Y-92171271D01*
X144262778Y-92207009D01*
X144346443Y-92363534D01*
X144397963Y-92533373D01*
X144415359Y-92710000D01*
X144397963Y-92886627D01*
X144346443Y-93056466D01*
X144262778Y-93212991D01*
X144233448Y-93248729D01*
X144150186Y-93350186D01*
X144048729Y-93433448D01*
X144012991Y-93462778D01*
X143856466Y-93546443D01*
X143686627Y-93597963D01*
X143620442Y-93604482D01*
X143554260Y-93611000D01*
X143465740Y-93611000D01*
X143399557Y-93604481D01*
X143333373Y-93597963D01*
X143163534Y-93546443D01*
X143007009Y-93462778D01*
X142971271Y-93433448D01*
X142869814Y-93350186D01*
X142786552Y-93248729D01*
X142757222Y-93212991D01*
X142673557Y-93056466D01*
X142622037Y-92886627D01*
X142604641Y-92710000D01*
X142622037Y-92533373D01*
X142673557Y-92363534D01*
X142757222Y-92207009D01*
X142786552Y-92171271D01*
X142869814Y-92069814D01*
X142971271Y-91986552D01*
X143007009Y-91957222D01*
X143163534Y-91873557D01*
X143333373Y-91822037D01*
X143399558Y-91815518D01*
X143465740Y-91809000D01*
X143554260Y-91809000D01*
X143620442Y-91815518D01*
X143620442Y-91815518D01*
G37*
G36*
X143620443Y-89275519D02*
G01*
X143686627Y-89282037D01*
X143856466Y-89333557D01*
X144012991Y-89417222D01*
X144048729Y-89446552D01*
X144150186Y-89529814D01*
X144233448Y-89631271D01*
X144262778Y-89667009D01*
X144346443Y-89823534D01*
X144397963Y-89993373D01*
X144415359Y-90170000D01*
X144397963Y-90346627D01*
X144346443Y-90516466D01*
X144262778Y-90672991D01*
X144233448Y-90708729D01*
X144150186Y-90810186D01*
X144048729Y-90893448D01*
X144012991Y-90922778D01*
X143856466Y-91006443D01*
X143686627Y-91057963D01*
X143620442Y-91064482D01*
X143554260Y-91071000D01*
X143465740Y-91071000D01*
X143399558Y-91064482D01*
X143333373Y-91057963D01*
X143163534Y-91006443D01*
X143007009Y-90922778D01*
X142971271Y-90893448D01*
X142869814Y-90810186D01*
X142786552Y-90708729D01*
X142757222Y-90672991D01*
X142673557Y-90516466D01*
X142622037Y-90346627D01*
X142604641Y-90170000D01*
X142622037Y-89993373D01*
X142673557Y-89823534D01*
X142757222Y-89667009D01*
X142786552Y-89631271D01*
X142869814Y-89529814D01*
X142971271Y-89446552D01*
X143007009Y-89417222D01*
X143163534Y-89333557D01*
X143333373Y-89282037D01*
X143399557Y-89275519D01*
X143465740Y-89269000D01*
X143554260Y-89269000D01*
X143620443Y-89275519D01*
X143620443Y-89275519D01*
G37*
G36*
X128380443Y-89275519D02*
G01*
X128446627Y-89282037D01*
X128616466Y-89333557D01*
X128772991Y-89417222D01*
X128808729Y-89446552D01*
X128910186Y-89529814D01*
X128993448Y-89631271D01*
X129022778Y-89667009D01*
X129106443Y-89823534D01*
X129157963Y-89993373D01*
X129175359Y-90170000D01*
X129157963Y-90346627D01*
X129106443Y-90516466D01*
X129022778Y-90672991D01*
X128993448Y-90708729D01*
X128910186Y-90810186D01*
X128808729Y-90893448D01*
X128772991Y-90922778D01*
X128616466Y-91006443D01*
X128446627Y-91057963D01*
X128380442Y-91064482D01*
X128314260Y-91071000D01*
X128225740Y-91071000D01*
X128159558Y-91064482D01*
X128093373Y-91057963D01*
X127923534Y-91006443D01*
X127767009Y-90922778D01*
X127731271Y-90893448D01*
X127629814Y-90810186D01*
X127546552Y-90708729D01*
X127517222Y-90672991D01*
X127433557Y-90516466D01*
X127382037Y-90346627D01*
X127364641Y-90170000D01*
X127382037Y-89993373D01*
X127433557Y-89823534D01*
X127517222Y-89667009D01*
X127546552Y-89631271D01*
X127629814Y-89529814D01*
X127731271Y-89446552D01*
X127767009Y-89417222D01*
X127923534Y-89333557D01*
X128093373Y-89282037D01*
X128159557Y-89275519D01*
X128225740Y-89269000D01*
X128314260Y-89269000D01*
X128380443Y-89275519D01*
X128380443Y-89275519D01*
G37*
G36*
X128373462Y-86734831D02*
G01*
X128446627Y-86742037D01*
X128616466Y-86793557D01*
X128772991Y-86877222D01*
X128808729Y-86906552D01*
X128910186Y-86989814D01*
X128993448Y-87091271D01*
X129022778Y-87127009D01*
X129106443Y-87283534D01*
X129157963Y-87453373D01*
X129175359Y-87630000D01*
X129157963Y-87806627D01*
X129106443Y-87976466D01*
X129022778Y-88132991D01*
X128993448Y-88168729D01*
X128910186Y-88270186D01*
X128808729Y-88353448D01*
X128772991Y-88382778D01*
X128616466Y-88466443D01*
X128446627Y-88517963D01*
X128380442Y-88524482D01*
X128314260Y-88531000D01*
X128225740Y-88531000D01*
X128159558Y-88524482D01*
X128093373Y-88517963D01*
X127923534Y-88466443D01*
X127767009Y-88382778D01*
X127731271Y-88353448D01*
X127629814Y-88270186D01*
X127546552Y-88168729D01*
X127517222Y-88132991D01*
X127433557Y-87976466D01*
X127382037Y-87806627D01*
X127364641Y-87630000D01*
X127382037Y-87453373D01*
X127433557Y-87283534D01*
X127517222Y-87127009D01*
X127546552Y-87091271D01*
X127629814Y-86989814D01*
X127731271Y-86906552D01*
X127767009Y-86877222D01*
X127923534Y-86793557D01*
X128093373Y-86742037D01*
X128166538Y-86734831D01*
X128225740Y-86729000D01*
X128314260Y-86729000D01*
X128373462Y-86734831D01*
X128373462Y-86734831D01*
G37*
G36*
X143613462Y-86734831D02*
G01*
X143686627Y-86742037D01*
X143856466Y-86793557D01*
X144012991Y-86877222D01*
X144048729Y-86906552D01*
X144150186Y-86989814D01*
X144233448Y-87091271D01*
X144262778Y-87127009D01*
X144346443Y-87283534D01*
X144397963Y-87453373D01*
X144415359Y-87630000D01*
X144397963Y-87806627D01*
X144346443Y-87976466D01*
X144262778Y-88132991D01*
X144233448Y-88168729D01*
X144150186Y-88270186D01*
X144048729Y-88353448D01*
X144012991Y-88382778D01*
X143856466Y-88466443D01*
X143686627Y-88517963D01*
X143620442Y-88524482D01*
X143554260Y-88531000D01*
X143465740Y-88531000D01*
X143399558Y-88524482D01*
X143333373Y-88517963D01*
X143163534Y-88466443D01*
X143007009Y-88382778D01*
X142971271Y-88353448D01*
X142869814Y-88270186D01*
X142786552Y-88168729D01*
X142757222Y-88132991D01*
X142673557Y-87976466D01*
X142622037Y-87806627D01*
X142604641Y-87630000D01*
X142622037Y-87453373D01*
X142673557Y-87283534D01*
X142757222Y-87127009D01*
X142786552Y-87091271D01*
X142869814Y-86989814D01*
X142971271Y-86906552D01*
X143007009Y-86877222D01*
X143163534Y-86793557D01*
X143333373Y-86742037D01*
X143406538Y-86734831D01*
X143465740Y-86729000D01*
X143554260Y-86729000D01*
X143613462Y-86734831D01*
X143613462Y-86734831D01*
G37*
G36*
X138035999Y-86448737D02*
G01*
X138045608Y-86451652D01*
X138054472Y-86456390D01*
X138062237Y-86462763D01*
X138072448Y-86475206D01*
X138079378Y-86485575D01*
X138096705Y-86502902D01*
X138117080Y-86516515D01*
X138139720Y-86525891D01*
X138163753Y-86530671D01*
X138188257Y-86530670D01*
X138212290Y-86525888D01*
X138234929Y-86516510D01*
X138255302Y-86502895D01*
X138272629Y-86485568D01*
X138279558Y-86475198D01*
X138289763Y-86462763D01*
X138297528Y-86456390D01*
X138306392Y-86451652D01*
X138316001Y-86448737D01*
X138332140Y-86447148D01*
X138819861Y-86447148D01*
X138838199Y-86448954D01*
X138850450Y-86449556D01*
X138868869Y-86449556D01*
X138891149Y-86451750D01*
X138975233Y-86468476D01*
X138996660Y-86474976D01*
X139075858Y-86507780D01*
X139081303Y-86510691D01*
X139081309Y-86510693D01*
X139090169Y-86515429D01*
X139090173Y-86515432D01*
X139095614Y-86518340D01*
X139166899Y-86565971D01*
X139184204Y-86580172D01*
X139244828Y-86640796D01*
X139259029Y-86658101D01*
X139306660Y-86729386D01*
X139309568Y-86734827D01*
X139309571Y-86734831D01*
X139314307Y-86743691D01*
X139314309Y-86743697D01*
X139317220Y-86749142D01*
X139350024Y-86828340D01*
X139356524Y-86849767D01*
X139373250Y-86933851D01*
X139375444Y-86956131D01*
X139375444Y-86974550D01*
X139376046Y-86986801D01*
X139377852Y-87005139D01*
X139377852Y-87492862D01*
X139376046Y-87511199D01*
X139375444Y-87523450D01*
X139375444Y-87541869D01*
X139373250Y-87564149D01*
X139356524Y-87648233D01*
X139350024Y-87669660D01*
X139317220Y-87748858D01*
X139314309Y-87754303D01*
X139314307Y-87754309D01*
X139309571Y-87763169D01*
X139309568Y-87763173D01*
X139306660Y-87768614D01*
X139259029Y-87839899D01*
X139244828Y-87857204D01*
X139184204Y-87917828D01*
X139166899Y-87932029D01*
X139095614Y-87979660D01*
X139090173Y-87982568D01*
X139090169Y-87982571D01*
X139081309Y-87987307D01*
X139081303Y-87987309D01*
X139075858Y-87990220D01*
X138996660Y-88023024D01*
X138975233Y-88029524D01*
X138891149Y-88046250D01*
X138868869Y-88048444D01*
X138850450Y-88048444D01*
X138838199Y-88049046D01*
X138819862Y-88050852D01*
X138332140Y-88050852D01*
X138316001Y-88049263D01*
X138306392Y-88046348D01*
X138297528Y-88041610D01*
X138289763Y-88035237D01*
X138279552Y-88022794D01*
X138272622Y-88012425D01*
X138255295Y-87995098D01*
X138234920Y-87981485D01*
X138212280Y-87972109D01*
X138188247Y-87967329D01*
X138163743Y-87967330D01*
X138139710Y-87972112D01*
X138117071Y-87981490D01*
X138096698Y-87995105D01*
X138079371Y-88012432D01*
X138072442Y-88022802D01*
X138062237Y-88035237D01*
X138054472Y-88041610D01*
X138045608Y-88046348D01*
X138035999Y-88049263D01*
X138019860Y-88050852D01*
X137532138Y-88050852D01*
X137513801Y-88049046D01*
X137501550Y-88048444D01*
X137483131Y-88048444D01*
X137460851Y-88046250D01*
X137376767Y-88029524D01*
X137355340Y-88023024D01*
X137276142Y-87990220D01*
X137270697Y-87987309D01*
X137270691Y-87987307D01*
X137261831Y-87982571D01*
X137261827Y-87982568D01*
X137256386Y-87979660D01*
X137185101Y-87932029D01*
X137167796Y-87917828D01*
X137107172Y-87857204D01*
X137092971Y-87839899D01*
X137045340Y-87768614D01*
X137042432Y-87763173D01*
X137042429Y-87763169D01*
X137037693Y-87754309D01*
X137037691Y-87754303D01*
X137034780Y-87748858D01*
X137001976Y-87669660D01*
X136995476Y-87648233D01*
X136978750Y-87564149D01*
X136976556Y-87541869D01*
X136976556Y-87523450D01*
X136975954Y-87511199D01*
X136974148Y-87492862D01*
X136974148Y-87005139D01*
X136975954Y-86986801D01*
X136976556Y-86974550D01*
X136976556Y-86956131D01*
X136978750Y-86933851D01*
X136995476Y-86849767D01*
X137001976Y-86828340D01*
X137034780Y-86749142D01*
X137037691Y-86743697D01*
X137037693Y-86743691D01*
X137042429Y-86734831D01*
X137042432Y-86734827D01*
X137045340Y-86729386D01*
X137092971Y-86658101D01*
X137107172Y-86640796D01*
X137167796Y-86580172D01*
X137185101Y-86565971D01*
X137256386Y-86518340D01*
X137261827Y-86515432D01*
X137261831Y-86515429D01*
X137270691Y-86510693D01*
X137270697Y-86510691D01*
X137276142Y-86507780D01*
X137355340Y-86474976D01*
X137376767Y-86468476D01*
X137460851Y-86451750D01*
X137483131Y-86449556D01*
X137501550Y-86449556D01*
X137513801Y-86448954D01*
X137532139Y-86447148D01*
X138019860Y-86447148D01*
X138035999Y-86448737D01*
X138035999Y-86448737D01*
G37*
G36*
X143620442Y-84195518D02*
G01*
X143686627Y-84202037D01*
X143856466Y-84253557D01*
X144012991Y-84337222D01*
X144048729Y-84366552D01*
X144150186Y-84449814D01*
X144223378Y-84539000D01*
X144262778Y-84587009D01*
X144346443Y-84743534D01*
X144397963Y-84913373D01*
X144415359Y-85090000D01*
X144397963Y-85266627D01*
X144346443Y-85436466D01*
X144262778Y-85592991D01*
X144233448Y-85628729D01*
X144150186Y-85730186D01*
X144048729Y-85813448D01*
X144012991Y-85842778D01*
X143856466Y-85926443D01*
X143686627Y-85977963D01*
X143620442Y-85984482D01*
X143554260Y-85991000D01*
X143465740Y-85991000D01*
X143399558Y-85984482D01*
X143333373Y-85977963D01*
X143163534Y-85926443D01*
X143007009Y-85842778D01*
X142971271Y-85813448D01*
X142869814Y-85730186D01*
X142786552Y-85628729D01*
X142757222Y-85592991D01*
X142673557Y-85436466D01*
X142622037Y-85266627D01*
X142604641Y-85090000D01*
X142622037Y-84913373D01*
X142673557Y-84743534D01*
X142757222Y-84587009D01*
X142796622Y-84539000D01*
X142869814Y-84449814D01*
X142971271Y-84366552D01*
X143007009Y-84337222D01*
X143163534Y-84253557D01*
X143333373Y-84202037D01*
X143399558Y-84195518D01*
X143465740Y-84189000D01*
X143554260Y-84189000D01*
X143620442Y-84195518D01*
X143620442Y-84195518D01*
G37*
G36*
X128380442Y-84195518D02*
G01*
X128446627Y-84202037D01*
X128616466Y-84253557D01*
X128772991Y-84337222D01*
X128808729Y-84366552D01*
X128910186Y-84449814D01*
X128983378Y-84539000D01*
X129022778Y-84587009D01*
X129106443Y-84743534D01*
X129157963Y-84913373D01*
X129175359Y-85090000D01*
X129157963Y-85266627D01*
X129106443Y-85436466D01*
X129022778Y-85592991D01*
X128993448Y-85628729D01*
X128910186Y-85730186D01*
X128808729Y-85813448D01*
X128772991Y-85842778D01*
X128616466Y-85926443D01*
X128446627Y-85977963D01*
X128380442Y-85984482D01*
X128314260Y-85991000D01*
X128225740Y-85991000D01*
X128159558Y-85984482D01*
X128093373Y-85977963D01*
X127923534Y-85926443D01*
X127767009Y-85842778D01*
X127731271Y-85813448D01*
X127629814Y-85730186D01*
X127546552Y-85628729D01*
X127517222Y-85592991D01*
X127433557Y-85436466D01*
X127382037Y-85266627D01*
X127364641Y-85090000D01*
X127382037Y-84913373D01*
X127433557Y-84743534D01*
X127517222Y-84587009D01*
X127556622Y-84539000D01*
X127629814Y-84449814D01*
X127731271Y-84366552D01*
X127767009Y-84337222D01*
X127923534Y-84253557D01*
X128093373Y-84202037D01*
X128159558Y-84195518D01*
X128225740Y-84189000D01*
X128314260Y-84189000D01*
X128380442Y-84195518D01*
X128380442Y-84195518D01*
G37*
G36*
X139477000Y-85641000D02*
G01*
X136875000Y-85641000D01*
X136875000Y-84539000D01*
X139477000Y-84539000D01*
X139477000Y-85641000D01*
X139477000Y-85641000D01*
G37*
G36*
X139477000Y-84244000D02*
G01*
X136875000Y-84244000D01*
X136875000Y-83142000D01*
X139477000Y-83142000D01*
X139477000Y-84244000D01*
X139477000Y-84244000D01*
G37*
G36*
X143620443Y-81655519D02*
G01*
X143686627Y-81662037D01*
X143856466Y-81713557D01*
X144012991Y-81797222D01*
X144048729Y-81826552D01*
X144150186Y-81909814D01*
X144233448Y-82011271D01*
X144262778Y-82047009D01*
X144346443Y-82203534D01*
X144397963Y-82373373D01*
X144415359Y-82550000D01*
X144397963Y-82726627D01*
X144346443Y-82896466D01*
X144262778Y-83052991D01*
X144233448Y-83088729D01*
X144150186Y-83190186D01*
X144048729Y-83273448D01*
X144012991Y-83302778D01*
X143856466Y-83386443D01*
X143686627Y-83437963D01*
X143620443Y-83444481D01*
X143554260Y-83451000D01*
X143465740Y-83451000D01*
X143399557Y-83444481D01*
X143333373Y-83437963D01*
X143163534Y-83386443D01*
X143007009Y-83302778D01*
X142971271Y-83273448D01*
X142869814Y-83190186D01*
X142786552Y-83088729D01*
X142757222Y-83052991D01*
X142673557Y-82896466D01*
X142622037Y-82726627D01*
X142604641Y-82550000D01*
X142622037Y-82373373D01*
X142673557Y-82203534D01*
X142757222Y-82047009D01*
X142786552Y-82011271D01*
X142869814Y-81909814D01*
X142971271Y-81826552D01*
X143007009Y-81797222D01*
X143163534Y-81713557D01*
X143333373Y-81662037D01*
X143399557Y-81655519D01*
X143465740Y-81649000D01*
X143554260Y-81649000D01*
X143620443Y-81655519D01*
X143620443Y-81655519D01*
G37*
G36*
X128380443Y-81655519D02*
G01*
X128446627Y-81662037D01*
X128616466Y-81713557D01*
X128772991Y-81797222D01*
X128808729Y-81826552D01*
X128910186Y-81909814D01*
X128993448Y-82011271D01*
X129022778Y-82047009D01*
X129106443Y-82203534D01*
X129157963Y-82373373D01*
X129175359Y-82550000D01*
X129157963Y-82726627D01*
X129106443Y-82896466D01*
X129022778Y-83052991D01*
X128993448Y-83088729D01*
X128910186Y-83190186D01*
X128808729Y-83273448D01*
X128772991Y-83302778D01*
X128616466Y-83386443D01*
X128446627Y-83437963D01*
X128380443Y-83444481D01*
X128314260Y-83451000D01*
X128225740Y-83451000D01*
X128159557Y-83444481D01*
X128093373Y-83437963D01*
X127923534Y-83386443D01*
X127767009Y-83302778D01*
X127731271Y-83273448D01*
X127629814Y-83190186D01*
X127546552Y-83088729D01*
X127517222Y-83052991D01*
X127433557Y-82896466D01*
X127382037Y-82726627D01*
X127364641Y-82550000D01*
X127382037Y-82373373D01*
X127433557Y-82203534D01*
X127517222Y-82047009D01*
X127546552Y-82011271D01*
X127629814Y-81909814D01*
X127731271Y-81826552D01*
X127767009Y-81797222D01*
X127923534Y-81713557D01*
X128093373Y-81662037D01*
X128159557Y-81655519D01*
X128225740Y-81649000D01*
X128314260Y-81649000D01*
X128380443Y-81655519D01*
X128380443Y-81655519D01*
G37*
G36*
X139477000Y-82847000D02*
G01*
X136875000Y-82847000D01*
X136875000Y-81745000D01*
X139477000Y-81745000D01*
X139477000Y-82847000D01*
X139477000Y-82847000D01*
G37*
G36*
X138643114Y-80253611D02*
G01*
X138742265Y-80283688D01*
X138833644Y-80332531D01*
X138913738Y-80398262D01*
X138979469Y-80478356D01*
X139028312Y-80569735D01*
X139058389Y-80668886D01*
X139068545Y-80772000D01*
X139058389Y-80875114D01*
X139028312Y-80974265D01*
X138979469Y-81065644D01*
X138913738Y-81145738D01*
X138833644Y-81211469D01*
X138742265Y-81260312D01*
X138643114Y-81290389D01*
X138565839Y-81298000D01*
X138214161Y-81298000D01*
X138136886Y-81290389D01*
X138037735Y-81260312D01*
X137946356Y-81211469D01*
X137866262Y-81145738D01*
X137800531Y-81065644D01*
X137751688Y-80974265D01*
X137721611Y-80875114D01*
X137711455Y-80772000D01*
X137721611Y-80668886D01*
X137751688Y-80569735D01*
X137800531Y-80478356D01*
X137866262Y-80398262D01*
X137946356Y-80332531D01*
X138037735Y-80283688D01*
X138136886Y-80253611D01*
X138214161Y-80246000D01*
X138565839Y-80246000D01*
X138643114Y-80253611D01*
X138643114Y-80253611D01*
G37*
G36*
X133643114Y-80253611D02*
G01*
X133742265Y-80283688D01*
X133833644Y-80332531D01*
X133913738Y-80398262D01*
X133979469Y-80478356D01*
X134028312Y-80569735D01*
X134058389Y-80668886D01*
X134068545Y-80772000D01*
X134058389Y-80875114D01*
X134028312Y-80974265D01*
X133979469Y-81065644D01*
X133913738Y-81145738D01*
X133833644Y-81211469D01*
X133742265Y-81260312D01*
X133643114Y-81290389D01*
X133565839Y-81298000D01*
X133214161Y-81298000D01*
X133136886Y-81290389D01*
X133037735Y-81260312D01*
X132946356Y-81211469D01*
X132866262Y-81145738D01*
X132800531Y-81065644D01*
X132751688Y-80974265D01*
X132721611Y-80875114D01*
X132711455Y-80772000D01*
X132721611Y-80668886D01*
X132751688Y-80569735D01*
X132800531Y-80478356D01*
X132866262Y-80398262D01*
X132946356Y-80332531D01*
X133037735Y-80283688D01*
X133136886Y-80253611D01*
X133214161Y-80246000D01*
X133565839Y-80246000D01*
X133643114Y-80253611D01*
X133643114Y-80253611D01*
G37*
G36*
X143620443Y-79115519D02*
G01*
X143686627Y-79122037D01*
X143856466Y-79173557D01*
X144012991Y-79257222D01*
X144048729Y-79286552D01*
X144150186Y-79369814D01*
X144233448Y-79471271D01*
X144262778Y-79507009D01*
X144346443Y-79663534D01*
X144397963Y-79833373D01*
X144415359Y-80010000D01*
X144397963Y-80186627D01*
X144346443Y-80356466D01*
X144262778Y-80512991D01*
X144233448Y-80548729D01*
X144150186Y-80650186D01*
X144048729Y-80733448D01*
X144012991Y-80762778D01*
X143856466Y-80846443D01*
X143686627Y-80897963D01*
X143620442Y-80904482D01*
X143554260Y-80911000D01*
X143465740Y-80911000D01*
X143399558Y-80904482D01*
X143333373Y-80897963D01*
X143163534Y-80846443D01*
X143007009Y-80762778D01*
X142971271Y-80733448D01*
X142869814Y-80650186D01*
X142786552Y-80548729D01*
X142757222Y-80512991D01*
X142673557Y-80356466D01*
X142622037Y-80186627D01*
X142604641Y-80010000D01*
X142622037Y-79833373D01*
X142673557Y-79663534D01*
X142757222Y-79507009D01*
X142786552Y-79471271D01*
X142869814Y-79369814D01*
X142971271Y-79286552D01*
X143007009Y-79257222D01*
X143163534Y-79173557D01*
X143333373Y-79122037D01*
X143399557Y-79115519D01*
X143465740Y-79109000D01*
X143554260Y-79109000D01*
X143620443Y-79115519D01*
X143620443Y-79115519D01*
G37*
G36*
X128380443Y-79115519D02*
G01*
X128446627Y-79122037D01*
X128616466Y-79173557D01*
X128772991Y-79257222D01*
X128808729Y-79286552D01*
X128910186Y-79369814D01*
X128993448Y-79471271D01*
X129022778Y-79507009D01*
X129106443Y-79663534D01*
X129157963Y-79833373D01*
X129175359Y-80010000D01*
X129157963Y-80186627D01*
X129106443Y-80356466D01*
X129022778Y-80512991D01*
X128993448Y-80548729D01*
X128910186Y-80650186D01*
X128808729Y-80733448D01*
X128772991Y-80762778D01*
X128616466Y-80846443D01*
X128446627Y-80897963D01*
X128380442Y-80904482D01*
X128314260Y-80911000D01*
X128225740Y-80911000D01*
X128159558Y-80904482D01*
X128093373Y-80897963D01*
X127923534Y-80846443D01*
X127767009Y-80762778D01*
X127731271Y-80733448D01*
X127629814Y-80650186D01*
X127546552Y-80548729D01*
X127517222Y-80512991D01*
X127433557Y-80356466D01*
X127382037Y-80186627D01*
X127364641Y-80010000D01*
X127382037Y-79833373D01*
X127433557Y-79663534D01*
X127517222Y-79507009D01*
X127546552Y-79471271D01*
X127629814Y-79369814D01*
X127731271Y-79286552D01*
X127767009Y-79257222D01*
X127923534Y-79173557D01*
X128093373Y-79122037D01*
X128159557Y-79115519D01*
X128225740Y-79109000D01*
X128314260Y-79109000D01*
X128380443Y-79115519D01*
X128380443Y-79115519D01*
G37*
G36*
X132498015Y-77253973D02*
G01*
X132601879Y-77285479D01*
X132629055Y-77300005D01*
X132697600Y-77336643D01*
X132781501Y-77405499D01*
X132850357Y-77489400D01*
X132886995Y-77557945D01*
X132901521Y-77585121D01*
X132933027Y-77688985D01*
X132941000Y-77769933D01*
X132941000Y-78374067D01*
X132933027Y-78455015D01*
X132901521Y-78558879D01*
X132850356Y-78654600D01*
X132781501Y-78738501D01*
X132712645Y-78795009D01*
X132697599Y-78807357D01*
X132645907Y-78834987D01*
X132601878Y-78858521D01*
X132498014Y-78890027D01*
X132390000Y-78900666D01*
X132281985Y-78890027D01*
X132178121Y-78858521D01*
X132134093Y-78834987D01*
X132082401Y-78807357D01*
X132069643Y-78796887D01*
X131998499Y-78738501D01*
X131929644Y-78654600D01*
X131878479Y-78558878D01*
X131846973Y-78455014D01*
X131839000Y-78374066D01*
X131839000Y-77769933D01*
X131846973Y-77688985D01*
X131878480Y-77585121D01*
X131878481Y-77585118D01*
X131929643Y-77489401D01*
X131998500Y-77405499D01*
X132082401Y-77336643D01*
X132150946Y-77300005D01*
X132178122Y-77285479D01*
X132281986Y-77253973D01*
X132390000Y-77243334D01*
X132498015Y-77253973D01*
X132498015Y-77253973D01*
G37*
G36*
X139498015Y-77253973D02*
G01*
X139601879Y-77285479D01*
X139629055Y-77300005D01*
X139697600Y-77336643D01*
X139781501Y-77405499D01*
X139850357Y-77489400D01*
X139886995Y-77557945D01*
X139901521Y-77585121D01*
X139933027Y-77688985D01*
X139941000Y-77769933D01*
X139941000Y-78374067D01*
X139933027Y-78455015D01*
X139901521Y-78558879D01*
X139850356Y-78654600D01*
X139781501Y-78738501D01*
X139712645Y-78795009D01*
X139697599Y-78807357D01*
X139645907Y-78834987D01*
X139601878Y-78858521D01*
X139498014Y-78890027D01*
X139390000Y-78900666D01*
X139281985Y-78890027D01*
X139178121Y-78858521D01*
X139134093Y-78834987D01*
X139082401Y-78807357D01*
X139069643Y-78796887D01*
X138998499Y-78738501D01*
X138929644Y-78654600D01*
X138878479Y-78558878D01*
X138846973Y-78455014D01*
X138839000Y-78374066D01*
X138839000Y-77769933D01*
X138846973Y-77688985D01*
X138878480Y-77585121D01*
X138878481Y-77585118D01*
X138929643Y-77489401D01*
X138998500Y-77405499D01*
X139082401Y-77336643D01*
X139150946Y-77300005D01*
X139178122Y-77285479D01*
X139281986Y-77253973D01*
X139390000Y-77243334D01*
X139498015Y-77253973D01*
X139498015Y-77253973D01*
G37*
G36*
X128383512Y-76573927D02*
G01*
X128532812Y-76603624D01*
X128696784Y-76671544D01*
X128844354Y-76770147D01*
X128969853Y-76895646D01*
X129068456Y-77043216D01*
X129136376Y-77207188D01*
X129171000Y-77381259D01*
X129171000Y-77558741D01*
X129136376Y-77732812D01*
X129068456Y-77896784D01*
X128969853Y-78044354D01*
X128844354Y-78169853D01*
X128696784Y-78268456D01*
X128532812Y-78336376D01*
X128383512Y-78366073D01*
X128358742Y-78371000D01*
X128181258Y-78371000D01*
X128156488Y-78366073D01*
X128007188Y-78336376D01*
X127843216Y-78268456D01*
X127695646Y-78169853D01*
X127570147Y-78044354D01*
X127471544Y-77896784D01*
X127403624Y-77732812D01*
X127369000Y-77558741D01*
X127369000Y-77381259D01*
X127403624Y-77207188D01*
X127471544Y-77043216D01*
X127570147Y-76895646D01*
X127695646Y-76770147D01*
X127843216Y-76671544D01*
X128007188Y-76603624D01*
X128156488Y-76573927D01*
X128181258Y-76569000D01*
X128358742Y-76569000D01*
X128383512Y-76573927D01*
X128383512Y-76573927D01*
G37*
G36*
X143623512Y-76573927D02*
G01*
X143772812Y-76603624D01*
X143936784Y-76671544D01*
X144084354Y-76770147D01*
X144209853Y-76895646D01*
X144308456Y-77043216D01*
X144376376Y-77207188D01*
X144411000Y-77381259D01*
X144411000Y-77558741D01*
X144376376Y-77732812D01*
X144308456Y-77896784D01*
X144209853Y-78044354D01*
X144084354Y-78169853D01*
X143936784Y-78268456D01*
X143772812Y-78336376D01*
X143623512Y-78366073D01*
X143598742Y-78371000D01*
X143421258Y-78371000D01*
X143396488Y-78366073D01*
X143247188Y-78336376D01*
X143083216Y-78268456D01*
X142935646Y-78169853D01*
X142810147Y-78044354D01*
X142711544Y-77896784D01*
X142643624Y-77732812D01*
X142609000Y-77558741D01*
X142609000Y-77381259D01*
X142643624Y-77207188D01*
X142711544Y-77043216D01*
X142810147Y-76895646D01*
X142935646Y-76770147D01*
X143083216Y-76671544D01*
X143247188Y-76603624D01*
X143396488Y-76573927D01*
X143421258Y-76569000D01*
X143598742Y-76569000D01*
X143623512Y-76573927D01*
X143623512Y-76573927D01*
G37*
M02*
