G04 #@! TF.GenerationSoftware,KiCad,Pcbnew,(5.1.0)-1*
G04 #@! TF.CreationDate,2019-08-08T12:31:07-05:00*
G04 #@! TF.ProjectId,STM32F070_Breakout,53544d33-3246-4303-9730-5f427265616b,v02*
G04 #@! TF.SameCoordinates,Original*
G04 #@! TF.FileFunction,Legend,Bot*
G04 #@! TF.FilePolarity,Positive*
%FSLAX46Y46*%
G04 Gerber Fmt 4.6, Leading zero omitted, Abs format (unit mm)*
G04 Created by KiCad (PCBNEW (5.1.0)-1) date 2019-08-08 12:31:07*
%MOMM*%
%LPD*%
G04 APERTURE LIST*
%ADD10C,0.127000*%
%ADD11C,0.203200*%
%ADD12C,0.120000*%
%ADD13C,0.010000*%
G04 APERTURE END LIST*
D10*
X139479866Y-94521866D02*
X139378266Y-94555733D01*
X139208933Y-94555733D01*
X139141200Y-94521866D01*
X139107333Y-94488000D01*
X139073466Y-94420266D01*
X139073466Y-94352533D01*
X139107333Y-94284800D01*
X139141200Y-94250933D01*
X139208933Y-94217066D01*
X139344400Y-94183200D01*
X139412133Y-94149333D01*
X139446000Y-94115466D01*
X139479866Y-94047733D01*
X139479866Y-93980000D01*
X139446000Y-93912266D01*
X139412133Y-93878400D01*
X139344400Y-93844533D01*
X139175066Y-93844533D01*
X139073466Y-93878400D01*
X138870266Y-93844533D02*
X138463866Y-93844533D01*
X138667066Y-94555733D02*
X138667066Y-93844533D01*
X138226800Y-94555733D02*
X138226800Y-93844533D01*
X137989733Y-94352533D01*
X137752666Y-93844533D01*
X137752666Y-94555733D01*
X137481733Y-93844533D02*
X137041466Y-93844533D01*
X137278533Y-94115466D01*
X137176933Y-94115466D01*
X137109200Y-94149333D01*
X137075333Y-94183200D01*
X137041466Y-94250933D01*
X137041466Y-94420266D01*
X137075333Y-94488000D01*
X137109200Y-94521866D01*
X137176933Y-94555733D01*
X137380133Y-94555733D01*
X137447866Y-94521866D01*
X137481733Y-94488000D01*
X136770533Y-93912266D02*
X136736666Y-93878400D01*
X136668933Y-93844533D01*
X136499600Y-93844533D01*
X136431866Y-93878400D01*
X136398000Y-93912266D01*
X136364133Y-93980000D01*
X136364133Y-94047733D01*
X136398000Y-94149333D01*
X136804400Y-94555733D01*
X136364133Y-94555733D01*
X135822266Y-94183200D02*
X136059333Y-94183200D01*
X136059333Y-94555733D02*
X136059333Y-93844533D01*
X135720666Y-93844533D01*
X135314266Y-93844533D02*
X135246533Y-93844533D01*
X135178800Y-93878400D01*
X135144933Y-93912266D01*
X135111066Y-93980000D01*
X135077200Y-94115466D01*
X135077200Y-94284800D01*
X135111066Y-94420266D01*
X135144933Y-94488000D01*
X135178800Y-94521866D01*
X135246533Y-94555733D01*
X135314266Y-94555733D01*
X135382000Y-94521866D01*
X135415866Y-94488000D01*
X135449733Y-94420266D01*
X135483600Y-94284800D01*
X135483600Y-94115466D01*
X135449733Y-93980000D01*
X135415866Y-93912266D01*
X135382000Y-93878400D01*
X135314266Y-93844533D01*
X134840133Y-93844533D02*
X134366000Y-93844533D01*
X134670800Y-94555733D01*
X133959600Y-93844533D02*
X133891866Y-93844533D01*
X133824133Y-93878400D01*
X133790266Y-93912266D01*
X133756400Y-93980000D01*
X133722533Y-94115466D01*
X133722533Y-94284800D01*
X133756400Y-94420266D01*
X133790266Y-94488000D01*
X133824133Y-94521866D01*
X133891866Y-94555733D01*
X133959600Y-94555733D01*
X134027333Y-94521866D01*
X134061200Y-94488000D01*
X134095066Y-94420266D01*
X134128933Y-94284800D01*
X134128933Y-94115466D01*
X134095066Y-93980000D01*
X134061200Y-93912266D01*
X134027333Y-93878400D01*
X133959600Y-93844533D01*
X133011333Y-94488000D02*
X133045200Y-94521866D01*
X133146800Y-94555733D01*
X133214533Y-94555733D01*
X133316133Y-94521866D01*
X133383866Y-94454133D01*
X133417733Y-94386400D01*
X133451600Y-94250933D01*
X133451600Y-94149333D01*
X133417733Y-94013866D01*
X133383866Y-93946133D01*
X133316133Y-93878400D01*
X133214533Y-93844533D01*
X133146800Y-93844533D01*
X133045200Y-93878400D01*
X133011333Y-93912266D01*
X132469466Y-94183200D02*
X132367866Y-94217066D01*
X132334000Y-94250933D01*
X132300133Y-94318666D01*
X132300133Y-94420266D01*
X132334000Y-94488000D01*
X132367866Y-94521866D01*
X132435600Y-94555733D01*
X132706533Y-94555733D01*
X132706533Y-93844533D01*
X132469466Y-93844533D01*
X132401733Y-93878400D01*
X132367866Y-93912266D01*
X132334000Y-93980000D01*
X132334000Y-94047733D01*
X132367866Y-94115466D01*
X132401733Y-94149333D01*
X132469466Y-94183200D01*
X132706533Y-94183200D01*
X136438821Y-83319257D02*
X135872764Y-83319257D01*
X136177564Y-83667600D01*
X136046935Y-83667600D01*
X135959850Y-83711142D01*
X135916307Y-83754685D01*
X135872764Y-83841771D01*
X135872764Y-84059485D01*
X135916307Y-84146571D01*
X135959850Y-84190114D01*
X136046935Y-84233657D01*
X136308192Y-84233657D01*
X136395278Y-84190114D01*
X136438821Y-84146571D01*
X135306707Y-83319257D02*
X135219621Y-83319257D01*
X135132535Y-83362800D01*
X135088992Y-83406342D01*
X135045450Y-83493428D01*
X135001907Y-83667600D01*
X135001907Y-83885314D01*
X135045450Y-84059485D01*
X135088992Y-84146571D01*
X135132535Y-84190114D01*
X135219621Y-84233657D01*
X135306707Y-84233657D01*
X135393792Y-84190114D01*
X135437335Y-84146571D01*
X135480878Y-84059485D01*
X135524421Y-83885314D01*
X135524421Y-83667600D01*
X135480878Y-83493428D01*
X135437335Y-83406342D01*
X135393792Y-83362800D01*
X135306707Y-83319257D01*
X135872764Y-85503657D02*
X136395278Y-85503657D01*
X136134021Y-85503657D02*
X136134021Y-84589257D01*
X136221107Y-84719885D01*
X136308192Y-84806971D01*
X136395278Y-84850514D01*
X135524421Y-84676342D02*
X135480878Y-84632800D01*
X135393792Y-84589257D01*
X135176078Y-84589257D01*
X135088992Y-84632800D01*
X135045450Y-84676342D01*
X135001907Y-84763428D01*
X135001907Y-84850514D01*
X135045450Y-84981142D01*
X135567964Y-85503657D01*
X135001907Y-85503657D01*
X136438821Y-81922257D02*
X135872764Y-81922257D01*
X136177564Y-82270600D01*
X136046935Y-82270600D01*
X135959850Y-82314142D01*
X135916307Y-82357685D01*
X135872764Y-82444771D01*
X135872764Y-82662485D01*
X135916307Y-82749571D01*
X135959850Y-82793114D01*
X136046935Y-82836657D01*
X136308192Y-82836657D01*
X136395278Y-82793114D01*
X136438821Y-82749571D01*
X135001907Y-82836657D02*
X135524421Y-82836657D01*
X135263164Y-82836657D02*
X135263164Y-81922257D01*
X135350250Y-82052885D01*
X135437335Y-82139971D01*
X135524421Y-82183514D01*
D11*
X138734800Y-91406133D02*
X138734800Y-92083466D01*
X139208933Y-90661066D02*
X138734800Y-91406133D01*
X138260666Y-90661066D01*
X137854266Y-91677066D02*
X137176933Y-91677066D01*
X137989733Y-92083466D02*
X137515600Y-90661066D01*
X137041466Y-92083466D01*
X136635066Y-92015733D02*
X136431866Y-92083466D01*
X136093200Y-92083466D01*
X135957733Y-92015733D01*
X135890000Y-91948000D01*
X135822266Y-91812533D01*
X135822266Y-91677066D01*
X135890000Y-91541600D01*
X135957733Y-91473866D01*
X136093200Y-91406133D01*
X136364133Y-91338400D01*
X136499600Y-91270666D01*
X136567333Y-91202933D01*
X136635066Y-91067466D01*
X136635066Y-90932000D01*
X136567333Y-90796533D01*
X136499600Y-90728800D01*
X136364133Y-90661066D01*
X136025466Y-90661066D01*
X135822266Y-90728800D01*
X135212666Y-91541600D02*
X134128933Y-91541600D01*
X133180666Y-90661066D02*
X133045200Y-90661066D01*
X132909733Y-90728800D01*
X132842000Y-90796533D01*
X132774266Y-90932000D01*
X132706533Y-91202933D01*
X132706533Y-91541600D01*
X132774266Y-91812533D01*
X132842000Y-91948000D01*
X132909733Y-92015733D01*
X133045200Y-92083466D01*
X133180666Y-92083466D01*
X133316133Y-92015733D01*
X133383866Y-91948000D01*
X133451600Y-91812533D01*
X133519333Y-91541600D01*
X133519333Y-91202933D01*
X133451600Y-90932000D01*
X133383866Y-90796533D01*
X133316133Y-90728800D01*
X133180666Y-90661066D01*
D10*
X138017250Y-101375633D02*
X137576983Y-101375633D01*
X137814050Y-101646566D01*
X137712450Y-101646566D01*
X137644716Y-101680433D01*
X137610850Y-101714300D01*
X137576983Y-101782033D01*
X137576983Y-101951366D01*
X137610850Y-102019100D01*
X137644716Y-102052966D01*
X137712450Y-102086833D01*
X137915650Y-102086833D01*
X137983383Y-102052966D01*
X138017250Y-102019100D01*
X137373783Y-101375633D02*
X137136716Y-102086833D01*
X136899650Y-101375633D01*
X136730316Y-101375633D02*
X136290050Y-101375633D01*
X136527116Y-101646566D01*
X136425516Y-101646566D01*
X136357783Y-101680433D01*
X136323916Y-101714300D01*
X136290050Y-101782033D01*
X136290050Y-101951366D01*
X136323916Y-102019100D01*
X136357783Y-102052966D01*
X136425516Y-102086833D01*
X136628716Y-102086833D01*
X136696450Y-102052966D01*
X136730316Y-102019100D01*
X137983383Y-103077433D02*
X137644716Y-103077433D01*
X138051116Y-103280633D02*
X137814050Y-102569433D01*
X137576983Y-103280633D01*
X136933516Y-103280633D02*
X137170583Y-102941966D01*
X137339916Y-103280633D02*
X137339916Y-102569433D01*
X137068983Y-102569433D01*
X137001250Y-102603300D01*
X136967383Y-102637166D01*
X136933516Y-102704900D01*
X136933516Y-102806500D01*
X136967383Y-102874233D01*
X137001250Y-102908100D01*
X137068983Y-102941966D01*
X137339916Y-102941966D01*
X136628716Y-102908100D02*
X136391650Y-102908100D01*
X136290050Y-103280633D02*
X136628716Y-103280633D01*
X136628716Y-102569433D01*
X136290050Y-102569433D01*
X135748183Y-102908100D02*
X135985250Y-102908100D01*
X135985250Y-103280633D02*
X135985250Y-102569433D01*
X135646583Y-102569433D01*
X137094383Y-97565633D02*
X136755716Y-97565633D01*
X137162116Y-97768833D02*
X136925050Y-97057633D01*
X136687983Y-97768833D01*
X136078383Y-97091500D02*
X136146116Y-97057633D01*
X136247716Y-97057633D01*
X136349316Y-97091500D01*
X136417050Y-97159233D01*
X136450916Y-97226966D01*
X136484783Y-97362433D01*
X136484783Y-97464033D01*
X136450916Y-97599500D01*
X136417050Y-97667233D01*
X136349316Y-97734966D01*
X136247716Y-97768833D01*
X136179983Y-97768833D01*
X136078383Y-97734966D01*
X136044516Y-97701100D01*
X136044516Y-97464033D01*
X136179983Y-97464033D01*
X135739716Y-97768833D02*
X135739716Y-97057633D01*
X135333316Y-97768833D01*
X135333316Y-97057633D01*
X134994650Y-97768833D02*
X134994650Y-97057633D01*
X134825316Y-97057633D01*
X134723716Y-97091500D01*
X134655983Y-97159233D01*
X134622116Y-97226966D01*
X134588250Y-97362433D01*
X134588250Y-97464033D01*
X134622116Y-97599500D01*
X134655983Y-97667233D01*
X134723716Y-97734966D01*
X134825316Y-97768833D01*
X134994650Y-97768833D01*
X136687983Y-98285300D02*
X136755716Y-98251433D01*
X136857316Y-98251433D01*
X136958916Y-98285300D01*
X137026650Y-98353033D01*
X137060516Y-98420766D01*
X137094383Y-98556233D01*
X137094383Y-98657833D01*
X137060516Y-98793300D01*
X137026650Y-98861033D01*
X136958916Y-98928766D01*
X136857316Y-98962633D01*
X136789583Y-98962633D01*
X136687983Y-98928766D01*
X136654116Y-98894900D01*
X136654116Y-98657833D01*
X136789583Y-98657833D01*
X136349316Y-98962633D02*
X136349316Y-98251433D01*
X135942916Y-98962633D01*
X135942916Y-98251433D01*
X135604250Y-98962633D02*
X135604250Y-98251433D01*
X135434916Y-98251433D01*
X135333316Y-98285300D01*
X135265583Y-98353033D01*
X135231716Y-98420766D01*
X135197850Y-98556233D01*
X135197850Y-98657833D01*
X135231716Y-98793300D01*
X135265583Y-98861033D01*
X135333316Y-98928766D01*
X135434916Y-98962633D01*
X135604250Y-98962633D01*
X136425516Y-86973833D02*
X136425516Y-86262633D01*
X136154583Y-86262633D01*
X136086850Y-86296500D01*
X136052983Y-86330366D01*
X136019116Y-86398100D01*
X136019116Y-86499700D01*
X136052983Y-86567433D01*
X136086850Y-86601300D01*
X136154583Y-86635166D01*
X136425516Y-86635166D01*
X135782050Y-86262633D02*
X135612716Y-86973833D01*
X135477250Y-86465833D01*
X135341783Y-86973833D01*
X135172450Y-86262633D01*
X134495116Y-86973833D02*
X134732183Y-86635166D01*
X134901516Y-86973833D02*
X134901516Y-86262633D01*
X134630583Y-86262633D01*
X134562850Y-86296500D01*
X134528983Y-86330366D01*
X134495116Y-86398100D01*
X134495116Y-86499700D01*
X134528983Y-86567433D01*
X134562850Y-86601300D01*
X134630583Y-86635166D01*
X134901516Y-86635166D01*
X136086850Y-88167633D02*
X136425516Y-88167633D01*
X136425516Y-87456433D01*
X135849783Y-87795100D02*
X135612716Y-87795100D01*
X135511116Y-88167633D02*
X135849783Y-88167633D01*
X135849783Y-87456433D01*
X135511116Y-87456433D01*
X135206316Y-88167633D02*
X135206316Y-87456433D01*
X135036983Y-87456433D01*
X134935383Y-87490300D01*
X134867650Y-87558033D01*
X134833783Y-87625766D01*
X134799916Y-87761233D01*
X134799916Y-87862833D01*
X134833783Y-87998300D01*
X134867650Y-88066033D01*
X134935383Y-88133766D01*
X135036983Y-88167633D01*
X135206316Y-88167633D01*
D12*
X144272000Y-114808000D02*
X144272000Y-114427000D01*
X140208000Y-114427000D02*
X144272000Y-114427000D01*
X140208000Y-114808000D02*
X140208000Y-114427000D01*
D10*
X142564152Y-115208352D02*
X142249676Y-114988219D01*
X142564152Y-114830980D02*
X141903752Y-114830980D01*
X141903752Y-115082561D01*
X141935200Y-115145457D01*
X141966647Y-115176904D01*
X142029542Y-115208352D01*
X142123885Y-115208352D01*
X142186780Y-115176904D01*
X142218228Y-115145457D01*
X142249676Y-115082561D01*
X142249676Y-114830980D01*
X142532704Y-115459933D02*
X142564152Y-115554276D01*
X142564152Y-115711514D01*
X142532704Y-115774409D01*
X142501257Y-115805857D01*
X142438361Y-115837304D01*
X142375466Y-115837304D01*
X142312571Y-115805857D01*
X142281123Y-115774409D01*
X142249676Y-115711514D01*
X142218228Y-115585723D01*
X142186780Y-115522828D01*
X142155333Y-115491380D01*
X142092438Y-115459933D01*
X142029542Y-115459933D01*
X141966647Y-115491380D01*
X141935200Y-115522828D01*
X141903752Y-115585723D01*
X141903752Y-115742961D01*
X141935200Y-115837304D01*
X141903752Y-116025990D02*
X141903752Y-116403361D01*
X142564152Y-116214676D02*
X141903752Y-116214676D01*
X139992704Y-113662580D02*
X140024152Y-113756923D01*
X140024152Y-113914161D01*
X139992704Y-113977057D01*
X139961257Y-114008504D01*
X139898361Y-114039952D01*
X139835466Y-114039952D01*
X139772571Y-114008504D01*
X139741123Y-113977057D01*
X139709676Y-113914161D01*
X139678228Y-113788371D01*
X139646780Y-113725476D01*
X139615333Y-113694028D01*
X139552438Y-113662580D01*
X139489542Y-113662580D01*
X139426647Y-113694028D01*
X139395200Y-113725476D01*
X139363752Y-113788371D01*
X139363752Y-113945609D01*
X139395200Y-114039952D01*
X139363752Y-114260085D02*
X140024152Y-114417323D01*
X139552438Y-114543114D01*
X140024152Y-114668904D01*
X139363752Y-114826142D01*
X140024152Y-115077723D02*
X139363752Y-115077723D01*
X139363752Y-115234961D01*
X139395200Y-115329304D01*
X139458095Y-115392200D01*
X139520990Y-115423647D01*
X139646780Y-115455095D01*
X139741123Y-115455095D01*
X139866914Y-115423647D01*
X139929809Y-115392200D01*
X139992704Y-115329304D01*
X140024152Y-115234961D01*
X140024152Y-115077723D01*
X140024152Y-115738123D02*
X139363752Y-115738123D01*
X139363752Y-116178390D02*
X139363752Y-116304180D01*
X139395200Y-116367076D01*
X139458095Y-116429971D01*
X139583885Y-116461419D01*
X139804019Y-116461419D01*
X139929809Y-116429971D01*
X139992704Y-116367076D01*
X140024152Y-116304180D01*
X140024152Y-116178390D01*
X139992704Y-116115495D01*
X139929809Y-116052600D01*
X139804019Y-116021152D01*
X139583885Y-116021152D01*
X139458095Y-116052600D01*
X139395200Y-116115495D01*
X139363752Y-116178390D01*
X136855200Y-115066838D02*
X136823752Y-115003942D01*
X136823752Y-114909600D01*
X136855200Y-114815257D01*
X136918095Y-114752361D01*
X136980990Y-114720914D01*
X137106780Y-114689466D01*
X137201123Y-114689466D01*
X137326914Y-114720914D01*
X137389809Y-114752361D01*
X137452704Y-114815257D01*
X137484152Y-114909600D01*
X137484152Y-114972495D01*
X137452704Y-115066838D01*
X137421257Y-115098285D01*
X137201123Y-115098285D01*
X137201123Y-114972495D01*
X137484152Y-115381314D02*
X136823752Y-115381314D01*
X137484152Y-115758685D01*
X136823752Y-115758685D01*
X137484152Y-116073161D02*
X136823752Y-116073161D01*
X136823752Y-116230400D01*
X136855200Y-116324742D01*
X136918095Y-116387638D01*
X136980990Y-116419085D01*
X137106780Y-116450533D01*
X137201123Y-116450533D01*
X137326914Y-116419085D01*
X137389809Y-116387638D01*
X137452704Y-116324742D01*
X137484152Y-116230400D01*
X137484152Y-116073161D01*
X134912704Y-113441238D02*
X134944152Y-113535580D01*
X134944152Y-113692819D01*
X134912704Y-113755714D01*
X134881257Y-113787161D01*
X134818361Y-113818609D01*
X134755466Y-113818609D01*
X134692571Y-113787161D01*
X134661123Y-113755714D01*
X134629676Y-113692819D01*
X134598228Y-113567028D01*
X134566780Y-113504133D01*
X134535333Y-113472685D01*
X134472438Y-113441238D01*
X134409542Y-113441238D01*
X134346647Y-113472685D01*
X134315200Y-113504133D01*
X134283752Y-113567028D01*
X134283752Y-113724266D01*
X134315200Y-113818609D01*
X134283752Y-114038742D02*
X134944152Y-114195980D01*
X134472438Y-114321771D01*
X134944152Y-114447561D01*
X134283752Y-114604800D01*
X134881257Y-115233752D02*
X134912704Y-115202304D01*
X134944152Y-115107961D01*
X134944152Y-115045066D01*
X134912704Y-114950723D01*
X134849809Y-114887828D01*
X134786914Y-114856380D01*
X134661123Y-114824933D01*
X134566780Y-114824933D01*
X134440990Y-114856380D01*
X134378095Y-114887828D01*
X134315200Y-114950723D01*
X134283752Y-115045066D01*
X134283752Y-115107961D01*
X134315200Y-115202304D01*
X134346647Y-115233752D01*
X134944152Y-115831257D02*
X134944152Y-115516780D01*
X134283752Y-115516780D01*
X134944152Y-116051390D02*
X134283752Y-116051390D01*
X134944152Y-116428761D02*
X134566780Y-116145733D01*
X134283752Y-116428761D02*
X134661123Y-116051390D01*
X131743752Y-114752361D02*
X131743752Y-115161180D01*
X131995333Y-114941047D01*
X131995333Y-115035390D01*
X132026780Y-115098285D01*
X132058228Y-115129733D01*
X132121123Y-115161180D01*
X132278361Y-115161180D01*
X132341257Y-115129733D01*
X132372704Y-115098285D01*
X132404152Y-115035390D01*
X132404152Y-114846704D01*
X132372704Y-114783809D01*
X132341257Y-114752361D01*
X131743752Y-115349866D02*
X132404152Y-115570000D01*
X131743752Y-115790133D01*
X131743752Y-115947371D02*
X131743752Y-116356190D01*
X131995333Y-116136057D01*
X131995333Y-116230400D01*
X132026780Y-116293295D01*
X132058228Y-116324742D01*
X132121123Y-116356190D01*
X132278361Y-116356190D01*
X132341257Y-116324742D01*
X132372704Y-116293295D01*
X132404152Y-116230400D01*
X132404152Y-116041714D01*
X132372704Y-115978819D01*
X132341257Y-115947371D01*
X129518228Y-115051114D02*
X129549676Y-115145457D01*
X129581123Y-115176904D01*
X129644019Y-115208352D01*
X129738361Y-115208352D01*
X129801257Y-115176904D01*
X129832704Y-115145457D01*
X129864152Y-115082561D01*
X129864152Y-114830980D01*
X129203752Y-114830980D01*
X129203752Y-115051114D01*
X129235200Y-115114009D01*
X129266647Y-115145457D01*
X129329542Y-115176904D01*
X129392438Y-115176904D01*
X129455333Y-115145457D01*
X129486780Y-115114009D01*
X129518228Y-115051114D01*
X129518228Y-114830980D01*
X129203752Y-115397038D02*
X129203752Y-115774409D01*
X129864152Y-115585723D02*
X129203752Y-115585723D01*
X129203752Y-116120333D02*
X129203752Y-116183228D01*
X129235200Y-116246123D01*
X129266647Y-116277571D01*
X129329542Y-116309019D01*
X129455333Y-116340466D01*
X129612571Y-116340466D01*
X129738361Y-116309019D01*
X129801257Y-116277571D01*
X129832704Y-116246123D01*
X129864152Y-116183228D01*
X129864152Y-116120333D01*
X129832704Y-116057438D01*
X129801257Y-116025990D01*
X129738361Y-115994542D01*
X129612571Y-115963095D01*
X129455333Y-115963095D01*
X129329542Y-115994542D01*
X129266647Y-116025990D01*
X129235200Y-116057438D01*
X129203752Y-116120333D01*
X141963926Y-112570380D02*
X141915545Y-112522000D01*
X141818783Y-112473619D01*
X141576878Y-112473619D01*
X141480116Y-112522000D01*
X141431735Y-112570380D01*
X141383354Y-112667142D01*
X141383354Y-112763904D01*
X141431735Y-112909047D01*
X142012307Y-113489619D01*
X141383354Y-113489619D01*
X140754402Y-112473619D02*
X140657640Y-112473619D01*
X140560878Y-112522000D01*
X140512497Y-112570380D01*
X140464116Y-112667142D01*
X140415735Y-112860666D01*
X140415735Y-113102571D01*
X140464116Y-113296095D01*
X140512497Y-113392857D01*
X140560878Y-113441238D01*
X140657640Y-113489619D01*
X140754402Y-113489619D01*
X140851164Y-113441238D01*
X140899545Y-113392857D01*
X140947926Y-113296095D01*
X140996307Y-113102571D01*
X140996307Y-112860666D01*
X140947926Y-112667142D01*
X140899545Y-112570380D01*
X140851164Y-112522000D01*
X140754402Y-112473619D01*
X141963926Y-110659333D02*
X141480116Y-110659333D01*
X142060688Y-110949619D02*
X141722021Y-109933619D01*
X141383354Y-110949619D01*
X140851164Y-109933619D02*
X140754402Y-109933619D01*
X140657640Y-109982000D01*
X140609259Y-110030380D01*
X140560878Y-110127142D01*
X140512497Y-110320666D01*
X140512497Y-110562571D01*
X140560878Y-110756095D01*
X140609259Y-110852857D01*
X140657640Y-110901238D01*
X140754402Y-110949619D01*
X140851164Y-110949619D01*
X140947926Y-110901238D01*
X140996307Y-110852857D01*
X141044688Y-110756095D01*
X141093069Y-110562571D01*
X141093069Y-110320666D01*
X141044688Y-110127142D01*
X140996307Y-110030380D01*
X140947926Y-109982000D01*
X140851164Y-109933619D01*
X141963926Y-108119333D02*
X141480116Y-108119333D01*
X142060688Y-108409619D02*
X141722021Y-107393619D01*
X141383354Y-108409619D01*
X140512497Y-108409619D02*
X141093069Y-108409619D01*
X140802783Y-108409619D02*
X140802783Y-107393619D01*
X140899545Y-107538761D01*
X140996307Y-107635523D01*
X141093069Y-107683904D01*
X141963926Y-105579333D02*
X141480116Y-105579333D01*
X142060688Y-105869619D02*
X141722021Y-104853619D01*
X141383354Y-105869619D01*
X141093069Y-104950380D02*
X141044688Y-104902000D01*
X140947926Y-104853619D01*
X140706021Y-104853619D01*
X140609259Y-104902000D01*
X140560878Y-104950380D01*
X140512497Y-105047142D01*
X140512497Y-105143904D01*
X140560878Y-105289047D01*
X141141450Y-105869619D01*
X140512497Y-105869619D01*
X141963926Y-103039333D02*
X141480116Y-103039333D01*
X142060688Y-103329619D02*
X141722021Y-102313619D01*
X141383354Y-103329619D01*
X141141450Y-102313619D02*
X140512497Y-102313619D01*
X140851164Y-102700666D01*
X140706021Y-102700666D01*
X140609259Y-102749047D01*
X140560878Y-102797428D01*
X140512497Y-102894190D01*
X140512497Y-103136095D01*
X140560878Y-103232857D01*
X140609259Y-103281238D01*
X140706021Y-103329619D01*
X140996307Y-103329619D01*
X141093069Y-103281238D01*
X141141450Y-103232857D01*
X141963926Y-100245333D02*
X141480116Y-100245333D01*
X142060688Y-100535619D02*
X141722021Y-99519619D01*
X141383354Y-100535619D01*
X140609259Y-99858285D02*
X140609259Y-100535619D01*
X140851164Y-99471238D02*
X141093069Y-100196952D01*
X140464116Y-100196952D01*
X141963926Y-97959333D02*
X141480116Y-97959333D01*
X142060688Y-98249619D02*
X141722021Y-97233619D01*
X141383354Y-98249619D01*
X140560878Y-97233619D02*
X141044688Y-97233619D01*
X141093069Y-97717428D01*
X141044688Y-97669047D01*
X140947926Y-97620666D01*
X140706021Y-97620666D01*
X140609259Y-97669047D01*
X140560878Y-97717428D01*
X140512497Y-97814190D01*
X140512497Y-98056095D01*
X140560878Y-98152857D01*
X140609259Y-98201238D01*
X140706021Y-98249619D01*
X140947926Y-98249619D01*
X141044688Y-98201238D01*
X141093069Y-98152857D01*
X141963926Y-95419333D02*
X141480116Y-95419333D01*
X142060688Y-95709619D02*
X141722021Y-94693619D01*
X141383354Y-95709619D01*
X140609259Y-94693619D02*
X140802783Y-94693619D01*
X140899545Y-94742000D01*
X140947926Y-94790380D01*
X141044688Y-94935523D01*
X141093069Y-95129047D01*
X141093069Y-95516095D01*
X141044688Y-95612857D01*
X140996307Y-95661238D01*
X140899545Y-95709619D01*
X140706021Y-95709619D01*
X140609259Y-95661238D01*
X140560878Y-95612857D01*
X140512497Y-95516095D01*
X140512497Y-95274190D01*
X140560878Y-95177428D01*
X140609259Y-95129047D01*
X140706021Y-95080666D01*
X140899545Y-95080666D01*
X140996307Y-95129047D01*
X141044688Y-95177428D01*
X141093069Y-95274190D01*
X141963926Y-92879333D02*
X141480116Y-92879333D01*
X142060688Y-93169619D02*
X141722021Y-92153619D01*
X141383354Y-93169619D01*
X141141450Y-92153619D02*
X140464116Y-92153619D01*
X140899545Y-93169619D01*
X141963926Y-90339333D02*
X141480116Y-90339333D01*
X142060688Y-90629619D02*
X141722021Y-89613619D01*
X141383354Y-90629619D01*
X140899545Y-90049047D02*
X140996307Y-90000666D01*
X141044688Y-89952285D01*
X141093069Y-89855523D01*
X141093069Y-89807142D01*
X141044688Y-89710380D01*
X140996307Y-89662000D01*
X140899545Y-89613619D01*
X140706021Y-89613619D01*
X140609259Y-89662000D01*
X140560878Y-89710380D01*
X140512497Y-89807142D01*
X140512497Y-89855523D01*
X140560878Y-89952285D01*
X140609259Y-90000666D01*
X140706021Y-90049047D01*
X140899545Y-90049047D01*
X140996307Y-90097428D01*
X141044688Y-90145809D01*
X141093069Y-90242571D01*
X141093069Y-90436095D01*
X141044688Y-90532857D01*
X140996307Y-90581238D01*
X140899545Y-90629619D01*
X140706021Y-90629619D01*
X140609259Y-90581238D01*
X140560878Y-90532857D01*
X140512497Y-90436095D01*
X140512497Y-90242571D01*
X140560878Y-90145809D01*
X140609259Y-90097428D01*
X140706021Y-90049047D01*
X141963926Y-87799333D02*
X141480116Y-87799333D01*
X142060688Y-88089619D02*
X141722021Y-87073619D01*
X141383354Y-88089619D01*
X140996307Y-88089619D02*
X140802783Y-88089619D01*
X140706021Y-88041238D01*
X140657640Y-87992857D01*
X140560878Y-87847714D01*
X140512497Y-87654190D01*
X140512497Y-87267142D01*
X140560878Y-87170380D01*
X140609259Y-87122000D01*
X140706021Y-87073619D01*
X140899545Y-87073619D01*
X140996307Y-87122000D01*
X141044688Y-87170380D01*
X141093069Y-87267142D01*
X141093069Y-87509047D01*
X141044688Y-87605809D01*
X140996307Y-87654190D01*
X140899545Y-87702571D01*
X140706021Y-87702571D01*
X140609259Y-87654190D01*
X140560878Y-87605809D01*
X140512497Y-87509047D01*
X142148983Y-85335533D02*
X141810316Y-85335533D01*
X142216716Y-85538733D02*
X141979650Y-84827533D01*
X141742583Y-85538733D01*
X141099116Y-85538733D02*
X141336183Y-85200066D01*
X141505516Y-85538733D02*
X141505516Y-84827533D01*
X141234583Y-84827533D01*
X141166850Y-84861400D01*
X141132983Y-84895266D01*
X141099116Y-84963000D01*
X141099116Y-85064600D01*
X141132983Y-85132333D01*
X141166850Y-85166200D01*
X141234583Y-85200066D01*
X141505516Y-85200066D01*
X140794316Y-85166200D02*
X140557250Y-85166200D01*
X140455650Y-85538733D02*
X140794316Y-85538733D01*
X140794316Y-84827533D01*
X140455650Y-84827533D01*
X139913783Y-85166200D02*
X140150850Y-85166200D01*
X140150850Y-85538733D02*
X140150850Y-84827533D01*
X139812183Y-84827533D01*
X142055850Y-82160533D02*
X141615583Y-82160533D01*
X141852650Y-82431466D01*
X141751050Y-82431466D01*
X141683316Y-82465333D01*
X141649450Y-82499200D01*
X141615583Y-82566933D01*
X141615583Y-82736266D01*
X141649450Y-82804000D01*
X141683316Y-82837866D01*
X141751050Y-82871733D01*
X141954250Y-82871733D01*
X142021983Y-82837866D01*
X142055850Y-82804000D01*
X141412383Y-82160533D02*
X141175316Y-82871733D01*
X140938250Y-82160533D01*
X140768916Y-82160533D02*
X140328650Y-82160533D01*
X140565716Y-82431466D01*
X140464116Y-82431466D01*
X140396383Y-82465333D01*
X140362516Y-82499200D01*
X140328650Y-82566933D01*
X140328650Y-82736266D01*
X140362516Y-82804000D01*
X140396383Y-82837866D01*
X140464116Y-82871733D01*
X140667316Y-82871733D01*
X140735050Y-82837866D01*
X140768916Y-82804000D01*
X141983278Y-79908400D02*
X141547850Y-79908400D01*
X142070364Y-80169657D02*
X141765564Y-79255257D01*
X141460764Y-80169657D01*
X140676992Y-79298800D02*
X140764078Y-79255257D01*
X140894707Y-79255257D01*
X141025335Y-79298800D01*
X141112421Y-79385885D01*
X141155964Y-79472971D01*
X141199507Y-79647142D01*
X141199507Y-79777771D01*
X141155964Y-79951942D01*
X141112421Y-80039028D01*
X141025335Y-80126114D01*
X140894707Y-80169657D01*
X140807621Y-80169657D01*
X140676992Y-80126114D01*
X140633450Y-80082571D01*
X140633450Y-79777771D01*
X140807621Y-79777771D01*
X140241564Y-80169657D02*
X140241564Y-79255257D01*
X139719050Y-80169657D01*
X139719050Y-79255257D01*
X139283621Y-80169657D02*
X139283621Y-79255257D01*
X139065907Y-79255257D01*
X138935278Y-79298800D01*
X138848192Y-79385885D01*
X138804650Y-79472971D01*
X138761107Y-79647142D01*
X138761107Y-79777771D01*
X138804650Y-79951942D01*
X138848192Y-80039028D01*
X138935278Y-80126114D01*
X139065907Y-80169657D01*
X139283621Y-80169657D01*
X142070364Y-76842257D02*
X141765564Y-77756657D01*
X141460764Y-76842257D01*
X141155964Y-77756657D02*
X141155964Y-76842257D01*
X140720535Y-77756657D02*
X140720535Y-76842257D01*
X140198021Y-77756657D01*
X140198021Y-76842257D01*
X130783692Y-113489619D02*
X131364264Y-113489619D01*
X131073978Y-113489619D02*
X131073978Y-112473619D01*
X131170740Y-112618761D01*
X131267502Y-112715523D01*
X131364264Y-112763904D01*
X129912835Y-112473619D02*
X130106359Y-112473619D01*
X130203121Y-112522000D01*
X130251502Y-112570380D01*
X130348264Y-112715523D01*
X130396645Y-112909047D01*
X130396645Y-113296095D01*
X130348264Y-113392857D01*
X130299883Y-113441238D01*
X130203121Y-113489619D01*
X130009597Y-113489619D01*
X129912835Y-113441238D01*
X129864454Y-113392857D01*
X129816073Y-113296095D01*
X129816073Y-113054190D01*
X129864454Y-112957428D01*
X129912835Y-112909047D01*
X130009597Y-112860666D01*
X130203121Y-112860666D01*
X130299883Y-112909047D01*
X130348264Y-112957428D01*
X130396645Y-113054190D01*
X130783692Y-110949619D02*
X131364264Y-110949619D01*
X131073978Y-110949619D02*
X131073978Y-109933619D01*
X131170740Y-110078761D01*
X131267502Y-110175523D01*
X131364264Y-110223904D01*
X129864454Y-109933619D02*
X130348264Y-109933619D01*
X130396645Y-110417428D01*
X130348264Y-110369047D01*
X130251502Y-110320666D01*
X130009597Y-110320666D01*
X129912835Y-110369047D01*
X129864454Y-110417428D01*
X129816073Y-110514190D01*
X129816073Y-110756095D01*
X129864454Y-110852857D01*
X129912835Y-110901238D01*
X130009597Y-110949619D01*
X130251502Y-110949619D01*
X130348264Y-110901238D01*
X130396645Y-110852857D01*
X130783692Y-108409619D02*
X131364264Y-108409619D01*
X131073978Y-108409619D02*
X131073978Y-107393619D01*
X131170740Y-107538761D01*
X131267502Y-107635523D01*
X131364264Y-107683904D01*
X129912835Y-107732285D02*
X129912835Y-108409619D01*
X130154740Y-107345238D02*
X130396645Y-108070952D01*
X129767692Y-108070952D01*
X130783692Y-105869619D02*
X131364264Y-105869619D01*
X131073978Y-105869619D02*
X131073978Y-104853619D01*
X131170740Y-104998761D01*
X131267502Y-105095523D01*
X131364264Y-105143904D01*
X130445026Y-104853619D02*
X129816073Y-104853619D01*
X130154740Y-105240666D01*
X130009597Y-105240666D01*
X129912835Y-105289047D01*
X129864454Y-105337428D01*
X129816073Y-105434190D01*
X129816073Y-105676095D01*
X129864454Y-105772857D01*
X129912835Y-105821238D01*
X130009597Y-105869619D01*
X130299883Y-105869619D01*
X130396645Y-105821238D01*
X130445026Y-105772857D01*
X130783692Y-103329619D02*
X131364264Y-103329619D01*
X131073978Y-103329619D02*
X131073978Y-102313619D01*
X131170740Y-102458761D01*
X131267502Y-102555523D01*
X131364264Y-102603904D01*
X129816073Y-103329619D02*
X130396645Y-103329619D01*
X130106359Y-103329619D02*
X130106359Y-102313619D01*
X130203121Y-102458761D01*
X130299883Y-102555523D01*
X130396645Y-102603904D01*
X130783692Y-100789619D02*
X131364264Y-100789619D01*
X131073978Y-100789619D02*
X131073978Y-99773619D01*
X131170740Y-99918761D01*
X131267502Y-100015523D01*
X131364264Y-100063904D01*
X130154740Y-99773619D02*
X130057978Y-99773619D01*
X129961216Y-99822000D01*
X129912835Y-99870380D01*
X129864454Y-99967142D01*
X129816073Y-100160666D01*
X129816073Y-100402571D01*
X129864454Y-100596095D01*
X129912835Y-100692857D01*
X129961216Y-100741238D01*
X130057978Y-100789619D01*
X130154740Y-100789619D01*
X130251502Y-100741238D01*
X130299883Y-100692857D01*
X130348264Y-100596095D01*
X130396645Y-100402571D01*
X130396645Y-100160666D01*
X130348264Y-99967142D01*
X130299883Y-99870380D01*
X130251502Y-99822000D01*
X130154740Y-99773619D01*
X130445026Y-97233619D02*
X129767692Y-97233619D01*
X130203121Y-98249619D01*
X129912835Y-94693619D02*
X130106359Y-94693619D01*
X130203121Y-94742000D01*
X130251502Y-94790380D01*
X130348264Y-94935523D01*
X130396645Y-95129047D01*
X130396645Y-95516095D01*
X130348264Y-95612857D01*
X130299883Y-95661238D01*
X130203121Y-95709619D01*
X130009597Y-95709619D01*
X129912835Y-95661238D01*
X129864454Y-95612857D01*
X129816073Y-95516095D01*
X129816073Y-95274190D01*
X129864454Y-95177428D01*
X129912835Y-95129047D01*
X130009597Y-95080666D01*
X130203121Y-95080666D01*
X130299883Y-95129047D01*
X130348264Y-95177428D01*
X130396645Y-95274190D01*
X129864454Y-92153619D02*
X130348264Y-92153619D01*
X130396645Y-92637428D01*
X130348264Y-92589047D01*
X130251502Y-92540666D01*
X130009597Y-92540666D01*
X129912835Y-92589047D01*
X129864454Y-92637428D01*
X129816073Y-92734190D01*
X129816073Y-92976095D01*
X129864454Y-93072857D01*
X129912835Y-93121238D01*
X130009597Y-93169619D01*
X130251502Y-93169619D01*
X130348264Y-93121238D01*
X130396645Y-93072857D01*
X129912835Y-89952285D02*
X129912835Y-90629619D01*
X130154740Y-89565238D02*
X130396645Y-90290952D01*
X129767692Y-90290952D01*
X130445026Y-87073619D02*
X129816073Y-87073619D01*
X130154740Y-87460666D01*
X130009597Y-87460666D01*
X129912835Y-87509047D01*
X129864454Y-87557428D01*
X129816073Y-87654190D01*
X129816073Y-87896095D01*
X129864454Y-87992857D01*
X129912835Y-88041238D01*
X130009597Y-88089619D01*
X130299883Y-88089619D01*
X130396645Y-88041238D01*
X130445026Y-87992857D01*
X130396645Y-84630380D02*
X130348264Y-84582000D01*
X130251502Y-84533619D01*
X130009597Y-84533619D01*
X129912835Y-84582000D01*
X129864454Y-84630380D01*
X129816073Y-84727142D01*
X129816073Y-84823904D01*
X129864454Y-84969047D01*
X130445026Y-85549619D01*
X129816073Y-85549619D01*
X129816073Y-83009619D02*
X130396645Y-83009619D01*
X130106359Y-83009619D02*
X130106359Y-81993619D01*
X130203121Y-82138761D01*
X130299883Y-82235523D01*
X130396645Y-82283904D01*
X130154740Y-79453619D02*
X130057978Y-79453619D01*
X129961216Y-79502000D01*
X129912835Y-79550380D01*
X129864454Y-79647142D01*
X129816073Y-79840666D01*
X129816073Y-80082571D01*
X129864454Y-80276095D01*
X129912835Y-80372857D01*
X129961216Y-80421238D01*
X130057978Y-80469619D01*
X130154740Y-80469619D01*
X130251502Y-80421238D01*
X130299883Y-80372857D01*
X130348264Y-80276095D01*
X130396645Y-80082571D01*
X130396645Y-79840666D01*
X130348264Y-79647142D01*
X130299883Y-79550380D01*
X130251502Y-79502000D01*
X130154740Y-79453619D01*
X131331607Y-76758800D02*
X131418692Y-76715257D01*
X131549321Y-76715257D01*
X131679950Y-76758800D01*
X131767035Y-76845885D01*
X131810578Y-76932971D01*
X131854121Y-77107142D01*
X131854121Y-77237771D01*
X131810578Y-77411942D01*
X131767035Y-77499028D01*
X131679950Y-77586114D01*
X131549321Y-77629657D01*
X131462235Y-77629657D01*
X131331607Y-77586114D01*
X131288064Y-77542571D01*
X131288064Y-77237771D01*
X131462235Y-77237771D01*
X130896178Y-77629657D02*
X130896178Y-76715257D01*
X130373664Y-77629657D01*
X130373664Y-76715257D01*
X129938235Y-77629657D02*
X129938235Y-76715257D01*
X129720521Y-76715257D01*
X129589892Y-76758800D01*
X129502807Y-76845885D01*
X129459264Y-76932971D01*
X129415721Y-77107142D01*
X129415721Y-77237771D01*
X129459264Y-77411942D01*
X129502807Y-77499028D01*
X129589892Y-77586114D01*
X129720521Y-77629657D01*
X129938235Y-77629657D01*
D13*
G36*
X132720950Y-82579298D02*
G01*
X132673515Y-82579405D01*
X132629268Y-82579675D01*
X132589556Y-82580087D01*
X132555725Y-82580620D01*
X132529122Y-82581252D01*
X132511094Y-82581963D01*
X132503051Y-82582715D01*
X132491902Y-82589137D01*
X132487622Y-82595414D01*
X132485951Y-82602901D01*
X132482478Y-82620161D01*
X132477451Y-82645920D01*
X132471113Y-82678900D01*
X132463710Y-82717824D01*
X132455487Y-82761417D01*
X132446690Y-82808400D01*
X132445740Y-82813496D01*
X132436824Y-82860821D01*
X132428336Y-82904928D01*
X132420536Y-82944533D01*
X132413685Y-82978350D01*
X132408044Y-83005095D01*
X132403873Y-83023483D01*
X132401434Y-83032228D01*
X132401295Y-83032523D01*
X132394571Y-83037591D01*
X132378937Y-83045914D01*
X132356018Y-83056828D01*
X132327435Y-83069667D01*
X132294814Y-83083767D01*
X132259777Y-83098461D01*
X132223949Y-83113087D01*
X132188951Y-83126977D01*
X132156408Y-83139468D01*
X132127944Y-83149893D01*
X132105182Y-83157589D01*
X132089745Y-83161891D01*
X132083997Y-83162498D01*
X132076601Y-83158847D01*
X132061067Y-83149503D01*
X132038489Y-83135180D01*
X132009961Y-83116593D01*
X131976578Y-83094456D01*
X131939436Y-83069483D01*
X131899629Y-83042389D01*
X131893542Y-83038217D01*
X131853559Y-83010977D01*
X131816179Y-82985858D01*
X131782477Y-82963557D01*
X131753529Y-82944772D01*
X131730410Y-82930198D01*
X131714196Y-82920533D01*
X131705961Y-82916473D01*
X131705453Y-82916390D01*
X131698951Y-82920279D01*
X131685757Y-82931240D01*
X131666932Y-82948207D01*
X131643541Y-82970118D01*
X131616645Y-82995909D01*
X131587308Y-83024518D01*
X131556593Y-83054880D01*
X131525563Y-83085932D01*
X131495281Y-83116611D01*
X131466810Y-83145854D01*
X131441212Y-83172596D01*
X131419551Y-83195776D01*
X131402889Y-83214329D01*
X131392290Y-83227192D01*
X131388805Y-83233160D01*
X131391895Y-83240009D01*
X131400699Y-83255007D01*
X131414518Y-83277073D01*
X131432651Y-83305128D01*
X131454401Y-83338091D01*
X131479066Y-83374882D01*
X131505949Y-83414420D01*
X131509624Y-83419784D01*
X131543477Y-83469525D01*
X131572188Y-83512489D01*
X131595480Y-83548243D01*
X131613077Y-83576353D01*
X131624704Y-83596384D01*
X131630084Y-83607905D01*
X131630442Y-83609764D01*
X131628282Y-83618308D01*
X131622176Y-83635725D01*
X131612683Y-83660594D01*
X131600363Y-83691491D01*
X131585775Y-83726994D01*
X131569478Y-83765680D01*
X131564967Y-83776233D01*
X131544314Y-83823943D01*
X131527395Y-83861968D01*
X131513832Y-83891081D01*
X131503245Y-83912056D01*
X131495256Y-83925667D01*
X131489484Y-83932686D01*
X131487699Y-83933827D01*
X131479598Y-83935950D01*
X131461761Y-83939814D01*
X131435514Y-83945161D01*
X131402180Y-83951727D01*
X131363083Y-83959253D01*
X131319547Y-83967478D01*
X131274461Y-83975852D01*
X131228128Y-83984426D01*
X131185154Y-83992453D01*
X131146824Y-83999688D01*
X131114423Y-84005884D01*
X131089239Y-84010796D01*
X131072558Y-84014177D01*
X131065689Y-84015772D01*
X131058484Y-84022984D01*
X131055077Y-84030838D01*
X131054322Y-84039128D01*
X131053624Y-84057313D01*
X131053004Y-84084051D01*
X131052482Y-84117996D01*
X131052079Y-84157807D01*
X131051816Y-84202140D01*
X131051714Y-84248986D01*
X131051730Y-84302896D01*
X131051857Y-84346690D01*
X131052145Y-84381488D01*
X131052645Y-84408412D01*
X131053407Y-84428585D01*
X131054481Y-84443128D01*
X131055919Y-84453163D01*
X131057770Y-84459811D01*
X131060084Y-84464195D01*
X131061471Y-84465933D01*
X131065990Y-84469261D01*
X131074375Y-84472832D01*
X131087627Y-84476873D01*
X131106751Y-84481613D01*
X131132748Y-84487282D01*
X131166623Y-84494107D01*
X131209377Y-84502317D01*
X131262016Y-84512141D01*
X131273365Y-84514236D01*
X131330532Y-84524901D01*
X131377388Y-84533937D01*
X131414715Y-84541518D01*
X131443297Y-84547818D01*
X131463915Y-84553013D01*
X131477352Y-84557276D01*
X131484391Y-84560781D01*
X131485099Y-84561405D01*
X131489798Y-84569299D01*
X131497801Y-84586100D01*
X131508464Y-84610193D01*
X131521140Y-84639963D01*
X131535182Y-84673795D01*
X131549945Y-84710074D01*
X131564783Y-84747185D01*
X131579048Y-84783514D01*
X131592096Y-84817445D01*
X131603280Y-84847365D01*
X131611953Y-84871657D01*
X131617470Y-84888707D01*
X131619203Y-84896564D01*
X131616005Y-84904766D01*
X131606717Y-84921375D01*
X131591801Y-84945666D01*
X131571719Y-84976912D01*
X131546933Y-85014388D01*
X131517902Y-85057369D01*
X131504004Y-85077691D01*
X131477519Y-85116586D01*
X131453179Y-85152916D01*
X131431704Y-85185564D01*
X131413811Y-85213412D01*
X131400219Y-85235342D01*
X131391647Y-85250239D01*
X131388805Y-85256879D01*
X131392684Y-85263415D01*
X131403615Y-85276659D01*
X131420536Y-85295547D01*
X131442388Y-85319012D01*
X131468110Y-85345988D01*
X131496641Y-85375411D01*
X131526921Y-85406212D01*
X131557890Y-85437328D01*
X131588486Y-85467691D01*
X131617650Y-85496236D01*
X131644321Y-85521897D01*
X131667438Y-85543609D01*
X131685942Y-85560305D01*
X131698770Y-85570919D01*
X131704718Y-85574398D01*
X131711434Y-85571307D01*
X131726257Y-85562517D01*
X131748073Y-85548751D01*
X131775766Y-85530734D01*
X131808221Y-85509192D01*
X131844323Y-85484848D01*
X131878884Y-85461230D01*
X131917324Y-85434904D01*
X131953095Y-85410605D01*
X131985082Y-85389077D01*
X132012171Y-85371060D01*
X132033246Y-85357298D01*
X132047192Y-85348531D01*
X132052711Y-85345531D01*
X132060598Y-85347190D01*
X132076471Y-85353400D01*
X132098451Y-85363327D01*
X132124658Y-85376138D01*
X132143455Y-85385818D01*
X132174404Y-85401883D01*
X132197006Y-85413047D01*
X132212727Y-85419889D01*
X132223034Y-85422987D01*
X132229394Y-85422918D01*
X132232636Y-85420959D01*
X132236392Y-85414219D01*
X132243867Y-85398192D01*
X132254639Y-85373904D01*
X132268286Y-85342380D01*
X132284387Y-85304645D01*
X132302519Y-85261724D01*
X132322261Y-85214642D01*
X132343191Y-85164425D01*
X132364888Y-85112098D01*
X132386928Y-85058685D01*
X132408890Y-85005212D01*
X132430353Y-84952704D01*
X132450895Y-84902186D01*
X132470093Y-84854684D01*
X132487526Y-84811222D01*
X132502771Y-84772826D01*
X132515408Y-84740520D01*
X132525014Y-84715330D01*
X132531167Y-84698282D01*
X132533446Y-84690399D01*
X132533422Y-84690055D01*
X132527605Y-84683509D01*
X132514765Y-84672931D01*
X132497371Y-84660311D01*
X132492085Y-84656725D01*
X132439086Y-84618721D01*
X132395332Y-84581245D01*
X132359088Y-84542438D01*
X132328616Y-84500440D01*
X132302180Y-84453392D01*
X132302141Y-84453314D01*
X132285522Y-84418107D01*
X132273442Y-84387198D01*
X132265225Y-84357480D01*
X132260198Y-84325846D01*
X132257685Y-84289188D01*
X132257013Y-84245394D01*
X132257244Y-84210448D01*
X132258130Y-84183966D01*
X132259959Y-84163182D01*
X132263020Y-84145327D01*
X132267603Y-84127633D01*
X132270185Y-84119154D01*
X132297417Y-84050127D01*
X132333468Y-83987381D01*
X132377642Y-83931588D01*
X132429243Y-83883421D01*
X132487575Y-83843551D01*
X132551943Y-83812652D01*
X132605420Y-83795331D01*
X132643197Y-83788410D01*
X132687697Y-83784876D01*
X132734945Y-83784689D01*
X132780966Y-83787809D01*
X132821788Y-83794195D01*
X132835818Y-83797669D01*
X132904469Y-83822632D01*
X132967483Y-83856816D01*
X133024022Y-83899529D01*
X133073247Y-83950081D01*
X133114319Y-84007784D01*
X133133097Y-84042251D01*
X133151506Y-84082779D01*
X133164368Y-84119401D01*
X133172777Y-84156383D01*
X133177829Y-84197990D01*
X133179495Y-84222916D01*
X133178408Y-84294908D01*
X133167040Y-84362885D01*
X133145169Y-84427526D01*
X133112569Y-84489511D01*
X133073493Y-84544056D01*
X133048903Y-84571830D01*
X133020884Y-84598074D01*
X132987153Y-84624738D01*
X132945427Y-84653773D01*
X132943993Y-84654725D01*
X132920989Y-84671102D01*
X132906184Y-84684184D01*
X132900479Y-84693164D01*
X132900442Y-84693714D01*
X132902550Y-84700680D01*
X132908588Y-84716968D01*
X132918128Y-84741541D01*
X132930741Y-84773362D01*
X132946000Y-84811394D01*
X132963475Y-84854599D01*
X132982740Y-84901941D01*
X133003365Y-84952382D01*
X133024922Y-85004884D01*
X133046983Y-85058412D01*
X133069120Y-85111927D01*
X133090904Y-85164392D01*
X133111907Y-85214770D01*
X133131701Y-85262024D01*
X133149858Y-85305117D01*
X133165949Y-85343012D01*
X133179546Y-85374671D01*
X133190221Y-85399057D01*
X133197545Y-85415133D01*
X133201091Y-85421862D01*
X133201118Y-85421892D01*
X133205309Y-85424036D01*
X133212497Y-85423376D01*
X133224124Y-85419342D01*
X133241631Y-85411361D01*
X133266462Y-85398861D01*
X133289628Y-85386770D01*
X133317377Y-85372375D01*
X133341897Y-85360045D01*
X133361365Y-85350667D01*
X133373958Y-85345125D01*
X133377626Y-85344000D01*
X133383657Y-85347081D01*
X133397845Y-85355847D01*
X133419109Y-85369585D01*
X133446367Y-85387580D01*
X133478538Y-85409119D01*
X133514539Y-85433487D01*
X133552165Y-85459199D01*
X133591011Y-85485675D01*
X133627243Y-85510007D01*
X133659755Y-85531477D01*
X133687435Y-85549368D01*
X133709174Y-85562963D01*
X133723864Y-85571544D01*
X133730305Y-85574398D01*
X133736719Y-85570487D01*
X133750221Y-85559219D01*
X133770062Y-85541297D01*
X133795494Y-85517422D01*
X133825770Y-85488295D01*
X133860141Y-85454616D01*
X133893722Y-85421230D01*
X133930316Y-85384357D01*
X133963222Y-85350684D01*
X133991709Y-85320992D01*
X134015043Y-85296064D01*
X134032491Y-85276683D01*
X134043322Y-85263629D01*
X134046814Y-85257814D01*
X134043723Y-85250958D01*
X134034930Y-85235985D01*
X134021151Y-85214003D01*
X134003104Y-85186121D01*
X133981504Y-85153446D01*
X133957070Y-85117087D01*
X133931490Y-85079569D01*
X133904926Y-85040779D01*
X133880356Y-85004726D01*
X133858516Y-84972502D01*
X133840142Y-84945199D01*
X133825968Y-84923909D01*
X133816730Y-84909725D01*
X133813183Y-84903796D01*
X133814351Y-84896403D01*
X133819355Y-84880218D01*
X133827579Y-84856770D01*
X133838404Y-84827586D01*
X133851215Y-84794194D01*
X133865396Y-84758122D01*
X133880329Y-84720898D01*
X133895398Y-84684050D01*
X133909987Y-84649106D01*
X133923479Y-84617594D01*
X133935257Y-84591042D01*
X133944705Y-84570977D01*
X133951206Y-84558928D01*
X133953464Y-84556166D01*
X133961061Y-84553927D01*
X133978387Y-84549951D01*
X134004115Y-84544509D01*
X134036914Y-84537870D01*
X134075457Y-84530304D01*
X134118415Y-84522080D01*
X134158030Y-84514658D01*
X134203894Y-84506065D01*
X134246636Y-84497893D01*
X134284900Y-84490415D01*
X134317329Y-84483902D01*
X134342568Y-84478625D01*
X134359260Y-84474857D01*
X134365719Y-84473041D01*
X134378362Y-84467604D01*
X134378362Y-84246203D01*
X134378281Y-84187279D01*
X134378019Y-84138754D01*
X134377550Y-84099787D01*
X134376849Y-84069538D01*
X134375889Y-84047169D01*
X134374645Y-84031838D01*
X134373091Y-84022707D01*
X134371338Y-84019038D01*
X134364384Y-84016744D01*
X134347632Y-84012717D01*
X134322348Y-84007218D01*
X134289794Y-84000506D01*
X134251235Y-83992842D01*
X134207935Y-83984486D01*
X134161157Y-83975697D01*
X134156799Y-83974890D01*
X134099930Y-83964190D01*
X134050581Y-83954531D01*
X134009413Y-83946056D01*
X133977086Y-83938907D01*
X133954259Y-83933228D01*
X133941592Y-83929160D01*
X133939482Y-83927985D01*
X133934855Y-83920793D01*
X133926538Y-83904597D01*
X133915166Y-83880768D01*
X133901376Y-83850678D01*
X133885804Y-83815695D01*
X133869085Y-83777190D01*
X133864092Y-83765511D01*
X133844813Y-83719989D01*
X133829721Y-83683647D01*
X133818424Y-83655401D01*
X133810530Y-83634166D01*
X133805647Y-83618859D01*
X133803382Y-83608395D01*
X133803345Y-83601689D01*
X133804040Y-83599405D01*
X133808407Y-83592120D01*
X133818414Y-83576698D01*
X133833317Y-83554248D01*
X133852370Y-83525882D01*
X133874827Y-83492710D01*
X133899941Y-83455842D01*
X133926967Y-83416388D01*
X133928196Y-83414600D01*
X133955072Y-83375228D01*
X133979815Y-83338494D01*
X134001719Y-83305485D01*
X134020076Y-83277287D01*
X134034180Y-83254987D01*
X134043324Y-83239670D01*
X134046801Y-83232424D01*
X134046814Y-83232260D01*
X134042914Y-83225752D01*
X134031924Y-83212571D01*
X134014911Y-83193777D01*
X133992941Y-83170431D01*
X133967081Y-83143593D01*
X133938395Y-83114324D01*
X133907951Y-83083682D01*
X133876814Y-83052729D01*
X133846051Y-83022526D01*
X133816728Y-82994131D01*
X133789912Y-82968605D01*
X133766667Y-82947010D01*
X133748061Y-82930404D01*
X133735159Y-82919848D01*
X133729177Y-82916390D01*
X133722158Y-82919488D01*
X133706992Y-82928320D01*
X133684753Y-82942191D01*
X133656513Y-82960409D01*
X133623345Y-82982278D01*
X133586323Y-83007105D01*
X133546519Y-83034196D01*
X133538153Y-83039939D01*
X133497887Y-83067416D01*
X133460158Y-83092773D01*
X133426043Y-83115315D01*
X133396620Y-83134347D01*
X133372964Y-83149174D01*
X133356155Y-83159101D01*
X133347268Y-83163433D01*
X133346530Y-83163567D01*
X133338177Y-83161492D01*
X133321151Y-83155670D01*
X133297113Y-83146775D01*
X133267722Y-83135480D01*
X133234641Y-83122459D01*
X133199528Y-83108386D01*
X133164045Y-83093935D01*
X133129851Y-83079779D01*
X133098607Y-83066593D01*
X133071974Y-83055050D01*
X133051611Y-83045823D01*
X133039180Y-83039587D01*
X133036348Y-83037699D01*
X133033690Y-83030694D01*
X133029302Y-83013824D01*
X133023440Y-82988285D01*
X133016358Y-82955276D01*
X133008312Y-82915994D01*
X132999557Y-82871635D01*
X132990349Y-82823397D01*
X132988335Y-82812633D01*
X132977688Y-82755950D01*
X132968752Y-82709382D01*
X132961308Y-82671975D01*
X132955139Y-82642771D01*
X132950028Y-82620814D01*
X132945758Y-82605149D01*
X132942111Y-82594819D01*
X132938870Y-82588867D01*
X132937052Y-82587016D01*
X132932262Y-82584912D01*
X132923547Y-82583206D01*
X132909888Y-82581862D01*
X132890267Y-82580844D01*
X132863665Y-82580114D01*
X132829064Y-82579637D01*
X132785446Y-82579377D01*
X132731793Y-82579296D01*
X132720950Y-82579298D01*
X132720950Y-82579298D01*
G37*
X132720950Y-82579298D02*
X132673515Y-82579405D01*
X132629268Y-82579675D01*
X132589556Y-82580087D01*
X132555725Y-82580620D01*
X132529122Y-82581252D01*
X132511094Y-82581963D01*
X132503051Y-82582715D01*
X132491902Y-82589137D01*
X132487622Y-82595414D01*
X132485951Y-82602901D01*
X132482478Y-82620161D01*
X132477451Y-82645920D01*
X132471113Y-82678900D01*
X132463710Y-82717824D01*
X132455487Y-82761417D01*
X132446690Y-82808400D01*
X132445740Y-82813496D01*
X132436824Y-82860821D01*
X132428336Y-82904928D01*
X132420536Y-82944533D01*
X132413685Y-82978350D01*
X132408044Y-83005095D01*
X132403873Y-83023483D01*
X132401434Y-83032228D01*
X132401295Y-83032523D01*
X132394571Y-83037591D01*
X132378937Y-83045914D01*
X132356018Y-83056828D01*
X132327435Y-83069667D01*
X132294814Y-83083767D01*
X132259777Y-83098461D01*
X132223949Y-83113087D01*
X132188951Y-83126977D01*
X132156408Y-83139468D01*
X132127944Y-83149893D01*
X132105182Y-83157589D01*
X132089745Y-83161891D01*
X132083997Y-83162498D01*
X132076601Y-83158847D01*
X132061067Y-83149503D01*
X132038489Y-83135180D01*
X132009961Y-83116593D01*
X131976578Y-83094456D01*
X131939436Y-83069483D01*
X131899629Y-83042389D01*
X131893542Y-83038217D01*
X131853559Y-83010977D01*
X131816179Y-82985858D01*
X131782477Y-82963557D01*
X131753529Y-82944772D01*
X131730410Y-82930198D01*
X131714196Y-82920533D01*
X131705961Y-82916473D01*
X131705453Y-82916390D01*
X131698951Y-82920279D01*
X131685757Y-82931240D01*
X131666932Y-82948207D01*
X131643541Y-82970118D01*
X131616645Y-82995909D01*
X131587308Y-83024518D01*
X131556593Y-83054880D01*
X131525563Y-83085932D01*
X131495281Y-83116611D01*
X131466810Y-83145854D01*
X131441212Y-83172596D01*
X131419551Y-83195776D01*
X131402889Y-83214329D01*
X131392290Y-83227192D01*
X131388805Y-83233160D01*
X131391895Y-83240009D01*
X131400699Y-83255007D01*
X131414518Y-83277073D01*
X131432651Y-83305128D01*
X131454401Y-83338091D01*
X131479066Y-83374882D01*
X131505949Y-83414420D01*
X131509624Y-83419784D01*
X131543477Y-83469525D01*
X131572188Y-83512489D01*
X131595480Y-83548243D01*
X131613077Y-83576353D01*
X131624704Y-83596384D01*
X131630084Y-83607905D01*
X131630442Y-83609764D01*
X131628282Y-83618308D01*
X131622176Y-83635725D01*
X131612683Y-83660594D01*
X131600363Y-83691491D01*
X131585775Y-83726994D01*
X131569478Y-83765680D01*
X131564967Y-83776233D01*
X131544314Y-83823943D01*
X131527395Y-83861968D01*
X131513832Y-83891081D01*
X131503245Y-83912056D01*
X131495256Y-83925667D01*
X131489484Y-83932686D01*
X131487699Y-83933827D01*
X131479598Y-83935950D01*
X131461761Y-83939814D01*
X131435514Y-83945161D01*
X131402180Y-83951727D01*
X131363083Y-83959253D01*
X131319547Y-83967478D01*
X131274461Y-83975852D01*
X131228128Y-83984426D01*
X131185154Y-83992453D01*
X131146824Y-83999688D01*
X131114423Y-84005884D01*
X131089239Y-84010796D01*
X131072558Y-84014177D01*
X131065689Y-84015772D01*
X131058484Y-84022984D01*
X131055077Y-84030838D01*
X131054322Y-84039128D01*
X131053624Y-84057313D01*
X131053004Y-84084051D01*
X131052482Y-84117996D01*
X131052079Y-84157807D01*
X131051816Y-84202140D01*
X131051714Y-84248986D01*
X131051730Y-84302896D01*
X131051857Y-84346690D01*
X131052145Y-84381488D01*
X131052645Y-84408412D01*
X131053407Y-84428585D01*
X131054481Y-84443128D01*
X131055919Y-84453163D01*
X131057770Y-84459811D01*
X131060084Y-84464195D01*
X131061471Y-84465933D01*
X131065990Y-84469261D01*
X131074375Y-84472832D01*
X131087627Y-84476873D01*
X131106751Y-84481613D01*
X131132748Y-84487282D01*
X131166623Y-84494107D01*
X131209377Y-84502317D01*
X131262016Y-84512141D01*
X131273365Y-84514236D01*
X131330532Y-84524901D01*
X131377388Y-84533937D01*
X131414715Y-84541518D01*
X131443297Y-84547818D01*
X131463915Y-84553013D01*
X131477352Y-84557276D01*
X131484391Y-84560781D01*
X131485099Y-84561405D01*
X131489798Y-84569299D01*
X131497801Y-84586100D01*
X131508464Y-84610193D01*
X131521140Y-84639963D01*
X131535182Y-84673795D01*
X131549945Y-84710074D01*
X131564783Y-84747185D01*
X131579048Y-84783514D01*
X131592096Y-84817445D01*
X131603280Y-84847365D01*
X131611953Y-84871657D01*
X131617470Y-84888707D01*
X131619203Y-84896564D01*
X131616005Y-84904766D01*
X131606717Y-84921375D01*
X131591801Y-84945666D01*
X131571719Y-84976912D01*
X131546933Y-85014388D01*
X131517902Y-85057369D01*
X131504004Y-85077691D01*
X131477519Y-85116586D01*
X131453179Y-85152916D01*
X131431704Y-85185564D01*
X131413811Y-85213412D01*
X131400219Y-85235342D01*
X131391647Y-85250239D01*
X131388805Y-85256879D01*
X131392684Y-85263415D01*
X131403615Y-85276659D01*
X131420536Y-85295547D01*
X131442388Y-85319012D01*
X131468110Y-85345988D01*
X131496641Y-85375411D01*
X131526921Y-85406212D01*
X131557890Y-85437328D01*
X131588486Y-85467691D01*
X131617650Y-85496236D01*
X131644321Y-85521897D01*
X131667438Y-85543609D01*
X131685942Y-85560305D01*
X131698770Y-85570919D01*
X131704718Y-85574398D01*
X131711434Y-85571307D01*
X131726257Y-85562517D01*
X131748073Y-85548751D01*
X131775766Y-85530734D01*
X131808221Y-85509192D01*
X131844323Y-85484848D01*
X131878884Y-85461230D01*
X131917324Y-85434904D01*
X131953095Y-85410605D01*
X131985082Y-85389077D01*
X132012171Y-85371060D01*
X132033246Y-85357298D01*
X132047192Y-85348531D01*
X132052711Y-85345531D01*
X132060598Y-85347190D01*
X132076471Y-85353400D01*
X132098451Y-85363327D01*
X132124658Y-85376138D01*
X132143455Y-85385818D01*
X132174404Y-85401883D01*
X132197006Y-85413047D01*
X132212727Y-85419889D01*
X132223034Y-85422987D01*
X132229394Y-85422918D01*
X132232636Y-85420959D01*
X132236392Y-85414219D01*
X132243867Y-85398192D01*
X132254639Y-85373904D01*
X132268286Y-85342380D01*
X132284387Y-85304645D01*
X132302519Y-85261724D01*
X132322261Y-85214642D01*
X132343191Y-85164425D01*
X132364888Y-85112098D01*
X132386928Y-85058685D01*
X132408890Y-85005212D01*
X132430353Y-84952704D01*
X132450895Y-84902186D01*
X132470093Y-84854684D01*
X132487526Y-84811222D01*
X132502771Y-84772826D01*
X132515408Y-84740520D01*
X132525014Y-84715330D01*
X132531167Y-84698282D01*
X132533446Y-84690399D01*
X132533422Y-84690055D01*
X132527605Y-84683509D01*
X132514765Y-84672931D01*
X132497371Y-84660311D01*
X132492085Y-84656725D01*
X132439086Y-84618721D01*
X132395332Y-84581245D01*
X132359088Y-84542438D01*
X132328616Y-84500440D01*
X132302180Y-84453392D01*
X132302141Y-84453314D01*
X132285522Y-84418107D01*
X132273442Y-84387198D01*
X132265225Y-84357480D01*
X132260198Y-84325846D01*
X132257685Y-84289188D01*
X132257013Y-84245394D01*
X132257244Y-84210448D01*
X132258130Y-84183966D01*
X132259959Y-84163182D01*
X132263020Y-84145327D01*
X132267603Y-84127633D01*
X132270185Y-84119154D01*
X132297417Y-84050127D01*
X132333468Y-83987381D01*
X132377642Y-83931588D01*
X132429243Y-83883421D01*
X132487575Y-83843551D01*
X132551943Y-83812652D01*
X132605420Y-83795331D01*
X132643197Y-83788410D01*
X132687697Y-83784876D01*
X132734945Y-83784689D01*
X132780966Y-83787809D01*
X132821788Y-83794195D01*
X132835818Y-83797669D01*
X132904469Y-83822632D01*
X132967483Y-83856816D01*
X133024022Y-83899529D01*
X133073247Y-83950081D01*
X133114319Y-84007784D01*
X133133097Y-84042251D01*
X133151506Y-84082779D01*
X133164368Y-84119401D01*
X133172777Y-84156383D01*
X133177829Y-84197990D01*
X133179495Y-84222916D01*
X133178408Y-84294908D01*
X133167040Y-84362885D01*
X133145169Y-84427526D01*
X133112569Y-84489511D01*
X133073493Y-84544056D01*
X133048903Y-84571830D01*
X133020884Y-84598074D01*
X132987153Y-84624738D01*
X132945427Y-84653773D01*
X132943993Y-84654725D01*
X132920989Y-84671102D01*
X132906184Y-84684184D01*
X132900479Y-84693164D01*
X132900442Y-84693714D01*
X132902550Y-84700680D01*
X132908588Y-84716968D01*
X132918128Y-84741541D01*
X132930741Y-84773362D01*
X132946000Y-84811394D01*
X132963475Y-84854599D01*
X132982740Y-84901941D01*
X133003365Y-84952382D01*
X133024922Y-85004884D01*
X133046983Y-85058412D01*
X133069120Y-85111927D01*
X133090904Y-85164392D01*
X133111907Y-85214770D01*
X133131701Y-85262024D01*
X133149858Y-85305117D01*
X133165949Y-85343012D01*
X133179546Y-85374671D01*
X133190221Y-85399057D01*
X133197545Y-85415133D01*
X133201091Y-85421862D01*
X133201118Y-85421892D01*
X133205309Y-85424036D01*
X133212497Y-85423376D01*
X133224124Y-85419342D01*
X133241631Y-85411361D01*
X133266462Y-85398861D01*
X133289628Y-85386770D01*
X133317377Y-85372375D01*
X133341897Y-85360045D01*
X133361365Y-85350667D01*
X133373958Y-85345125D01*
X133377626Y-85344000D01*
X133383657Y-85347081D01*
X133397845Y-85355847D01*
X133419109Y-85369585D01*
X133446367Y-85387580D01*
X133478538Y-85409119D01*
X133514539Y-85433487D01*
X133552165Y-85459199D01*
X133591011Y-85485675D01*
X133627243Y-85510007D01*
X133659755Y-85531477D01*
X133687435Y-85549368D01*
X133709174Y-85562963D01*
X133723864Y-85571544D01*
X133730305Y-85574398D01*
X133736719Y-85570487D01*
X133750221Y-85559219D01*
X133770062Y-85541297D01*
X133795494Y-85517422D01*
X133825770Y-85488295D01*
X133860141Y-85454616D01*
X133893722Y-85421230D01*
X133930316Y-85384357D01*
X133963222Y-85350684D01*
X133991709Y-85320992D01*
X134015043Y-85296064D01*
X134032491Y-85276683D01*
X134043322Y-85263629D01*
X134046814Y-85257814D01*
X134043723Y-85250958D01*
X134034930Y-85235985D01*
X134021151Y-85214003D01*
X134003104Y-85186121D01*
X133981504Y-85153446D01*
X133957070Y-85117087D01*
X133931490Y-85079569D01*
X133904926Y-85040779D01*
X133880356Y-85004726D01*
X133858516Y-84972502D01*
X133840142Y-84945199D01*
X133825968Y-84923909D01*
X133816730Y-84909725D01*
X133813183Y-84903796D01*
X133814351Y-84896403D01*
X133819355Y-84880218D01*
X133827579Y-84856770D01*
X133838404Y-84827586D01*
X133851215Y-84794194D01*
X133865396Y-84758122D01*
X133880329Y-84720898D01*
X133895398Y-84684050D01*
X133909987Y-84649106D01*
X133923479Y-84617594D01*
X133935257Y-84591042D01*
X133944705Y-84570977D01*
X133951206Y-84558928D01*
X133953464Y-84556166D01*
X133961061Y-84553927D01*
X133978387Y-84549951D01*
X134004115Y-84544509D01*
X134036914Y-84537870D01*
X134075457Y-84530304D01*
X134118415Y-84522080D01*
X134158030Y-84514658D01*
X134203894Y-84506065D01*
X134246636Y-84497893D01*
X134284900Y-84490415D01*
X134317329Y-84483902D01*
X134342568Y-84478625D01*
X134359260Y-84474857D01*
X134365719Y-84473041D01*
X134378362Y-84467604D01*
X134378362Y-84246203D01*
X134378281Y-84187279D01*
X134378019Y-84138754D01*
X134377550Y-84099787D01*
X134376849Y-84069538D01*
X134375889Y-84047169D01*
X134374645Y-84031838D01*
X134373091Y-84022707D01*
X134371338Y-84019038D01*
X134364384Y-84016744D01*
X134347632Y-84012717D01*
X134322348Y-84007218D01*
X134289794Y-84000506D01*
X134251235Y-83992842D01*
X134207935Y-83984486D01*
X134161157Y-83975697D01*
X134156799Y-83974890D01*
X134099930Y-83964190D01*
X134050581Y-83954531D01*
X134009413Y-83946056D01*
X133977086Y-83938907D01*
X133954259Y-83933228D01*
X133941592Y-83929160D01*
X133939482Y-83927985D01*
X133934855Y-83920793D01*
X133926538Y-83904597D01*
X133915166Y-83880768D01*
X133901376Y-83850678D01*
X133885804Y-83815695D01*
X133869085Y-83777190D01*
X133864092Y-83765511D01*
X133844813Y-83719989D01*
X133829721Y-83683647D01*
X133818424Y-83655401D01*
X133810530Y-83634166D01*
X133805647Y-83618859D01*
X133803382Y-83608395D01*
X133803345Y-83601689D01*
X133804040Y-83599405D01*
X133808407Y-83592120D01*
X133818414Y-83576698D01*
X133833317Y-83554248D01*
X133852370Y-83525882D01*
X133874827Y-83492710D01*
X133899941Y-83455842D01*
X133926967Y-83416388D01*
X133928196Y-83414600D01*
X133955072Y-83375228D01*
X133979815Y-83338494D01*
X134001719Y-83305485D01*
X134020076Y-83277287D01*
X134034180Y-83254987D01*
X134043324Y-83239670D01*
X134046801Y-83232424D01*
X134046814Y-83232260D01*
X134042914Y-83225752D01*
X134031924Y-83212571D01*
X134014911Y-83193777D01*
X133992941Y-83170431D01*
X133967081Y-83143593D01*
X133938395Y-83114324D01*
X133907951Y-83083682D01*
X133876814Y-83052729D01*
X133846051Y-83022526D01*
X133816728Y-82994131D01*
X133789912Y-82968605D01*
X133766667Y-82947010D01*
X133748061Y-82930404D01*
X133735159Y-82919848D01*
X133729177Y-82916390D01*
X133722158Y-82919488D01*
X133706992Y-82928320D01*
X133684753Y-82942191D01*
X133656513Y-82960409D01*
X133623345Y-82982278D01*
X133586323Y-83007105D01*
X133546519Y-83034196D01*
X133538153Y-83039939D01*
X133497887Y-83067416D01*
X133460158Y-83092773D01*
X133426043Y-83115315D01*
X133396620Y-83134347D01*
X133372964Y-83149174D01*
X133356155Y-83159101D01*
X133347268Y-83163433D01*
X133346530Y-83163567D01*
X133338177Y-83161492D01*
X133321151Y-83155670D01*
X133297113Y-83146775D01*
X133267722Y-83135480D01*
X133234641Y-83122459D01*
X133199528Y-83108386D01*
X133164045Y-83093935D01*
X133129851Y-83079779D01*
X133098607Y-83066593D01*
X133071974Y-83055050D01*
X133051611Y-83045823D01*
X133039180Y-83039587D01*
X133036348Y-83037699D01*
X133033690Y-83030694D01*
X133029302Y-83013824D01*
X133023440Y-82988285D01*
X133016358Y-82955276D01*
X133008312Y-82915994D01*
X132999557Y-82871635D01*
X132990349Y-82823397D01*
X132988335Y-82812633D01*
X132977688Y-82755950D01*
X132968752Y-82709382D01*
X132961308Y-82671975D01*
X132955139Y-82642771D01*
X132950028Y-82620814D01*
X132945758Y-82605149D01*
X132942111Y-82594819D01*
X132938870Y-82588867D01*
X132937052Y-82587016D01*
X132932262Y-82584912D01*
X132923547Y-82583206D01*
X132909888Y-82581862D01*
X132890267Y-82580844D01*
X132863665Y-82580114D01*
X132829064Y-82579637D01*
X132785446Y-82579377D01*
X132731793Y-82579296D01*
X132720950Y-82579298D01*
G36*
X135771151Y-106156138D02*
G01*
X135680987Y-106163417D01*
X135612496Y-106173551D01*
X135440239Y-106219058D01*
X135279179Y-106285165D01*
X135129884Y-106371371D01*
X134992918Y-106477176D01*
X134868850Y-106602077D01*
X134758245Y-106745576D01*
X134661669Y-106907170D01*
X134579689Y-107086359D01*
X134579285Y-107087378D01*
X134547466Y-107169936D01*
X134525598Y-107233458D01*
X134513724Y-107280357D01*
X134511887Y-107313049D01*
X134520132Y-107333947D01*
X134538502Y-107345466D01*
X134567040Y-107350020D01*
X134584026Y-107350441D01*
X134633764Y-107350441D01*
X134672818Y-107477441D01*
X134694895Y-107545201D01*
X134713727Y-107592399D01*
X134730990Y-107621584D01*
X134748363Y-107635304D01*
X134767522Y-107636108D01*
X134775594Y-107633566D01*
X134789438Y-107623192D01*
X134799899Y-107602234D01*
X134807602Y-107567619D01*
X134813173Y-107516271D01*
X134817238Y-107445116D01*
X134818056Y-107424822D01*
X134820838Y-107351529D01*
X134879907Y-107337723D01*
X134999055Y-107304863D01*
X135119565Y-107262451D01*
X135235564Y-107213044D01*
X135341179Y-107159201D01*
X135430535Y-107103480D01*
X135449538Y-107089638D01*
X135486197Y-107063473D01*
X135512508Y-107049995D01*
X135535920Y-107046351D01*
X135556966Y-107048502D01*
X135691863Y-107064156D01*
X135837709Y-107070110D01*
X135988711Y-107066794D01*
X136139074Y-107054637D01*
X136283004Y-107034069D01*
X136414708Y-107005519D01*
X136504445Y-106978260D01*
X136531519Y-106969709D01*
X136551200Y-106969124D01*
X136571819Y-106978599D01*
X136601707Y-107000227D01*
X136606544Y-107003916D01*
X136683349Y-107074436D01*
X136753441Y-107163991D01*
X136817368Y-107273559D01*
X136875677Y-107404116D01*
X136928919Y-107556641D01*
X136943134Y-107603902D01*
X136958766Y-107653832D01*
X136973735Y-107695152D01*
X136986013Y-107722597D01*
X136991907Y-107730721D01*
X137019898Y-107739405D01*
X137043431Y-107725489D01*
X137051992Y-107713721D01*
X137069267Y-107677346D01*
X137088442Y-107622629D01*
X137108284Y-107554648D01*
X137127560Y-107478479D01*
X137145038Y-107399200D01*
X137159486Y-107321888D01*
X137169672Y-107251620D01*
X137173296Y-107213951D01*
X137176341Y-107159268D01*
X137175715Y-107120519D01*
X137170638Y-107090188D01*
X137160333Y-107060760D01*
X137156506Y-107051888D01*
X137132824Y-107009801D01*
X137100934Y-106966682D01*
X137085962Y-106950150D01*
X137044270Y-106913529D01*
X136988527Y-106872005D01*
X136926152Y-106830541D01*
X136864566Y-106794100D01*
X136816548Y-106769966D01*
X136785086Y-106755088D01*
X136770660Y-106742450D01*
X136768613Y-106724928D01*
X136772695Y-106702898D01*
X136782938Y-106609423D01*
X136771994Y-106524535D01*
X136739708Y-106448101D01*
X136685923Y-106379988D01*
X136610485Y-106320065D01*
X136513236Y-106268198D01*
X136394023Y-106224255D01*
X136252688Y-106188104D01*
X136144000Y-106167926D01*
X136064105Y-106158683D01*
X135970283Y-106153691D01*
X135870107Y-106152869D01*
X135771151Y-106156138D01*
X135771151Y-106156138D01*
G37*
X135771151Y-106156138D02*
X135680987Y-106163417D01*
X135612496Y-106173551D01*
X135440239Y-106219058D01*
X135279179Y-106285165D01*
X135129884Y-106371371D01*
X134992918Y-106477176D01*
X134868850Y-106602077D01*
X134758245Y-106745576D01*
X134661669Y-106907170D01*
X134579689Y-107086359D01*
X134579285Y-107087378D01*
X134547466Y-107169936D01*
X134525598Y-107233458D01*
X134513724Y-107280357D01*
X134511887Y-107313049D01*
X134520132Y-107333947D01*
X134538502Y-107345466D01*
X134567040Y-107350020D01*
X134584026Y-107350441D01*
X134633764Y-107350441D01*
X134672818Y-107477441D01*
X134694895Y-107545201D01*
X134713727Y-107592399D01*
X134730990Y-107621584D01*
X134748363Y-107635304D01*
X134767522Y-107636108D01*
X134775594Y-107633566D01*
X134789438Y-107623192D01*
X134799899Y-107602234D01*
X134807602Y-107567619D01*
X134813173Y-107516271D01*
X134817238Y-107445116D01*
X134818056Y-107424822D01*
X134820838Y-107351529D01*
X134879907Y-107337723D01*
X134999055Y-107304863D01*
X135119565Y-107262451D01*
X135235564Y-107213044D01*
X135341179Y-107159201D01*
X135430535Y-107103480D01*
X135449538Y-107089638D01*
X135486197Y-107063473D01*
X135512508Y-107049995D01*
X135535920Y-107046351D01*
X135556966Y-107048502D01*
X135691863Y-107064156D01*
X135837709Y-107070110D01*
X135988711Y-107066794D01*
X136139074Y-107054637D01*
X136283004Y-107034069D01*
X136414708Y-107005519D01*
X136504445Y-106978260D01*
X136531519Y-106969709D01*
X136551200Y-106969124D01*
X136571819Y-106978599D01*
X136601707Y-107000227D01*
X136606544Y-107003916D01*
X136683349Y-107074436D01*
X136753441Y-107163991D01*
X136817368Y-107273559D01*
X136875677Y-107404116D01*
X136928919Y-107556641D01*
X136943134Y-107603902D01*
X136958766Y-107653832D01*
X136973735Y-107695152D01*
X136986013Y-107722597D01*
X136991907Y-107730721D01*
X137019898Y-107739405D01*
X137043431Y-107725489D01*
X137051992Y-107713721D01*
X137069267Y-107677346D01*
X137088442Y-107622629D01*
X137108284Y-107554648D01*
X137127560Y-107478479D01*
X137145038Y-107399200D01*
X137159486Y-107321888D01*
X137169672Y-107251620D01*
X137173296Y-107213951D01*
X137176341Y-107159268D01*
X137175715Y-107120519D01*
X137170638Y-107090188D01*
X137160333Y-107060760D01*
X137156506Y-107051888D01*
X137132824Y-107009801D01*
X137100934Y-106966682D01*
X137085962Y-106950150D01*
X137044270Y-106913529D01*
X136988527Y-106872005D01*
X136926152Y-106830541D01*
X136864566Y-106794100D01*
X136816548Y-106769966D01*
X136785086Y-106755088D01*
X136770660Y-106742450D01*
X136768613Y-106724928D01*
X136772695Y-106702898D01*
X136782938Y-106609423D01*
X136771994Y-106524535D01*
X136739708Y-106448101D01*
X136685923Y-106379988D01*
X136610485Y-106320065D01*
X136513236Y-106268198D01*
X136394023Y-106224255D01*
X136252688Y-106188104D01*
X136144000Y-106167926D01*
X136064105Y-106158683D01*
X135970283Y-106153691D01*
X135870107Y-106152869D01*
X135771151Y-106156138D01*
G36*
X136383331Y-107532303D02*
G01*
X136285598Y-107555821D01*
X136195128Y-107600169D01*
X136114885Y-107664515D01*
X136090192Y-107691108D01*
X136039977Y-107749404D01*
X136000810Y-107733039D01*
X135958063Y-107722204D01*
X135902760Y-107717403D01*
X135845231Y-107718793D01*
X135795805Y-107726532D01*
X135785128Y-107729752D01*
X135765430Y-107735427D01*
X135749416Y-107734278D01*
X135731675Y-107723456D01*
X135706798Y-107700111D01*
X135683717Y-107676329D01*
X135601668Y-107607226D01*
X135539306Y-107571693D01*
X135499655Y-107553855D01*
X135466870Y-107542636D01*
X135433055Y-107536525D01*
X135390312Y-107534005D01*
X135340392Y-107533558D01*
X135284071Y-107534153D01*
X135243723Y-107536936D01*
X135211705Y-107543401D01*
X135180371Y-107555042D01*
X135145461Y-107571667D01*
X135058920Y-107625253D01*
X134986289Y-107691595D01*
X134930820Y-107767123D01*
X134896795Y-107844751D01*
X134885807Y-107875640D01*
X134872662Y-107889926D01*
X134849935Y-107894042D01*
X134839642Y-107894259D01*
X134790491Y-107904833D01*
X134754688Y-107933604D01*
X134735082Y-107977601D01*
X134732233Y-108006248D01*
X134742867Y-108042937D01*
X134770280Y-108075898D01*
X134807738Y-108099065D01*
X134843557Y-108106534D01*
X134875118Y-108110647D01*
X134885814Y-108122368D01*
X134893002Y-108151451D01*
X134912090Y-108192190D01*
X134939371Y-108238508D01*
X134971135Y-108284324D01*
X135003672Y-108323559D01*
X135016360Y-108336317D01*
X135098290Y-108398517D01*
X135186404Y-108439992D01*
X135277973Y-108461736D01*
X135370270Y-108464743D01*
X135460567Y-108450008D01*
X135546136Y-108418526D01*
X135624250Y-108371290D01*
X135692181Y-108309295D01*
X135747200Y-108233534D01*
X135786581Y-108145004D01*
X135807242Y-108048019D01*
X135814568Y-107998411D01*
X135594652Y-107998411D01*
X135585351Y-108074213D01*
X135556752Y-108137925D01*
X135534111Y-108167019D01*
X135497538Y-108202168D01*
X135458372Y-108226900D01*
X135409517Y-108244675D01*
X135346559Y-108258468D01*
X135332447Y-108256692D01*
X135303862Y-108250961D01*
X135289923Y-108247837D01*
X135220300Y-108221203D01*
X135164214Y-108178937D01*
X135122628Y-108124854D01*
X135096507Y-108062766D01*
X135086813Y-107996488D01*
X135094512Y-107929834D01*
X135120567Y-107866618D01*
X135165943Y-107810653D01*
X135176982Y-107801028D01*
X135240866Y-107761830D01*
X135308435Y-107743467D01*
X135376166Y-107744273D01*
X135440534Y-107762583D01*
X135498013Y-107796731D01*
X135545079Y-107845051D01*
X135578207Y-107905878D01*
X135593873Y-107977545D01*
X135594652Y-107998411D01*
X135814568Y-107998411D01*
X135815394Y-107992825D01*
X135826986Y-107957346D01*
X135844573Y-107937688D01*
X135870709Y-107929954D01*
X135885080Y-107929325D01*
X135927471Y-107939834D01*
X135958264Y-107968011D01*
X135972439Y-108008828D01*
X135972838Y-108017204D01*
X135983246Y-108096829D01*
X136011823Y-108179886D01*
X136055482Y-108259492D01*
X136111133Y-108328765D01*
X136113903Y-108331562D01*
X136195468Y-108397107D01*
X136287211Y-108441931D01*
X136386651Y-108465262D01*
X136491310Y-108466332D01*
X136530547Y-108460985D01*
X136624815Y-108432807D01*
X136711103Y-108384142D01*
X136786572Y-108317568D01*
X136848383Y-108235660D01*
X136893695Y-108140995D01*
X136898450Y-108127209D01*
X136915302Y-108110391D01*
X136935751Y-108106534D01*
X136983650Y-108096800D01*
X137022469Y-108070868D01*
X137047921Y-108033649D01*
X137053881Y-108000315D01*
X136699585Y-108000315D01*
X136690038Y-108069736D01*
X136662905Y-108131516D01*
X136621126Y-108183227D01*
X136567641Y-108222440D01*
X136505387Y-108246726D01*
X136437306Y-108253655D01*
X136366335Y-108240801D01*
X136327117Y-108224408D01*
X136279419Y-108192275D01*
X136237033Y-108145346D01*
X136214725Y-108112441D01*
X136200017Y-108073344D01*
X136192901Y-108021050D01*
X136193491Y-107964776D01*
X136201900Y-107913739D01*
X136211952Y-107887089D01*
X136255862Y-107827626D01*
X136315533Y-107780921D01*
X136384927Y-107750624D01*
X136454496Y-107740368D01*
X136517949Y-107751325D01*
X136578770Y-107781687D01*
X136631796Y-107827365D01*
X136671863Y-107884273D01*
X136688609Y-107925683D01*
X136699585Y-108000315D01*
X137053881Y-108000315D01*
X137055717Y-107990048D01*
X137053028Y-107972303D01*
X137032361Y-107934301D01*
X136996094Y-107906354D01*
X136951825Y-107894045D01*
X136946242Y-107893883D01*
X136922723Y-107892024D01*
X136907726Y-107882691D01*
X136895559Y-107860255D01*
X136885812Y-107834119D01*
X136844322Y-107750329D01*
X136784039Y-107674574D01*
X136709502Y-107611181D01*
X136625253Y-107564475D01*
X136588733Y-107551084D01*
X136485363Y-107530446D01*
X136383331Y-107532303D01*
X136383331Y-107532303D01*
G37*
X136383331Y-107532303D02*
X136285598Y-107555821D01*
X136195128Y-107600169D01*
X136114885Y-107664515D01*
X136090192Y-107691108D01*
X136039977Y-107749404D01*
X136000810Y-107733039D01*
X135958063Y-107722204D01*
X135902760Y-107717403D01*
X135845231Y-107718793D01*
X135795805Y-107726532D01*
X135785128Y-107729752D01*
X135765430Y-107735427D01*
X135749416Y-107734278D01*
X135731675Y-107723456D01*
X135706798Y-107700111D01*
X135683717Y-107676329D01*
X135601668Y-107607226D01*
X135539306Y-107571693D01*
X135499655Y-107553855D01*
X135466870Y-107542636D01*
X135433055Y-107536525D01*
X135390312Y-107534005D01*
X135340392Y-107533558D01*
X135284071Y-107534153D01*
X135243723Y-107536936D01*
X135211705Y-107543401D01*
X135180371Y-107555042D01*
X135145461Y-107571667D01*
X135058920Y-107625253D01*
X134986289Y-107691595D01*
X134930820Y-107767123D01*
X134896795Y-107844751D01*
X134885807Y-107875640D01*
X134872662Y-107889926D01*
X134849935Y-107894042D01*
X134839642Y-107894259D01*
X134790491Y-107904833D01*
X134754688Y-107933604D01*
X134735082Y-107977601D01*
X134732233Y-108006248D01*
X134742867Y-108042937D01*
X134770280Y-108075898D01*
X134807738Y-108099065D01*
X134843557Y-108106534D01*
X134875118Y-108110647D01*
X134885814Y-108122368D01*
X134893002Y-108151451D01*
X134912090Y-108192190D01*
X134939371Y-108238508D01*
X134971135Y-108284324D01*
X135003672Y-108323559D01*
X135016360Y-108336317D01*
X135098290Y-108398517D01*
X135186404Y-108439992D01*
X135277973Y-108461736D01*
X135370270Y-108464743D01*
X135460567Y-108450008D01*
X135546136Y-108418526D01*
X135624250Y-108371290D01*
X135692181Y-108309295D01*
X135747200Y-108233534D01*
X135786581Y-108145004D01*
X135807242Y-108048019D01*
X135814568Y-107998411D01*
X135594652Y-107998411D01*
X135585351Y-108074213D01*
X135556752Y-108137925D01*
X135534111Y-108167019D01*
X135497538Y-108202168D01*
X135458372Y-108226900D01*
X135409517Y-108244675D01*
X135346559Y-108258468D01*
X135332447Y-108256692D01*
X135303862Y-108250961D01*
X135289923Y-108247837D01*
X135220300Y-108221203D01*
X135164214Y-108178937D01*
X135122628Y-108124854D01*
X135096507Y-108062766D01*
X135086813Y-107996488D01*
X135094512Y-107929834D01*
X135120567Y-107866618D01*
X135165943Y-107810653D01*
X135176982Y-107801028D01*
X135240866Y-107761830D01*
X135308435Y-107743467D01*
X135376166Y-107744273D01*
X135440534Y-107762583D01*
X135498013Y-107796731D01*
X135545079Y-107845051D01*
X135578207Y-107905878D01*
X135593873Y-107977545D01*
X135594652Y-107998411D01*
X135814568Y-107998411D01*
X135815394Y-107992825D01*
X135826986Y-107957346D01*
X135844573Y-107937688D01*
X135870709Y-107929954D01*
X135885080Y-107929325D01*
X135927471Y-107939834D01*
X135958264Y-107968011D01*
X135972439Y-108008828D01*
X135972838Y-108017204D01*
X135983246Y-108096829D01*
X136011823Y-108179886D01*
X136055482Y-108259492D01*
X136111133Y-108328765D01*
X136113903Y-108331562D01*
X136195468Y-108397107D01*
X136287211Y-108441931D01*
X136386651Y-108465262D01*
X136491310Y-108466332D01*
X136530547Y-108460985D01*
X136624815Y-108432807D01*
X136711103Y-108384142D01*
X136786572Y-108317568D01*
X136848383Y-108235660D01*
X136893695Y-108140995D01*
X136898450Y-108127209D01*
X136915302Y-108110391D01*
X136935751Y-108106534D01*
X136983650Y-108096800D01*
X137022469Y-108070868D01*
X137047921Y-108033649D01*
X137053881Y-108000315D01*
X136699585Y-108000315D01*
X136690038Y-108069736D01*
X136662905Y-108131516D01*
X136621126Y-108183227D01*
X136567641Y-108222440D01*
X136505387Y-108246726D01*
X136437306Y-108253655D01*
X136366335Y-108240801D01*
X136327117Y-108224408D01*
X136279419Y-108192275D01*
X136237033Y-108145346D01*
X136214725Y-108112441D01*
X136200017Y-108073344D01*
X136192901Y-108021050D01*
X136193491Y-107964776D01*
X136201900Y-107913739D01*
X136211952Y-107887089D01*
X136255862Y-107827626D01*
X136315533Y-107780921D01*
X136384927Y-107750624D01*
X136454496Y-107740368D01*
X136517949Y-107751325D01*
X136578770Y-107781687D01*
X136631796Y-107827365D01*
X136671863Y-107884273D01*
X136688609Y-107925683D01*
X136699585Y-108000315D01*
X137053881Y-108000315D01*
X137055717Y-107990048D01*
X137053028Y-107972303D01*
X137032361Y-107934301D01*
X136996094Y-107906354D01*
X136951825Y-107894045D01*
X136946242Y-107893883D01*
X136922723Y-107892024D01*
X136907726Y-107882691D01*
X136895559Y-107860255D01*
X136885812Y-107834119D01*
X136844322Y-107750329D01*
X136784039Y-107674574D01*
X136709502Y-107611181D01*
X136625253Y-107564475D01*
X136588733Y-107551084D01*
X136485363Y-107530446D01*
X136383331Y-107532303D01*
G36*
X136837769Y-108489669D02*
G01*
X136811178Y-108507070D01*
X136790446Y-108539990D01*
X136773154Y-108591635D01*
X136764572Y-108627612D01*
X136727668Y-108752122D01*
X136673255Y-108873977D01*
X136604831Y-108986459D01*
X136529495Y-109079087D01*
X136456282Y-109145936D01*
X136366690Y-109211546D01*
X136267752Y-109271486D01*
X136166501Y-109321328D01*
X136108559Y-109344193D01*
X136025106Y-109370322D01*
X135952434Y-109384144D01*
X135883959Y-109385417D01*
X135813102Y-109373903D01*
X135733281Y-109349360D01*
X135678953Y-109328526D01*
X135540161Y-109261393D01*
X135415364Y-109178306D01*
X135306113Y-109081046D01*
X135213954Y-108971395D01*
X135140437Y-108851136D01*
X135087110Y-108722050D01*
X135060646Y-108617029D01*
X135046079Y-108561637D01*
X135026489Y-108521529D01*
X135020087Y-108513519D01*
X134984377Y-108490206D01*
X134942861Y-108485278D01*
X134901789Y-108496802D01*
X134867410Y-108522841D01*
X134845972Y-108561461D01*
X134844319Y-108567944D01*
X134842360Y-108615199D01*
X134852258Y-108677879D01*
X134872514Y-108751917D01*
X134901629Y-108833249D01*
X134938105Y-108917807D01*
X134980443Y-109001525D01*
X135027145Y-109080338D01*
X135040764Y-109100922D01*
X135114435Y-109194416D01*
X135203229Y-109282332D01*
X135303819Y-109362969D01*
X135412879Y-109434630D01*
X135527081Y-109495613D01*
X135643100Y-109544221D01*
X135757607Y-109578754D01*
X135867278Y-109597512D01*
X135968783Y-109598796D01*
X136006203Y-109594063D01*
X136120371Y-109566091D01*
X136239707Y-109522035D01*
X136359341Y-109464735D01*
X136474402Y-109397033D01*
X136580018Y-109321770D01*
X136671318Y-109241787D01*
X136737822Y-109167338D01*
X136809030Y-109064401D01*
X136871644Y-108953367D01*
X136922863Y-108840211D01*
X136959889Y-108730908D01*
X136976029Y-108658898D01*
X136982580Y-108612779D01*
X136983168Y-108581692D01*
X136977462Y-108557720D01*
X136971190Y-108544062D01*
X136941441Y-108505540D01*
X136900642Y-108487049D01*
X136872644Y-108484581D01*
X136837769Y-108489669D01*
X136837769Y-108489669D01*
G37*
X136837769Y-108489669D02*
X136811178Y-108507070D01*
X136790446Y-108539990D01*
X136773154Y-108591635D01*
X136764572Y-108627612D01*
X136727668Y-108752122D01*
X136673255Y-108873977D01*
X136604831Y-108986459D01*
X136529495Y-109079087D01*
X136456282Y-109145936D01*
X136366690Y-109211546D01*
X136267752Y-109271486D01*
X136166501Y-109321328D01*
X136108559Y-109344193D01*
X136025106Y-109370322D01*
X135952434Y-109384144D01*
X135883959Y-109385417D01*
X135813102Y-109373903D01*
X135733281Y-109349360D01*
X135678953Y-109328526D01*
X135540161Y-109261393D01*
X135415364Y-109178306D01*
X135306113Y-109081046D01*
X135213954Y-108971395D01*
X135140437Y-108851136D01*
X135087110Y-108722050D01*
X135060646Y-108617029D01*
X135046079Y-108561637D01*
X135026489Y-108521529D01*
X135020087Y-108513519D01*
X134984377Y-108490206D01*
X134942861Y-108485278D01*
X134901789Y-108496802D01*
X134867410Y-108522841D01*
X134845972Y-108561461D01*
X134844319Y-108567944D01*
X134842360Y-108615199D01*
X134852258Y-108677879D01*
X134872514Y-108751917D01*
X134901629Y-108833249D01*
X134938105Y-108917807D01*
X134980443Y-109001525D01*
X135027145Y-109080338D01*
X135040764Y-109100922D01*
X135114435Y-109194416D01*
X135203229Y-109282332D01*
X135303819Y-109362969D01*
X135412879Y-109434630D01*
X135527081Y-109495613D01*
X135643100Y-109544221D01*
X135757607Y-109578754D01*
X135867278Y-109597512D01*
X135968783Y-109598796D01*
X136006203Y-109594063D01*
X136120371Y-109566091D01*
X136239707Y-109522035D01*
X136359341Y-109464735D01*
X136474402Y-109397033D01*
X136580018Y-109321770D01*
X136671318Y-109241787D01*
X136737822Y-109167338D01*
X136809030Y-109064401D01*
X136871644Y-108953367D01*
X136922863Y-108840211D01*
X136959889Y-108730908D01*
X136976029Y-108658898D01*
X136982580Y-108612779D01*
X136983168Y-108581692D01*
X136977462Y-108557720D01*
X136971190Y-108544062D01*
X136941441Y-108505540D01*
X136900642Y-108487049D01*
X136872644Y-108484581D01*
X136837769Y-108489669D01*
G36*
X135226896Y-109672889D02*
G01*
X135209674Y-109679684D01*
X135165753Y-109714049D01*
X135134871Y-109766742D01*
X135117429Y-109836123D01*
X135113834Y-109920552D01*
X135124487Y-110018390D01*
X135125223Y-110022606D01*
X135134308Y-110077950D01*
X135138473Y-110119961D01*
X135137764Y-110158409D01*
X135132228Y-110203061D01*
X135126251Y-110238953D01*
X135114462Y-110337263D01*
X135116515Y-110420425D01*
X135132661Y-110492619D01*
X135143187Y-110519509D01*
X135169694Y-110563230D01*
X135204314Y-110588397D01*
X135250684Y-110596515D01*
X135311762Y-110589232D01*
X135427490Y-110553620D01*
X135542780Y-110494904D01*
X135656736Y-110413603D01*
X135735676Y-110343103D01*
X135780354Y-110300743D01*
X135812014Y-110273459D01*
X135833755Y-110259047D01*
X135848673Y-110255301D01*
X135856012Y-110257452D01*
X135886923Y-110266079D01*
X135925983Y-110267682D01*
X135960748Y-110262274D01*
X135972037Y-110257332D01*
X135984520Y-110257010D01*
X136005390Y-110268656D01*
X136036990Y-110293977D01*
X136081663Y-110334681D01*
X136093273Y-110345675D01*
X136143300Y-110390714D01*
X136197012Y-110434885D01*
X136247094Y-110472368D01*
X136278140Y-110492749D01*
X136358905Y-110535646D01*
X136437043Y-110567627D01*
X136508982Y-110587795D01*
X136571149Y-110595250D01*
X136619973Y-110589094D01*
X136635106Y-110582540D01*
X136663796Y-110560370D01*
X136683969Y-110529369D01*
X136696437Y-110486251D01*
X136702011Y-110427729D01*
X136701505Y-110350515D01*
X136700093Y-110319457D01*
X136696743Y-110254896D01*
X136694473Y-110204909D01*
X136693275Y-110163297D01*
X136693140Y-110123858D01*
X136694062Y-110080394D01*
X136696032Y-110026703D01*
X136699042Y-109956587D01*
X136699612Y-109943604D01*
X136701637Y-109864152D01*
X136698982Y-109804285D01*
X136690478Y-109760220D01*
X136674955Y-109728175D01*
X136651241Y-109704370D01*
X136619853Y-109685841D01*
X136596741Y-109675378D01*
X136577222Y-109670752D01*
X136554214Y-109672131D01*
X136520638Y-109679681D01*
X136486081Y-109688995D01*
X136369859Y-109730090D01*
X136261013Y-109788410D01*
X136155863Y-109866209D01*
X136075522Y-109940384D01*
X135994604Y-110021302D01*
X135954116Y-110006661D01*
X135918679Y-109998129D01*
X135885084Y-110002750D01*
X135871130Y-110007388D01*
X135828632Y-110022756D01*
X135755944Y-109948782D01*
X135646047Y-109848421D01*
X135535478Y-109770741D01*
X135422725Y-109714811D01*
X135326751Y-109684324D01*
X135280215Y-109674026D01*
X135249270Y-109670307D01*
X135226896Y-109672889D01*
X135226896Y-109672889D01*
G37*
X135226896Y-109672889D02*
X135209674Y-109679684D01*
X135165753Y-109714049D01*
X135134871Y-109766742D01*
X135117429Y-109836123D01*
X135113834Y-109920552D01*
X135124487Y-110018390D01*
X135125223Y-110022606D01*
X135134308Y-110077950D01*
X135138473Y-110119961D01*
X135137764Y-110158409D01*
X135132228Y-110203061D01*
X135126251Y-110238953D01*
X135114462Y-110337263D01*
X135116515Y-110420425D01*
X135132661Y-110492619D01*
X135143187Y-110519509D01*
X135169694Y-110563230D01*
X135204314Y-110588397D01*
X135250684Y-110596515D01*
X135311762Y-110589232D01*
X135427490Y-110553620D01*
X135542780Y-110494904D01*
X135656736Y-110413603D01*
X135735676Y-110343103D01*
X135780354Y-110300743D01*
X135812014Y-110273459D01*
X135833755Y-110259047D01*
X135848673Y-110255301D01*
X135856012Y-110257452D01*
X135886923Y-110266079D01*
X135925983Y-110267682D01*
X135960748Y-110262274D01*
X135972037Y-110257332D01*
X135984520Y-110257010D01*
X136005390Y-110268656D01*
X136036990Y-110293977D01*
X136081663Y-110334681D01*
X136093273Y-110345675D01*
X136143300Y-110390714D01*
X136197012Y-110434885D01*
X136247094Y-110472368D01*
X136278140Y-110492749D01*
X136358905Y-110535646D01*
X136437043Y-110567627D01*
X136508982Y-110587795D01*
X136571149Y-110595250D01*
X136619973Y-110589094D01*
X136635106Y-110582540D01*
X136663796Y-110560370D01*
X136683969Y-110529369D01*
X136696437Y-110486251D01*
X136702011Y-110427729D01*
X136701505Y-110350515D01*
X136700093Y-110319457D01*
X136696743Y-110254896D01*
X136694473Y-110204909D01*
X136693275Y-110163297D01*
X136693140Y-110123858D01*
X136694062Y-110080394D01*
X136696032Y-110026703D01*
X136699042Y-109956587D01*
X136699612Y-109943604D01*
X136701637Y-109864152D01*
X136698982Y-109804285D01*
X136690478Y-109760220D01*
X136674955Y-109728175D01*
X136651241Y-109704370D01*
X136619853Y-109685841D01*
X136596741Y-109675378D01*
X136577222Y-109670752D01*
X136554214Y-109672131D01*
X136520638Y-109679681D01*
X136486081Y-109688995D01*
X136369859Y-109730090D01*
X136261013Y-109788410D01*
X136155863Y-109866209D01*
X136075522Y-109940384D01*
X135994604Y-110021302D01*
X135954116Y-110006661D01*
X135918679Y-109998129D01*
X135885084Y-110002750D01*
X135871130Y-110007388D01*
X135828632Y-110022756D01*
X135755944Y-109948782D01*
X135646047Y-109848421D01*
X135535478Y-109770741D01*
X135422725Y-109714811D01*
X135326751Y-109684324D01*
X135280215Y-109674026D01*
X135249270Y-109670307D01*
X135226896Y-109672889D01*
G36*
X135636482Y-105323666D02*
G01*
X135407310Y-105348608D01*
X135185636Y-105391474D01*
X134966424Y-105453329D01*
X134744639Y-105535235D01*
X134653977Y-105573893D01*
X134419251Y-105690348D01*
X134196844Y-105826342D01*
X133987817Y-105980640D01*
X133793231Y-106152010D01*
X133614148Y-106339217D01*
X133451627Y-106541027D01*
X133306730Y-106756205D01*
X133180517Y-106983519D01*
X133074049Y-107221733D01*
X132988388Y-107469614D01*
X132970570Y-107532137D01*
X132915188Y-107774185D01*
X132880591Y-108020183D01*
X132866229Y-108274320D01*
X132865731Y-108331352D01*
X132877180Y-108598806D01*
X132911649Y-108861400D01*
X132968895Y-109118416D01*
X133048675Y-109369134D01*
X133150746Y-109612834D01*
X133274867Y-109848795D01*
X133420793Y-110076300D01*
X133483249Y-110162162D01*
X133531727Y-110222202D01*
X133594237Y-110293007D01*
X133666733Y-110370538D01*
X133745168Y-110450753D01*
X133825495Y-110529614D01*
X133903667Y-110603080D01*
X133975637Y-110667111D01*
X134037358Y-110717666D01*
X134047024Y-110724991D01*
X134264483Y-110875423D01*
X134484549Y-111003478D01*
X134710162Y-111110405D01*
X134944268Y-111197452D01*
X135189809Y-111265868D01*
X135437557Y-111314942D01*
X135474739Y-111319555D01*
X135527631Y-111324155D01*
X135592569Y-111328606D01*
X135665889Y-111332770D01*
X135743927Y-111336510D01*
X135823018Y-111339688D01*
X135899499Y-111342169D01*
X135969706Y-111343814D01*
X136029973Y-111344486D01*
X136076638Y-111344048D01*
X136106036Y-111342363D01*
X136114466Y-111340289D01*
X136128422Y-111336424D01*
X136159153Y-111331991D01*
X136197767Y-111328151D01*
X136245071Y-111323184D01*
X136305329Y-111315319D01*
X136368257Y-111305937D01*
X136392697Y-111301930D01*
X136643511Y-111247757D01*
X136889467Y-111171509D01*
X137128582Y-111074318D01*
X137358878Y-110957315D01*
X137578375Y-110821631D01*
X137785091Y-110668398D01*
X137977047Y-110498747D01*
X138152263Y-110313810D01*
X138180769Y-110280302D01*
X138332235Y-110083889D01*
X138468449Y-109875646D01*
X138587367Y-109659293D01*
X138686946Y-109438551D01*
X138765139Y-109217138D01*
X138765167Y-109217046D01*
X138786324Y-109142968D01*
X138807637Y-109060905D01*
X138827551Y-108977533D01*
X138844510Y-108899528D01*
X138856960Y-108833567D01*
X138861490Y-108803558D01*
X138867079Y-108762589D01*
X138872266Y-108728331D01*
X138874617Y-108714953D01*
X138876882Y-108695300D01*
X138879987Y-108656777D01*
X138883598Y-108604115D01*
X138887380Y-108542041D01*
X138889270Y-108508209D01*
X138892775Y-108408126D01*
X138893059Y-108346790D01*
X138678463Y-108346790D01*
X138678049Y-108417756D01*
X138677193Y-108482966D01*
X138675905Y-108537525D01*
X138674191Y-108576535D01*
X138672898Y-108590907D01*
X138667894Y-108628561D01*
X138662087Y-108674344D01*
X138660001Y-108691325D01*
X138643605Y-108799795D01*
X138620090Y-108919181D01*
X138591600Y-109040150D01*
X138560280Y-109153368D01*
X138537841Y-109222953D01*
X138520975Y-109271499D01*
X138503945Y-109320543D01*
X138494764Y-109347000D01*
X138459973Y-109434487D01*
X138412420Y-109535152D01*
X138354773Y-109644278D01*
X138289704Y-109757153D01*
X138219884Y-109869062D01*
X138147981Y-109975291D01*
X138106842Y-110031822D01*
X138059489Y-110090903D01*
X137999150Y-110160022D01*
X137930151Y-110234743D01*
X137856820Y-110310627D01*
X137783484Y-110383237D01*
X137714472Y-110448135D01*
X137654109Y-110500882D01*
X137632559Y-110518205D01*
X137420578Y-110670197D01*
X137204819Y-110799460D01*
X136983303Y-110906821D01*
X136754053Y-110993110D01*
X136515093Y-111059155D01*
X136264445Y-111105786D01*
X136214884Y-111112579D01*
X136128895Y-111120884D01*
X136026641Y-111126243D01*
X135915301Y-111128644D01*
X135802056Y-111128075D01*
X135694084Y-111124525D01*
X135598567Y-111117981D01*
X135558293Y-111113655D01*
X135300548Y-111070045D01*
X135051291Y-111004919D01*
X134811547Y-110918902D01*
X134582338Y-110812625D01*
X134364688Y-110686713D01*
X134159621Y-110541796D01*
X133968159Y-110378501D01*
X133791327Y-110197456D01*
X133630147Y-109999290D01*
X133545481Y-109878628D01*
X133412735Y-109657742D01*
X133301797Y-109428163D01*
X133212910Y-109190843D01*
X133146311Y-108946734D01*
X133102241Y-108696788D01*
X133080941Y-108441958D01*
X133082650Y-108183197D01*
X133090360Y-108072748D01*
X133124123Y-107822370D01*
X133179949Y-107578593D01*
X133256901Y-107342610D01*
X133354043Y-107115614D01*
X133470436Y-106898799D01*
X133605143Y-106693357D01*
X133757228Y-106500481D01*
X133925754Y-106321365D01*
X134109782Y-106157201D01*
X134308376Y-106009183D01*
X134520598Y-105878503D01*
X134745511Y-105766355D01*
X134972090Y-105677375D01*
X135217111Y-105605629D01*
X135466961Y-105556748D01*
X135720101Y-105530845D01*
X135974989Y-105528033D01*
X136230084Y-105548424D01*
X136392093Y-105573583D01*
X136642020Y-105631743D01*
X136884381Y-105712129D01*
X137118153Y-105814262D01*
X137342311Y-105937666D01*
X137555833Y-106081861D01*
X137668000Y-106169558D01*
X137734200Y-106227528D01*
X137809391Y-106299228D01*
X137888533Y-106379374D01*
X137966589Y-106462685D01*
X138038520Y-106543878D01*
X138099287Y-106617669D01*
X138115324Y-106638554D01*
X138247656Y-106830448D01*
X138364578Y-107032478D01*
X138463806Y-107240158D01*
X138543055Y-107449000D01*
X138566630Y-107524892D01*
X138588423Y-107604988D01*
X138609880Y-107693417D01*
X138629515Y-107783215D01*
X138645840Y-107867416D01*
X138657369Y-107939056D01*
X138660535Y-107964767D01*
X138665662Y-108011170D01*
X138670620Y-108053259D01*
X138673673Y-108077000D01*
X138675571Y-108103297D01*
X138676991Y-108148322D01*
X138677942Y-108207176D01*
X138678430Y-108274964D01*
X138678463Y-108346790D01*
X138893059Y-108346790D01*
X138893279Y-108299550D01*
X138890998Y-108188620D01*
X138886150Y-108081474D01*
X138878952Y-107984252D01*
X138869622Y-107903093D01*
X138867301Y-107887976D01*
X138812784Y-107618443D01*
X138738893Y-107362213D01*
X138645248Y-107118536D01*
X138531467Y-106886658D01*
X138397169Y-106665830D01*
X138241973Y-106455298D01*
X138065498Y-106254312D01*
X138010683Y-106198102D01*
X137812022Y-106015098D01*
X137601970Y-105852689D01*
X137381191Y-105711151D01*
X137150349Y-105590759D01*
X136910108Y-105491788D01*
X136661133Y-105414512D01*
X136404087Y-105359206D01*
X136139634Y-105326145D01*
X135878186Y-105315589D01*
X135636482Y-105323666D01*
X135636482Y-105323666D01*
G37*
X135636482Y-105323666D02*
X135407310Y-105348608D01*
X135185636Y-105391474D01*
X134966424Y-105453329D01*
X134744639Y-105535235D01*
X134653977Y-105573893D01*
X134419251Y-105690348D01*
X134196844Y-105826342D01*
X133987817Y-105980640D01*
X133793231Y-106152010D01*
X133614148Y-106339217D01*
X133451627Y-106541027D01*
X133306730Y-106756205D01*
X133180517Y-106983519D01*
X133074049Y-107221733D01*
X132988388Y-107469614D01*
X132970570Y-107532137D01*
X132915188Y-107774185D01*
X132880591Y-108020183D01*
X132866229Y-108274320D01*
X132865731Y-108331352D01*
X132877180Y-108598806D01*
X132911649Y-108861400D01*
X132968895Y-109118416D01*
X133048675Y-109369134D01*
X133150746Y-109612834D01*
X133274867Y-109848795D01*
X133420793Y-110076300D01*
X133483249Y-110162162D01*
X133531727Y-110222202D01*
X133594237Y-110293007D01*
X133666733Y-110370538D01*
X133745168Y-110450753D01*
X133825495Y-110529614D01*
X133903667Y-110603080D01*
X133975637Y-110667111D01*
X134037358Y-110717666D01*
X134047024Y-110724991D01*
X134264483Y-110875423D01*
X134484549Y-111003478D01*
X134710162Y-111110405D01*
X134944268Y-111197452D01*
X135189809Y-111265868D01*
X135437557Y-111314942D01*
X135474739Y-111319555D01*
X135527631Y-111324155D01*
X135592569Y-111328606D01*
X135665889Y-111332770D01*
X135743927Y-111336510D01*
X135823018Y-111339688D01*
X135899499Y-111342169D01*
X135969706Y-111343814D01*
X136029973Y-111344486D01*
X136076638Y-111344048D01*
X136106036Y-111342363D01*
X136114466Y-111340289D01*
X136128422Y-111336424D01*
X136159153Y-111331991D01*
X136197767Y-111328151D01*
X136245071Y-111323184D01*
X136305329Y-111315319D01*
X136368257Y-111305937D01*
X136392697Y-111301930D01*
X136643511Y-111247757D01*
X136889467Y-111171509D01*
X137128582Y-111074318D01*
X137358878Y-110957315D01*
X137578375Y-110821631D01*
X137785091Y-110668398D01*
X137977047Y-110498747D01*
X138152263Y-110313810D01*
X138180769Y-110280302D01*
X138332235Y-110083889D01*
X138468449Y-109875646D01*
X138587367Y-109659293D01*
X138686946Y-109438551D01*
X138765139Y-109217138D01*
X138765167Y-109217046D01*
X138786324Y-109142968D01*
X138807637Y-109060905D01*
X138827551Y-108977533D01*
X138844510Y-108899528D01*
X138856960Y-108833567D01*
X138861490Y-108803558D01*
X138867079Y-108762589D01*
X138872266Y-108728331D01*
X138874617Y-108714953D01*
X138876882Y-108695300D01*
X138879987Y-108656777D01*
X138883598Y-108604115D01*
X138887380Y-108542041D01*
X138889270Y-108508209D01*
X138892775Y-108408126D01*
X138893059Y-108346790D01*
X138678463Y-108346790D01*
X138678049Y-108417756D01*
X138677193Y-108482966D01*
X138675905Y-108537525D01*
X138674191Y-108576535D01*
X138672898Y-108590907D01*
X138667894Y-108628561D01*
X138662087Y-108674344D01*
X138660001Y-108691325D01*
X138643605Y-108799795D01*
X138620090Y-108919181D01*
X138591600Y-109040150D01*
X138560280Y-109153368D01*
X138537841Y-109222953D01*
X138520975Y-109271499D01*
X138503945Y-109320543D01*
X138494764Y-109347000D01*
X138459973Y-109434487D01*
X138412420Y-109535152D01*
X138354773Y-109644278D01*
X138289704Y-109757153D01*
X138219884Y-109869062D01*
X138147981Y-109975291D01*
X138106842Y-110031822D01*
X138059489Y-110090903D01*
X137999150Y-110160022D01*
X137930151Y-110234743D01*
X137856820Y-110310627D01*
X137783484Y-110383237D01*
X137714472Y-110448135D01*
X137654109Y-110500882D01*
X137632559Y-110518205D01*
X137420578Y-110670197D01*
X137204819Y-110799460D01*
X136983303Y-110906821D01*
X136754053Y-110993110D01*
X136515093Y-111059155D01*
X136264445Y-111105786D01*
X136214884Y-111112579D01*
X136128895Y-111120884D01*
X136026641Y-111126243D01*
X135915301Y-111128644D01*
X135802056Y-111128075D01*
X135694084Y-111124525D01*
X135598567Y-111117981D01*
X135558293Y-111113655D01*
X135300548Y-111070045D01*
X135051291Y-111004919D01*
X134811547Y-110918902D01*
X134582338Y-110812625D01*
X134364688Y-110686713D01*
X134159621Y-110541796D01*
X133968159Y-110378501D01*
X133791327Y-110197456D01*
X133630147Y-109999290D01*
X133545481Y-109878628D01*
X133412735Y-109657742D01*
X133301797Y-109428163D01*
X133212910Y-109190843D01*
X133146311Y-108946734D01*
X133102241Y-108696788D01*
X133080941Y-108441958D01*
X133082650Y-108183197D01*
X133090360Y-108072748D01*
X133124123Y-107822370D01*
X133179949Y-107578593D01*
X133256901Y-107342610D01*
X133354043Y-107115614D01*
X133470436Y-106898799D01*
X133605143Y-106693357D01*
X133757228Y-106500481D01*
X133925754Y-106321365D01*
X134109782Y-106157201D01*
X134308376Y-106009183D01*
X134520598Y-105878503D01*
X134745511Y-105766355D01*
X134972090Y-105677375D01*
X135217111Y-105605629D01*
X135466961Y-105556748D01*
X135720101Y-105530845D01*
X135974989Y-105528033D01*
X136230084Y-105548424D01*
X136392093Y-105573583D01*
X136642020Y-105631743D01*
X136884381Y-105712129D01*
X137118153Y-105814262D01*
X137342311Y-105937666D01*
X137555833Y-106081861D01*
X137668000Y-106169558D01*
X137734200Y-106227528D01*
X137809391Y-106299228D01*
X137888533Y-106379374D01*
X137966589Y-106462685D01*
X138038520Y-106543878D01*
X138099287Y-106617669D01*
X138115324Y-106638554D01*
X138247656Y-106830448D01*
X138364578Y-107032478D01*
X138463806Y-107240158D01*
X138543055Y-107449000D01*
X138566630Y-107524892D01*
X138588423Y-107604988D01*
X138609880Y-107693417D01*
X138629515Y-107783215D01*
X138645840Y-107867416D01*
X138657369Y-107939056D01*
X138660535Y-107964767D01*
X138665662Y-108011170D01*
X138670620Y-108053259D01*
X138673673Y-108077000D01*
X138675571Y-108103297D01*
X138676991Y-108148322D01*
X138677942Y-108207176D01*
X138678430Y-108274964D01*
X138678463Y-108346790D01*
X138893059Y-108346790D01*
X138893279Y-108299550D01*
X138890998Y-108188620D01*
X138886150Y-108081474D01*
X138878952Y-107984252D01*
X138869622Y-107903093D01*
X138867301Y-107887976D01*
X138812784Y-107618443D01*
X138738893Y-107362213D01*
X138645248Y-107118536D01*
X138531467Y-106886658D01*
X138397169Y-106665830D01*
X138241973Y-106455298D01*
X138065498Y-106254312D01*
X138010683Y-106198102D01*
X137812022Y-106015098D01*
X137601970Y-105852689D01*
X137381191Y-105711151D01*
X137150349Y-105590759D01*
X136910108Y-105491788D01*
X136661133Y-105414512D01*
X136404087Y-105359206D01*
X136139634Y-105326145D01*
X135878186Y-105315589D01*
X135636482Y-105323666D01*
D12*
X140319000Y-103062000D02*
X140319000Y-101662000D01*
X139619000Y-100962000D02*
X139019000Y-100962000D01*
X138319000Y-101662000D02*
X138319000Y-103062000D01*
X139019000Y-103762000D02*
X139619000Y-103762000D01*
X139619000Y-103762000D02*
G75*
G03X140319000Y-103062000I0J700000D01*
G01*
X138319000Y-103062000D02*
G75*
G03X139019000Y-103762000I700000J0D01*
G01*
X139019000Y-100962000D02*
G75*
G03X138319000Y-101662000I0J-700000D01*
G01*
X140319000Y-101662000D02*
G75*
G03X139619000Y-100962000I-700000J0D01*
G01*
X137430000Y-98744000D02*
G75*
G03X138130000Y-99444000I700000J0D01*
G01*
X138730000Y-99444000D02*
G75*
G03X139430000Y-98744000I0J700000D01*
G01*
X139430000Y-97344000D02*
G75*
G03X138730000Y-96644000I-700000J0D01*
G01*
X138130000Y-96644000D02*
G75*
G03X137430000Y-97344000I0J-700000D01*
G01*
X138730000Y-96644000D02*
X138130000Y-96644000D01*
X139430000Y-98744000D02*
X139430000Y-97344000D01*
X138130000Y-99444000D02*
X138730000Y-99444000D01*
X137430000Y-97344000D02*
X137430000Y-98744000D01*
X137476000Y-88249000D02*
X138876000Y-88249000D01*
X139576000Y-87549000D02*
X139576000Y-86949000D01*
X138876000Y-86249000D02*
X137476000Y-86249000D01*
X136776000Y-86949000D02*
X136776000Y-87549000D01*
X136776000Y-87549000D02*
G75*
G03X137476000Y-88249000I700000J0D01*
G01*
X137476000Y-86249000D02*
G75*
G03X136776000Y-86949000I0J-700000D01*
G01*
X139576000Y-86949000D02*
G75*
G03X138876000Y-86249000I-700000J0D01*
G01*
X138876000Y-88249000D02*
G75*
G03X139576000Y-87549000I0J700000D01*
G01*
X136726000Y-85790000D02*
X139626000Y-85790000D01*
X136726000Y-85790000D02*
X136726000Y-84390000D01*
X139626000Y-84390000D02*
X136726000Y-84390000D01*
X139626000Y-85790000D02*
X139626000Y-84390000D01*
X139626000Y-84393000D02*
X139626000Y-82993000D01*
X139626000Y-82993000D02*
X136726000Y-82993000D01*
X136726000Y-84393000D02*
X136726000Y-82993000D01*
X136726000Y-84393000D02*
X139626000Y-84393000D01*
X139626000Y-82996000D02*
X139626000Y-81596000D01*
X139626000Y-81596000D02*
X136726000Y-81596000D01*
X136726000Y-82996000D02*
X136726000Y-81596000D01*
X136726000Y-82996000D02*
X139626000Y-82996000D01*
D10*
X139657666Y-103994133D02*
X139657666Y-104502133D01*
X139691533Y-104603733D01*
X139759266Y-104671466D01*
X139860866Y-104705333D01*
X139928600Y-104705333D01*
X139319000Y-104705333D02*
X139319000Y-103994133D01*
X139048066Y-103994133D01*
X138980333Y-104028000D01*
X138946466Y-104061866D01*
X138912600Y-104129600D01*
X138912600Y-104231200D01*
X138946466Y-104298933D01*
X138980333Y-104332800D01*
X139048066Y-104366666D01*
X139319000Y-104366666D01*
X138235266Y-104705333D02*
X138641666Y-104705333D01*
X138438466Y-104705333D02*
X138438466Y-103994133D01*
X138506200Y-104095733D01*
X138573933Y-104163466D01*
X138641666Y-104197333D01*
X138921066Y-99635733D02*
X138921066Y-100143733D01*
X138954933Y-100245333D01*
X139022666Y-100313066D01*
X139124266Y-100346933D01*
X139192000Y-100346933D01*
X138582400Y-100346933D02*
X138582400Y-99635733D01*
X138311466Y-99635733D01*
X138243733Y-99669600D01*
X138209866Y-99703466D01*
X138176000Y-99771200D01*
X138176000Y-99872800D01*
X138209866Y-99940533D01*
X138243733Y-99974400D01*
X138311466Y-100008266D01*
X138582400Y-100008266D01*
X137905066Y-99703466D02*
X137871200Y-99669600D01*
X137803466Y-99635733D01*
X137634133Y-99635733D01*
X137566400Y-99669600D01*
X137532533Y-99703466D01*
X137498666Y-99771200D01*
X137498666Y-99838933D01*
X137532533Y-99940533D01*
X137938933Y-100346933D01*
X137498666Y-100346933D01*
X138768666Y-88485133D02*
X138768666Y-88993133D01*
X138802533Y-89094733D01*
X138870266Y-89162466D01*
X138971866Y-89196333D01*
X139039600Y-89196333D01*
X138430000Y-89196333D02*
X138430000Y-88485133D01*
X138159066Y-88485133D01*
X138091333Y-88519000D01*
X138057466Y-88552866D01*
X138023600Y-88620600D01*
X138023600Y-88722200D01*
X138057466Y-88789933D01*
X138091333Y-88823800D01*
X138159066Y-88857666D01*
X138430000Y-88857666D01*
X137786533Y-88485133D02*
X137346266Y-88485133D01*
X137583333Y-88756066D01*
X137481733Y-88756066D01*
X137414000Y-88789933D01*
X137380133Y-88823800D01*
X137346266Y-88891533D01*
X137346266Y-89060866D01*
X137380133Y-89128600D01*
X137414000Y-89162466D01*
X137481733Y-89196333D01*
X137684933Y-89196333D01*
X137752666Y-89162466D01*
X137786533Y-89128600D01*
M02*
