M48
; DRILL file {KiCad (5.1.0)-1} date 8/8/2019 12:31:09 PM
; FORMAT={-:-/ absolute / inch / decimal}
; #@! TF.CreationDate,2019-08-08T12:31:09-05:00
; #@! TF.GenerationSoftware,Kicad,Pcbnew,(5.1.0)-1
; #@! TF.FileFunction,Plated,1,2,PTH
FMAT,2
INCH
T1C0.0100
T2C0.0197
T3C0.0217
T4C0.0394
%
G90
G05
T1
X5.096Y-3.819
X5.11Y-4.2
X5.114Y-4.436
X5.115Y-3.376
X5.115Y-4.336
X5.128Y-3.816
X5.145Y-4.014
X5.16Y-3.295
X5.192Y-4.452
X5.205Y-3.22
X5.238Y-3.676
X5.238Y-3.709
X5.24Y-3.475
X5.258Y-3.65
X5.2593Y-3.9303
X5.265Y-3.395
X5.27Y-3.45
X5.279Y-3.628
X5.28Y-4.32
X5.281Y-3.576
X5.289Y-3.687
X5.303Y-4.27
X5.33Y-3.595
X5.344Y-3.687
X5.35Y-4.27
X5.36Y-3.39
X5.365Y-3.435
X5.3706Y-3.953
X5.38Y-3.475
X5.38Y-3.907
X5.385Y-3.595
X5.395Y-3.687
X5.424Y-4.27
X5.43Y-3.7889
X5.4313Y-3.7513
X5.439Y-3.595
X5.44Y-3.95
X5.444Y-4.484
X5.46Y-3.769
X5.48Y-3.9584
X5.5Y-3.5
X5.503Y-3.85
X5.511Y-4.105
X5.53Y-3.189
X5.55Y-4.485
X5.5613Y-4.0787
X5.565Y-3.185
X5.565Y-3.42
X5.565Y-3.566
X5.565Y-3.625
X5.565Y-3.885
X5.592Y-4.337
X5.6Y-4.1
X5.6Y-4.2
T4
X5.15Y-4.55
X5.25Y-4.55
X5.35Y-4.55
X5.45Y-4.55
X5.55Y-4.55
X5.05Y-3.05
X5.05Y-3.15
X5.05Y-3.25
X5.05Y-3.35
X5.05Y-3.45
X5.05Y-3.55
X5.05Y-3.65
X5.05Y-3.75
X5.05Y-3.85
X5.05Y-3.95
X5.05Y-4.05
X5.05Y-4.15
X5.05Y-4.25
X5.05Y-4.35
X5.05Y-4.45
X5.05Y-4.55
X5.65Y-3.05
X5.65Y-3.15
X5.65Y-3.25
X5.65Y-3.35
X5.65Y-3.45
X5.65Y-3.55
X5.65Y-3.65
X5.65Y-3.75
X5.65Y-3.85
X5.65Y-3.95
X5.65Y-4.05
X5.65Y-4.15
X5.65Y-4.25
X5.65Y-4.35
X5.65Y-4.45
X5.65Y-4.55
T2
G00X5.2122Y-3.0865
M15
G01X5.2122Y-3.0609
M16
G05
G00X5.4878Y-3.0865
M15
G01X5.4878Y-3.0609
M16
G05
T3
G00X5.2575Y-3.18
M15
G01X5.2457Y-3.18
M16
G05
G00X5.4543Y-3.18
M15
G01X5.4425Y-3.18
M16
G05
T0
M30
