G04 #@! TF.GenerationSoftware,KiCad,Pcbnew,(5.1.0)-1*
G04 #@! TF.CreationDate,2019-08-08T12:31:07-05:00*
G04 #@! TF.ProjectId,STM32F070_Breakout,53544d33-3246-4303-9730-5f427265616b,v02*
G04 #@! TF.SameCoordinates,Original*
G04 #@! TF.FileFunction,Soldermask,Top*
G04 #@! TF.FilePolarity,Negative*
%FSLAX46Y46*%
G04 Gerber Fmt 4.6, Leading zero omitted, Abs format (unit mm)*
G04 Created by KiCad (PCBNEW (5.1.0)-1) date 2019-08-08 12:31:07*
%MOMM*%
%LPD*%
G04 APERTURE LIST*
%ADD10C,0.100000*%
G04 APERTURE END LIST*
D10*
G36*
X138540443Y-114675519D02*
G01*
X138606627Y-114682037D01*
X138776466Y-114733557D01*
X138932991Y-114817222D01*
X138968729Y-114846552D01*
X139070186Y-114929814D01*
X139153448Y-115031271D01*
X139182778Y-115067009D01*
X139266443Y-115223534D01*
X139317963Y-115393373D01*
X139335359Y-115570000D01*
X139317963Y-115746627D01*
X139266443Y-115916466D01*
X139182778Y-116072991D01*
X139153448Y-116108729D01*
X139070186Y-116210186D01*
X138997480Y-116269853D01*
X138932991Y-116322778D01*
X138776466Y-116406443D01*
X138606627Y-116457963D01*
X138540442Y-116464482D01*
X138474260Y-116471000D01*
X138385740Y-116471000D01*
X138319558Y-116464482D01*
X138253373Y-116457963D01*
X138083534Y-116406443D01*
X137927009Y-116322778D01*
X137862520Y-116269853D01*
X137789814Y-116210186D01*
X137706552Y-116108729D01*
X137677222Y-116072991D01*
X137593557Y-115916466D01*
X137542037Y-115746627D01*
X137524641Y-115570000D01*
X137542037Y-115393373D01*
X137593557Y-115223534D01*
X137677222Y-115067009D01*
X137706552Y-115031271D01*
X137789814Y-114929814D01*
X137891271Y-114846552D01*
X137927009Y-114817222D01*
X138083534Y-114733557D01*
X138253373Y-114682037D01*
X138319557Y-114675519D01*
X138385740Y-114669000D01*
X138474260Y-114669000D01*
X138540443Y-114675519D01*
X138540443Y-114675519D01*
G37*
G36*
X141080443Y-114675519D02*
G01*
X141146627Y-114682037D01*
X141316466Y-114733557D01*
X141472991Y-114817222D01*
X141508729Y-114846552D01*
X141610186Y-114929814D01*
X141693448Y-115031271D01*
X141722778Y-115067009D01*
X141806443Y-115223534D01*
X141857963Y-115393373D01*
X141875359Y-115570000D01*
X141857963Y-115746627D01*
X141806443Y-115916466D01*
X141722778Y-116072991D01*
X141693448Y-116108729D01*
X141610186Y-116210186D01*
X141537480Y-116269853D01*
X141472991Y-116322778D01*
X141316466Y-116406443D01*
X141146627Y-116457963D01*
X141080442Y-116464482D01*
X141014260Y-116471000D01*
X140925740Y-116471000D01*
X140859558Y-116464482D01*
X140793373Y-116457963D01*
X140623534Y-116406443D01*
X140467009Y-116322778D01*
X140402520Y-116269853D01*
X140329814Y-116210186D01*
X140246552Y-116108729D01*
X140217222Y-116072991D01*
X140133557Y-115916466D01*
X140082037Y-115746627D01*
X140064641Y-115570000D01*
X140082037Y-115393373D01*
X140133557Y-115223534D01*
X140217222Y-115067009D01*
X140246552Y-115031271D01*
X140329814Y-114929814D01*
X140431271Y-114846552D01*
X140467009Y-114817222D01*
X140623534Y-114733557D01*
X140793373Y-114682037D01*
X140859557Y-114675519D01*
X140925740Y-114669000D01*
X141014260Y-114669000D01*
X141080443Y-114675519D01*
X141080443Y-114675519D01*
G37*
G36*
X128380443Y-114675519D02*
G01*
X128446627Y-114682037D01*
X128616466Y-114733557D01*
X128772991Y-114817222D01*
X128808729Y-114846552D01*
X128910186Y-114929814D01*
X128993448Y-115031271D01*
X129022778Y-115067009D01*
X129106443Y-115223534D01*
X129157963Y-115393373D01*
X129175359Y-115570000D01*
X129157963Y-115746627D01*
X129106443Y-115916466D01*
X129022778Y-116072991D01*
X128993448Y-116108729D01*
X128910186Y-116210186D01*
X128837480Y-116269853D01*
X128772991Y-116322778D01*
X128616466Y-116406443D01*
X128446627Y-116457963D01*
X128380442Y-116464482D01*
X128314260Y-116471000D01*
X128225740Y-116471000D01*
X128159558Y-116464482D01*
X128093373Y-116457963D01*
X127923534Y-116406443D01*
X127767009Y-116322778D01*
X127702520Y-116269853D01*
X127629814Y-116210186D01*
X127546552Y-116108729D01*
X127517222Y-116072991D01*
X127433557Y-115916466D01*
X127382037Y-115746627D01*
X127364641Y-115570000D01*
X127382037Y-115393373D01*
X127433557Y-115223534D01*
X127517222Y-115067009D01*
X127546552Y-115031271D01*
X127629814Y-114929814D01*
X127731271Y-114846552D01*
X127767009Y-114817222D01*
X127923534Y-114733557D01*
X128093373Y-114682037D01*
X128159557Y-114675519D01*
X128225740Y-114669000D01*
X128314260Y-114669000D01*
X128380443Y-114675519D01*
X128380443Y-114675519D01*
G37*
G36*
X143620443Y-114675519D02*
G01*
X143686627Y-114682037D01*
X143856466Y-114733557D01*
X144012991Y-114817222D01*
X144048729Y-114846552D01*
X144150186Y-114929814D01*
X144233448Y-115031271D01*
X144262778Y-115067009D01*
X144346443Y-115223534D01*
X144397963Y-115393373D01*
X144415359Y-115570000D01*
X144397963Y-115746627D01*
X144346443Y-115916466D01*
X144262778Y-116072991D01*
X144233448Y-116108729D01*
X144150186Y-116210186D01*
X144077480Y-116269853D01*
X144012991Y-116322778D01*
X143856466Y-116406443D01*
X143686627Y-116457963D01*
X143620442Y-116464482D01*
X143554260Y-116471000D01*
X143465740Y-116471000D01*
X143399558Y-116464482D01*
X143333373Y-116457963D01*
X143163534Y-116406443D01*
X143007009Y-116322778D01*
X142942520Y-116269853D01*
X142869814Y-116210186D01*
X142786552Y-116108729D01*
X142757222Y-116072991D01*
X142673557Y-115916466D01*
X142622037Y-115746627D01*
X142604641Y-115570000D01*
X142622037Y-115393373D01*
X142673557Y-115223534D01*
X142757222Y-115067009D01*
X142786552Y-115031271D01*
X142869814Y-114929814D01*
X142971271Y-114846552D01*
X143007009Y-114817222D01*
X143163534Y-114733557D01*
X143333373Y-114682037D01*
X143399557Y-114675519D01*
X143465740Y-114669000D01*
X143554260Y-114669000D01*
X143620443Y-114675519D01*
X143620443Y-114675519D01*
G37*
G36*
X133460443Y-114675519D02*
G01*
X133526627Y-114682037D01*
X133696466Y-114733557D01*
X133852991Y-114817222D01*
X133888729Y-114846552D01*
X133990186Y-114929814D01*
X134073448Y-115031271D01*
X134102778Y-115067009D01*
X134186443Y-115223534D01*
X134237963Y-115393373D01*
X134255359Y-115570000D01*
X134237963Y-115746627D01*
X134186443Y-115916466D01*
X134102778Y-116072991D01*
X134073448Y-116108729D01*
X133990186Y-116210186D01*
X133917480Y-116269853D01*
X133852991Y-116322778D01*
X133696466Y-116406443D01*
X133526627Y-116457963D01*
X133460442Y-116464482D01*
X133394260Y-116471000D01*
X133305740Y-116471000D01*
X133239558Y-116464482D01*
X133173373Y-116457963D01*
X133003534Y-116406443D01*
X132847009Y-116322778D01*
X132782520Y-116269853D01*
X132709814Y-116210186D01*
X132626552Y-116108729D01*
X132597222Y-116072991D01*
X132513557Y-115916466D01*
X132462037Y-115746627D01*
X132444641Y-115570000D01*
X132462037Y-115393373D01*
X132513557Y-115223534D01*
X132597222Y-115067009D01*
X132626552Y-115031271D01*
X132709814Y-114929814D01*
X132811271Y-114846552D01*
X132847009Y-114817222D01*
X133003534Y-114733557D01*
X133173373Y-114682037D01*
X133239557Y-114675519D01*
X133305740Y-114669000D01*
X133394260Y-114669000D01*
X133460443Y-114675519D01*
X133460443Y-114675519D01*
G37*
G36*
X136000443Y-114675519D02*
G01*
X136066627Y-114682037D01*
X136236466Y-114733557D01*
X136392991Y-114817222D01*
X136428729Y-114846552D01*
X136530186Y-114929814D01*
X136613448Y-115031271D01*
X136642778Y-115067009D01*
X136726443Y-115223534D01*
X136777963Y-115393373D01*
X136795359Y-115570000D01*
X136777963Y-115746627D01*
X136726443Y-115916466D01*
X136642778Y-116072991D01*
X136613448Y-116108729D01*
X136530186Y-116210186D01*
X136457480Y-116269853D01*
X136392991Y-116322778D01*
X136236466Y-116406443D01*
X136066627Y-116457963D01*
X136000442Y-116464482D01*
X135934260Y-116471000D01*
X135845740Y-116471000D01*
X135779558Y-116464482D01*
X135713373Y-116457963D01*
X135543534Y-116406443D01*
X135387009Y-116322778D01*
X135322520Y-116269853D01*
X135249814Y-116210186D01*
X135166552Y-116108729D01*
X135137222Y-116072991D01*
X135053557Y-115916466D01*
X135002037Y-115746627D01*
X134984641Y-115570000D01*
X135002037Y-115393373D01*
X135053557Y-115223534D01*
X135137222Y-115067009D01*
X135166552Y-115031271D01*
X135249814Y-114929814D01*
X135351271Y-114846552D01*
X135387009Y-114817222D01*
X135543534Y-114733557D01*
X135713373Y-114682037D01*
X135779557Y-114675519D01*
X135845740Y-114669000D01*
X135934260Y-114669000D01*
X136000443Y-114675519D01*
X136000443Y-114675519D01*
G37*
G36*
X130923512Y-114673927D02*
G01*
X131072812Y-114703624D01*
X131236784Y-114771544D01*
X131384354Y-114870147D01*
X131509853Y-114995646D01*
X131608456Y-115143216D01*
X131676376Y-115307188D01*
X131711000Y-115481259D01*
X131711000Y-115658741D01*
X131676376Y-115832812D01*
X131608456Y-115996784D01*
X131509853Y-116144354D01*
X131384354Y-116269853D01*
X131236784Y-116368456D01*
X131072812Y-116436376D01*
X130923512Y-116466073D01*
X130898742Y-116471000D01*
X130721258Y-116471000D01*
X130696488Y-116466073D01*
X130547188Y-116436376D01*
X130383216Y-116368456D01*
X130235646Y-116269853D01*
X130110147Y-116144354D01*
X130011544Y-115996784D01*
X129943624Y-115832812D01*
X129909000Y-115658741D01*
X129909000Y-115481259D01*
X129943624Y-115307188D01*
X130011544Y-115143216D01*
X130110147Y-114995646D01*
X130235646Y-114870147D01*
X130383216Y-114771544D01*
X130547188Y-114703624D01*
X130696488Y-114673927D01*
X130721258Y-114669000D01*
X130898742Y-114669000D01*
X130923512Y-114673927D01*
X130923512Y-114673927D01*
G37*
G36*
X128380443Y-112135519D02*
G01*
X128446627Y-112142037D01*
X128616466Y-112193557D01*
X128772991Y-112277222D01*
X128808729Y-112306552D01*
X128910186Y-112389814D01*
X128993448Y-112491271D01*
X129022778Y-112527009D01*
X129106443Y-112683534D01*
X129157963Y-112853373D01*
X129175359Y-113030000D01*
X129157963Y-113206627D01*
X129106443Y-113376466D01*
X129022778Y-113532991D01*
X128993448Y-113568729D01*
X128910186Y-113670186D01*
X128808729Y-113753448D01*
X128772991Y-113782778D01*
X128616466Y-113866443D01*
X128446627Y-113917963D01*
X128380443Y-113924481D01*
X128314260Y-113931000D01*
X128225740Y-113931000D01*
X128159557Y-113924481D01*
X128093373Y-113917963D01*
X127923534Y-113866443D01*
X127767009Y-113782778D01*
X127731271Y-113753448D01*
X127629814Y-113670186D01*
X127546552Y-113568729D01*
X127517222Y-113532991D01*
X127433557Y-113376466D01*
X127382037Y-113206627D01*
X127364641Y-113030000D01*
X127382037Y-112853373D01*
X127433557Y-112683534D01*
X127517222Y-112527009D01*
X127546552Y-112491271D01*
X127629814Y-112389814D01*
X127731271Y-112306552D01*
X127767009Y-112277222D01*
X127923534Y-112193557D01*
X128093373Y-112142037D01*
X128159557Y-112135519D01*
X128225740Y-112129000D01*
X128314260Y-112129000D01*
X128380443Y-112135519D01*
X128380443Y-112135519D01*
G37*
G36*
X143620443Y-112135519D02*
G01*
X143686627Y-112142037D01*
X143856466Y-112193557D01*
X144012991Y-112277222D01*
X144048729Y-112306552D01*
X144150186Y-112389814D01*
X144233448Y-112491271D01*
X144262778Y-112527009D01*
X144346443Y-112683534D01*
X144397963Y-112853373D01*
X144415359Y-113030000D01*
X144397963Y-113206627D01*
X144346443Y-113376466D01*
X144262778Y-113532991D01*
X144233448Y-113568729D01*
X144150186Y-113670186D01*
X144048729Y-113753448D01*
X144012991Y-113782778D01*
X143856466Y-113866443D01*
X143686627Y-113917963D01*
X143620443Y-113924481D01*
X143554260Y-113931000D01*
X143465740Y-113931000D01*
X143399557Y-113924481D01*
X143333373Y-113917963D01*
X143163534Y-113866443D01*
X143007009Y-113782778D01*
X142971271Y-113753448D01*
X142869814Y-113670186D01*
X142786552Y-113568729D01*
X142757222Y-113532991D01*
X142673557Y-113376466D01*
X142622037Y-113206627D01*
X142604641Y-113030000D01*
X142622037Y-112853373D01*
X142673557Y-112683534D01*
X142757222Y-112527009D01*
X142786552Y-112491271D01*
X142869814Y-112389814D01*
X142971271Y-112306552D01*
X143007009Y-112277222D01*
X143163534Y-112193557D01*
X143333373Y-112142037D01*
X143399557Y-112135519D01*
X143465740Y-112129000D01*
X143554260Y-112129000D01*
X143620443Y-112135519D01*
X143620443Y-112135519D01*
G37*
G36*
X131381000Y-113141000D02*
G01*
X130629000Y-113141000D01*
X130629000Y-111989000D01*
X131381000Y-111989000D01*
X131381000Y-113141000D01*
X131381000Y-113141000D01*
G37*
G36*
X141151000Y-113141000D02*
G01*
X140399000Y-113141000D01*
X140399000Y-111989000D01*
X141151000Y-111989000D01*
X141151000Y-113141000D01*
X141151000Y-113141000D01*
G37*
G36*
X133531000Y-113141000D02*
G01*
X132779000Y-113141000D01*
X132779000Y-111989000D01*
X133531000Y-111989000D01*
X133531000Y-113141000D01*
X133531000Y-113141000D01*
G37*
G36*
X139001000Y-113141000D02*
G01*
X138249000Y-113141000D01*
X138249000Y-111989000D01*
X139001000Y-111989000D01*
X139001000Y-113141000D01*
X139001000Y-113141000D01*
G37*
G36*
X135591000Y-111703000D02*
G01*
X134689000Y-111703000D01*
X134689000Y-110801000D01*
X135591000Y-110801000D01*
X135591000Y-111703000D01*
X135591000Y-111703000D01*
G37*
G36*
X137091000Y-111703000D02*
G01*
X136189000Y-111703000D01*
X136189000Y-110801000D01*
X137091000Y-110801000D01*
X137091000Y-111703000D01*
X137091000Y-111703000D01*
G37*
G36*
X128380442Y-109595518D02*
G01*
X128446627Y-109602037D01*
X128616466Y-109653557D01*
X128772991Y-109737222D01*
X128808729Y-109766552D01*
X128910186Y-109849814D01*
X128993448Y-109951271D01*
X129022778Y-109987009D01*
X129106443Y-110143534D01*
X129157963Y-110313373D01*
X129175359Y-110490000D01*
X129157963Y-110666627D01*
X129106443Y-110836466D01*
X129022778Y-110992991D01*
X128993448Y-111028729D01*
X128910186Y-111130186D01*
X128808729Y-111213448D01*
X128772991Y-111242778D01*
X128616466Y-111326443D01*
X128446627Y-111377963D01*
X128380443Y-111384481D01*
X128314260Y-111391000D01*
X128225740Y-111391000D01*
X128159557Y-111384481D01*
X128093373Y-111377963D01*
X127923534Y-111326443D01*
X127767009Y-111242778D01*
X127731271Y-111213448D01*
X127629814Y-111130186D01*
X127546552Y-111028729D01*
X127517222Y-110992991D01*
X127433557Y-110836466D01*
X127382037Y-110666627D01*
X127364641Y-110490000D01*
X127382037Y-110313373D01*
X127433557Y-110143534D01*
X127517222Y-109987009D01*
X127546552Y-109951271D01*
X127629814Y-109849814D01*
X127731271Y-109766552D01*
X127767009Y-109737222D01*
X127923534Y-109653557D01*
X128093373Y-109602037D01*
X128159558Y-109595518D01*
X128225740Y-109589000D01*
X128314260Y-109589000D01*
X128380442Y-109595518D01*
X128380442Y-109595518D01*
G37*
G36*
X143620442Y-109595518D02*
G01*
X143686627Y-109602037D01*
X143856466Y-109653557D01*
X144012991Y-109737222D01*
X144048729Y-109766552D01*
X144150186Y-109849814D01*
X144233448Y-109951271D01*
X144262778Y-109987009D01*
X144346443Y-110143534D01*
X144397963Y-110313373D01*
X144415359Y-110490000D01*
X144397963Y-110666627D01*
X144346443Y-110836466D01*
X144262778Y-110992991D01*
X144233448Y-111028729D01*
X144150186Y-111130186D01*
X144048729Y-111213448D01*
X144012991Y-111242778D01*
X143856466Y-111326443D01*
X143686627Y-111377963D01*
X143620443Y-111384481D01*
X143554260Y-111391000D01*
X143465740Y-111391000D01*
X143399557Y-111384481D01*
X143333373Y-111377963D01*
X143163534Y-111326443D01*
X143007009Y-111242778D01*
X142971271Y-111213448D01*
X142869814Y-111130186D01*
X142786552Y-111028729D01*
X142757222Y-110992991D01*
X142673557Y-110836466D01*
X142622037Y-110666627D01*
X142604641Y-110490000D01*
X142622037Y-110313373D01*
X142673557Y-110143534D01*
X142757222Y-109987009D01*
X142786552Y-109951271D01*
X142869814Y-109849814D01*
X142971271Y-109766552D01*
X143007009Y-109737222D01*
X143163534Y-109653557D01*
X143333373Y-109602037D01*
X143399558Y-109595518D01*
X143465740Y-109589000D01*
X143554260Y-109589000D01*
X143620442Y-109595518D01*
X143620442Y-109595518D01*
G37*
G36*
X135444591Y-109206085D02*
G01*
X135478569Y-109216393D01*
X135509890Y-109233134D01*
X135537339Y-109255661D01*
X135559866Y-109283110D01*
X135576607Y-109314431D01*
X135586915Y-109348409D01*
X135591000Y-109389890D01*
X135591000Y-110066110D01*
X135586915Y-110107591D01*
X135576607Y-110141569D01*
X135559866Y-110172890D01*
X135537339Y-110200339D01*
X135509890Y-110222866D01*
X135478569Y-110239607D01*
X135444591Y-110249915D01*
X135403110Y-110254000D01*
X134801890Y-110254000D01*
X134760409Y-110249915D01*
X134726431Y-110239607D01*
X134695110Y-110222866D01*
X134667661Y-110200339D01*
X134645134Y-110172890D01*
X134628393Y-110141569D01*
X134618085Y-110107591D01*
X134614000Y-110066110D01*
X134614000Y-109389890D01*
X134618085Y-109348409D01*
X134628393Y-109314431D01*
X134645134Y-109283110D01*
X134667661Y-109255661D01*
X134695110Y-109233134D01*
X134726431Y-109216393D01*
X134760409Y-109206085D01*
X134801890Y-109202000D01*
X135403110Y-109202000D01*
X135444591Y-109206085D01*
X135444591Y-109206085D01*
G37*
G36*
X137019591Y-109206085D02*
G01*
X137053569Y-109216393D01*
X137084890Y-109233134D01*
X137112339Y-109255661D01*
X137134866Y-109283110D01*
X137151607Y-109314431D01*
X137161915Y-109348409D01*
X137166000Y-109389890D01*
X137166000Y-110066110D01*
X137161915Y-110107591D01*
X137151607Y-110141569D01*
X137134866Y-110172890D01*
X137112339Y-110200339D01*
X137084890Y-110222866D01*
X137053569Y-110239607D01*
X137019591Y-110249915D01*
X136978110Y-110254000D01*
X136376890Y-110254000D01*
X136335409Y-110249915D01*
X136301431Y-110239607D01*
X136270110Y-110222866D01*
X136242661Y-110200339D01*
X136220134Y-110172890D01*
X136203393Y-110141569D01*
X136193085Y-110107591D01*
X136189000Y-110066110D01*
X136189000Y-109389890D01*
X136193085Y-109348409D01*
X136203393Y-109314431D01*
X136220134Y-109283110D01*
X136242661Y-109255661D01*
X136270110Y-109233134D01*
X136301431Y-109216393D01*
X136335409Y-109206085D01*
X136376890Y-109202000D01*
X136978110Y-109202000D01*
X137019591Y-109206085D01*
X137019591Y-109206085D01*
G37*
G36*
X141151000Y-108991000D02*
G01*
X140399000Y-108991000D01*
X140399000Y-107839000D01*
X141151000Y-107839000D01*
X141151000Y-108991000D01*
X141151000Y-108991000D01*
G37*
G36*
X133531000Y-108991000D02*
G01*
X132779000Y-108991000D01*
X132779000Y-107839000D01*
X133531000Y-107839000D01*
X133531000Y-108991000D01*
X133531000Y-108991000D01*
G37*
G36*
X139001000Y-108991000D02*
G01*
X138249000Y-108991000D01*
X138249000Y-107839000D01*
X139001000Y-107839000D01*
X139001000Y-108991000D01*
X139001000Y-108991000D01*
G37*
G36*
X131381000Y-108991000D02*
G01*
X130629000Y-108991000D01*
X130629000Y-107839000D01*
X131381000Y-107839000D01*
X131381000Y-108991000D01*
X131381000Y-108991000D01*
G37*
G36*
X143620442Y-107055518D02*
G01*
X143686627Y-107062037D01*
X143856466Y-107113557D01*
X143856468Y-107113558D01*
X143901009Y-107137366D01*
X144012991Y-107197222D01*
X144048729Y-107226552D01*
X144150186Y-107309814D01*
X144233448Y-107411271D01*
X144262778Y-107447009D01*
X144346443Y-107603534D01*
X144397963Y-107773373D01*
X144415359Y-107950000D01*
X144397963Y-108126627D01*
X144346443Y-108296466D01*
X144262778Y-108452991D01*
X144233448Y-108488729D01*
X144150186Y-108590186D01*
X144048729Y-108673448D01*
X144012991Y-108702778D01*
X143856466Y-108786443D01*
X143686627Y-108837963D01*
X143620442Y-108844482D01*
X143554260Y-108851000D01*
X143465740Y-108851000D01*
X143399558Y-108844482D01*
X143333373Y-108837963D01*
X143163534Y-108786443D01*
X143007009Y-108702778D01*
X142971271Y-108673448D01*
X142869814Y-108590186D01*
X142786552Y-108488729D01*
X142757222Y-108452991D01*
X142673557Y-108296466D01*
X142622037Y-108126627D01*
X142604641Y-107950000D01*
X142622037Y-107773373D01*
X142673557Y-107603534D01*
X142757222Y-107447009D01*
X142786552Y-107411271D01*
X142869814Y-107309814D01*
X142971271Y-107226552D01*
X143007009Y-107197222D01*
X143118991Y-107137366D01*
X143163532Y-107113558D01*
X143163534Y-107113557D01*
X143333373Y-107062037D01*
X143399558Y-107055518D01*
X143465740Y-107049000D01*
X143554260Y-107049000D01*
X143620442Y-107055518D01*
X143620442Y-107055518D01*
G37*
G36*
X128380442Y-107055518D02*
G01*
X128446627Y-107062037D01*
X128616466Y-107113557D01*
X128616468Y-107113558D01*
X128661009Y-107137366D01*
X128772991Y-107197222D01*
X128808729Y-107226552D01*
X128910186Y-107309814D01*
X128993448Y-107411271D01*
X129022778Y-107447009D01*
X129106443Y-107603534D01*
X129157963Y-107773373D01*
X129175359Y-107950000D01*
X129157963Y-108126627D01*
X129106443Y-108296466D01*
X129022778Y-108452991D01*
X128993448Y-108488729D01*
X128910186Y-108590186D01*
X128808729Y-108673448D01*
X128772991Y-108702778D01*
X128616466Y-108786443D01*
X128446627Y-108837963D01*
X128380442Y-108844482D01*
X128314260Y-108851000D01*
X128225740Y-108851000D01*
X128159558Y-108844482D01*
X128093373Y-108837963D01*
X127923534Y-108786443D01*
X127767009Y-108702778D01*
X127731271Y-108673448D01*
X127629814Y-108590186D01*
X127546552Y-108488729D01*
X127517222Y-108452991D01*
X127433557Y-108296466D01*
X127382037Y-108126627D01*
X127364641Y-107950000D01*
X127382037Y-107773373D01*
X127433557Y-107603534D01*
X127517222Y-107447009D01*
X127546552Y-107411271D01*
X127629814Y-107309814D01*
X127731271Y-107226552D01*
X127767009Y-107197222D01*
X127878991Y-107137366D01*
X127923532Y-107113558D01*
X127923534Y-107113557D01*
X128093373Y-107062037D01*
X128159558Y-107055518D01*
X128225740Y-107049000D01*
X128314260Y-107049000D01*
X128380442Y-107055518D01*
X128380442Y-107055518D01*
G37*
G36*
X140689290Y-105324619D02*
G01*
X140753689Y-105337429D01*
X140935678Y-105412811D01*
X141099463Y-105522249D01*
X141238751Y-105661537D01*
X141348189Y-105825322D01*
X141423571Y-106007311D01*
X141423571Y-106007312D01*
X141462000Y-106200507D01*
X141462000Y-106397493D01*
X141458796Y-106413599D01*
X141423571Y-106590689D01*
X141348189Y-106772678D01*
X141238751Y-106936463D01*
X141099463Y-107075751D01*
X140935678Y-107185189D01*
X140753689Y-107260571D01*
X140689290Y-107273381D01*
X140560493Y-107299000D01*
X140363507Y-107299000D01*
X140234710Y-107273381D01*
X140170311Y-107260571D01*
X139988322Y-107185189D01*
X139824537Y-107075751D01*
X139685249Y-106936463D01*
X139575811Y-106772678D01*
X139500429Y-106590689D01*
X139465204Y-106413599D01*
X139462000Y-106397493D01*
X139462000Y-106200507D01*
X139500429Y-106007312D01*
X139500429Y-106007311D01*
X139575811Y-105825322D01*
X139685249Y-105661537D01*
X139824537Y-105522249D01*
X139988322Y-105412811D01*
X140170311Y-105337429D01*
X140234710Y-105324619D01*
X140363507Y-105299000D01*
X140560493Y-105299000D01*
X140689290Y-105324619D01*
X140689290Y-105324619D01*
G37*
G36*
X132713591Y-106221085D02*
G01*
X132747569Y-106231393D01*
X132778890Y-106248134D01*
X132806339Y-106270661D01*
X132828866Y-106298110D01*
X132845607Y-106329431D01*
X132855915Y-106363409D01*
X132860000Y-106404890D01*
X132860000Y-107006110D01*
X132855915Y-107047591D01*
X132845607Y-107081569D01*
X132828866Y-107112890D01*
X132806339Y-107140339D01*
X132778890Y-107162866D01*
X132747569Y-107179607D01*
X132713591Y-107189915D01*
X132672110Y-107194000D01*
X131995890Y-107194000D01*
X131954409Y-107189915D01*
X131920431Y-107179607D01*
X131889110Y-107162866D01*
X131861661Y-107140339D01*
X131839134Y-107112890D01*
X131822393Y-107081569D01*
X131812085Y-107047591D01*
X131808000Y-107006110D01*
X131808000Y-106404890D01*
X131812085Y-106363409D01*
X131822393Y-106329431D01*
X131839134Y-106298110D01*
X131861661Y-106270661D01*
X131889110Y-106248134D01*
X131920431Y-106231393D01*
X131954409Y-106221085D01*
X131995890Y-106217000D01*
X132672110Y-106217000D01*
X132713591Y-106221085D01*
X132713591Y-106221085D01*
G37*
G36*
X131189591Y-106221085D02*
G01*
X131223569Y-106231393D01*
X131254890Y-106248134D01*
X131282339Y-106270661D01*
X131304866Y-106298110D01*
X131321607Y-106329431D01*
X131331915Y-106363409D01*
X131336000Y-106404890D01*
X131336000Y-107006110D01*
X131331915Y-107047591D01*
X131321607Y-107081569D01*
X131304866Y-107112890D01*
X131282339Y-107140339D01*
X131254890Y-107162866D01*
X131223569Y-107179607D01*
X131189591Y-107189915D01*
X131148110Y-107194000D01*
X130471890Y-107194000D01*
X130430409Y-107189915D01*
X130396431Y-107179607D01*
X130365110Y-107162866D01*
X130337661Y-107140339D01*
X130315134Y-107112890D01*
X130298393Y-107081569D01*
X130288085Y-107047591D01*
X130284000Y-107006110D01*
X130284000Y-106404890D01*
X130288085Y-106363409D01*
X130298393Y-106329431D01*
X130315134Y-106298110D01*
X130337661Y-106270661D01*
X130365110Y-106248134D01*
X130396431Y-106231393D01*
X130430409Y-106221085D01*
X130471890Y-106217000D01*
X131148110Y-106217000D01*
X131189591Y-106221085D01*
X131189591Y-106221085D01*
G37*
G36*
X137285591Y-106221085D02*
G01*
X137319569Y-106231393D01*
X137350890Y-106248134D01*
X137378339Y-106270661D01*
X137400866Y-106298110D01*
X137417607Y-106329431D01*
X137427915Y-106363409D01*
X137432000Y-106404890D01*
X137432000Y-107006110D01*
X137427915Y-107047591D01*
X137417607Y-107081569D01*
X137400866Y-107112890D01*
X137378339Y-107140339D01*
X137350890Y-107162866D01*
X137319569Y-107179607D01*
X137285591Y-107189915D01*
X137244110Y-107194000D01*
X136567890Y-107194000D01*
X136526409Y-107189915D01*
X136492431Y-107179607D01*
X136461110Y-107162866D01*
X136433661Y-107140339D01*
X136411134Y-107112890D01*
X136394393Y-107081569D01*
X136384085Y-107047591D01*
X136380000Y-107006110D01*
X136380000Y-106404890D01*
X136384085Y-106363409D01*
X136394393Y-106329431D01*
X136411134Y-106298110D01*
X136433661Y-106270661D01*
X136461110Y-106248134D01*
X136492431Y-106231393D01*
X136526409Y-106221085D01*
X136567890Y-106217000D01*
X137244110Y-106217000D01*
X137285591Y-106221085D01*
X137285591Y-106221085D01*
G37*
G36*
X134237591Y-106221085D02*
G01*
X134271569Y-106231393D01*
X134302890Y-106248134D01*
X134330339Y-106270661D01*
X134352866Y-106298110D01*
X134369607Y-106329431D01*
X134379915Y-106363409D01*
X134384000Y-106404890D01*
X134384000Y-107006110D01*
X134379915Y-107047591D01*
X134369607Y-107081569D01*
X134352866Y-107112890D01*
X134330339Y-107140339D01*
X134302890Y-107162866D01*
X134271569Y-107179607D01*
X134237591Y-107189915D01*
X134196110Y-107194000D01*
X133519890Y-107194000D01*
X133478409Y-107189915D01*
X133444431Y-107179607D01*
X133413110Y-107162866D01*
X133385661Y-107140339D01*
X133363134Y-107112890D01*
X133346393Y-107081569D01*
X133336085Y-107047591D01*
X133332000Y-107006110D01*
X133332000Y-106404890D01*
X133336085Y-106363409D01*
X133346393Y-106329431D01*
X133363134Y-106298110D01*
X133385661Y-106270661D01*
X133413110Y-106248134D01*
X133444431Y-106231393D01*
X133478409Y-106221085D01*
X133519890Y-106217000D01*
X134196110Y-106217000D01*
X134237591Y-106221085D01*
X134237591Y-106221085D01*
G37*
G36*
X135761591Y-106221085D02*
G01*
X135795569Y-106231393D01*
X135826890Y-106248134D01*
X135854339Y-106270661D01*
X135876866Y-106298110D01*
X135893607Y-106329431D01*
X135903915Y-106363409D01*
X135908000Y-106404890D01*
X135908000Y-107006110D01*
X135903915Y-107047591D01*
X135893607Y-107081569D01*
X135876866Y-107112890D01*
X135854339Y-107140339D01*
X135826890Y-107162866D01*
X135795569Y-107179607D01*
X135761591Y-107189915D01*
X135720110Y-107194000D01*
X135043890Y-107194000D01*
X135002409Y-107189915D01*
X134968431Y-107179607D01*
X134937110Y-107162866D01*
X134909661Y-107140339D01*
X134887134Y-107112890D01*
X134870393Y-107081569D01*
X134860085Y-107047591D01*
X134856000Y-107006110D01*
X134856000Y-106404890D01*
X134860085Y-106363409D01*
X134870393Y-106329431D01*
X134887134Y-106298110D01*
X134909661Y-106270661D01*
X134937110Y-106248134D01*
X134968431Y-106231393D01*
X135002409Y-106221085D01*
X135043890Y-106217000D01*
X135720110Y-106217000D01*
X135761591Y-106221085D01*
X135761591Y-106221085D01*
G37*
G36*
X138809591Y-106195585D02*
G01*
X138843569Y-106205893D01*
X138874890Y-106222634D01*
X138902339Y-106245161D01*
X138924866Y-106272610D01*
X138941607Y-106303931D01*
X138951915Y-106337909D01*
X138956000Y-106379390D01*
X138956000Y-106980610D01*
X138951915Y-107022091D01*
X138941607Y-107056069D01*
X138924866Y-107087390D01*
X138902339Y-107114839D01*
X138874890Y-107137366D01*
X138843569Y-107154107D01*
X138809591Y-107164415D01*
X138768110Y-107168500D01*
X138091890Y-107168500D01*
X138050409Y-107164415D01*
X138016431Y-107154107D01*
X137985110Y-107137366D01*
X137957661Y-107114839D01*
X137935134Y-107087390D01*
X137918393Y-107056069D01*
X137908085Y-107022091D01*
X137904000Y-106980610D01*
X137904000Y-106379390D01*
X137908085Y-106337909D01*
X137918393Y-106303931D01*
X137935134Y-106272610D01*
X137957661Y-106245161D01*
X137985110Y-106222634D01*
X138016431Y-106205893D01*
X138050409Y-106195585D01*
X138091890Y-106191500D01*
X138768110Y-106191500D01*
X138809591Y-106195585D01*
X138809591Y-106195585D01*
G37*
G36*
X128380443Y-104515519D02*
G01*
X128446627Y-104522037D01*
X128616466Y-104573557D01*
X128772991Y-104657222D01*
X128804601Y-104683164D01*
X128910186Y-104769814D01*
X128984814Y-104860750D01*
X129022778Y-104907009D01*
X129106443Y-105063534D01*
X129157963Y-105233373D01*
X129175359Y-105410000D01*
X129157963Y-105586627D01*
X129106443Y-105756466D01*
X129022778Y-105912991D01*
X128993448Y-105948729D01*
X128910186Y-106050186D01*
X128808729Y-106133448D01*
X128772991Y-106162778D01*
X128772989Y-106162779D01*
X128618865Y-106245161D01*
X128616466Y-106246443D01*
X128446627Y-106297963D01*
X128386032Y-106303931D01*
X128314260Y-106311000D01*
X128225740Y-106311000D01*
X128153968Y-106303931D01*
X128093373Y-106297963D01*
X127923534Y-106246443D01*
X127921136Y-106245161D01*
X127767011Y-106162779D01*
X127767009Y-106162778D01*
X127731271Y-106133448D01*
X127629814Y-106050186D01*
X127546552Y-105948729D01*
X127517222Y-105912991D01*
X127433557Y-105756466D01*
X127382037Y-105586627D01*
X127364641Y-105410000D01*
X127382037Y-105233373D01*
X127433557Y-105063534D01*
X127517222Y-104907009D01*
X127555186Y-104860750D01*
X127629814Y-104769814D01*
X127735399Y-104683164D01*
X127767009Y-104657222D01*
X127923534Y-104573557D01*
X128093373Y-104522037D01*
X128159557Y-104515519D01*
X128225740Y-104509000D01*
X128314260Y-104509000D01*
X128380443Y-104515519D01*
X128380443Y-104515519D01*
G37*
G36*
X143620443Y-104515519D02*
G01*
X143686627Y-104522037D01*
X143856466Y-104573557D01*
X144012991Y-104657222D01*
X144044601Y-104683164D01*
X144150186Y-104769814D01*
X144224814Y-104860750D01*
X144262778Y-104907009D01*
X144346443Y-105063534D01*
X144397963Y-105233373D01*
X144415359Y-105410000D01*
X144397963Y-105586627D01*
X144346443Y-105756466D01*
X144262778Y-105912991D01*
X144233448Y-105948729D01*
X144150186Y-106050186D01*
X144048729Y-106133448D01*
X144012991Y-106162778D01*
X144012989Y-106162779D01*
X143858865Y-106245161D01*
X143856466Y-106246443D01*
X143686627Y-106297963D01*
X143626032Y-106303931D01*
X143554260Y-106311000D01*
X143465740Y-106311000D01*
X143393968Y-106303931D01*
X143333373Y-106297963D01*
X143163534Y-106246443D01*
X143161136Y-106245161D01*
X143007011Y-106162779D01*
X143007009Y-106162778D01*
X142971271Y-106133448D01*
X142869814Y-106050186D01*
X142786552Y-105948729D01*
X142757222Y-105912991D01*
X142673557Y-105756466D01*
X142622037Y-105586627D01*
X142604641Y-105410000D01*
X142622037Y-105233373D01*
X142673557Y-105063534D01*
X142757222Y-104907009D01*
X142795186Y-104860750D01*
X142869814Y-104769814D01*
X142975399Y-104683164D01*
X143007009Y-104657222D01*
X143163534Y-104573557D01*
X143333373Y-104522037D01*
X143399557Y-104515519D01*
X143465740Y-104509000D01*
X143554260Y-104509000D01*
X143620443Y-104515519D01*
X143620443Y-104515519D01*
G37*
G36*
X134237591Y-104646085D02*
G01*
X134271569Y-104656393D01*
X134302890Y-104673134D01*
X134330339Y-104695661D01*
X134352866Y-104723110D01*
X134369607Y-104754431D01*
X134379915Y-104788409D01*
X134384000Y-104829890D01*
X134384000Y-105431110D01*
X134379915Y-105472591D01*
X134369607Y-105506569D01*
X134352866Y-105537890D01*
X134330339Y-105565339D01*
X134302890Y-105587866D01*
X134271569Y-105604607D01*
X134237591Y-105614915D01*
X134196110Y-105619000D01*
X133519890Y-105619000D01*
X133478409Y-105614915D01*
X133444431Y-105604607D01*
X133413110Y-105587866D01*
X133385661Y-105565339D01*
X133363134Y-105537890D01*
X133346393Y-105506569D01*
X133336085Y-105472591D01*
X133332000Y-105431110D01*
X133332000Y-104829890D01*
X133336085Y-104788409D01*
X133346393Y-104754431D01*
X133363134Y-104723110D01*
X133385661Y-104695661D01*
X133413110Y-104673134D01*
X133444431Y-104656393D01*
X133478409Y-104646085D01*
X133519890Y-104642000D01*
X134196110Y-104642000D01*
X134237591Y-104646085D01*
X134237591Y-104646085D01*
G37*
G36*
X132713591Y-104646085D02*
G01*
X132747569Y-104656393D01*
X132778890Y-104673134D01*
X132806339Y-104695661D01*
X132828866Y-104723110D01*
X132845607Y-104754431D01*
X132855915Y-104788409D01*
X132860000Y-104829890D01*
X132860000Y-105431110D01*
X132855915Y-105472591D01*
X132845607Y-105506569D01*
X132828866Y-105537890D01*
X132806339Y-105565339D01*
X132778890Y-105587866D01*
X132747569Y-105604607D01*
X132713591Y-105614915D01*
X132672110Y-105619000D01*
X131995890Y-105619000D01*
X131954409Y-105614915D01*
X131920431Y-105604607D01*
X131889110Y-105587866D01*
X131861661Y-105565339D01*
X131839134Y-105537890D01*
X131822393Y-105506569D01*
X131812085Y-105472591D01*
X131808000Y-105431110D01*
X131808000Y-104829890D01*
X131812085Y-104788409D01*
X131822393Y-104754431D01*
X131839134Y-104723110D01*
X131861661Y-104695661D01*
X131889110Y-104673134D01*
X131920431Y-104656393D01*
X131954409Y-104646085D01*
X131995890Y-104642000D01*
X132672110Y-104642000D01*
X132713591Y-104646085D01*
X132713591Y-104646085D01*
G37*
G36*
X135761591Y-104646085D02*
G01*
X135795569Y-104656393D01*
X135826890Y-104673134D01*
X135854339Y-104695661D01*
X135876866Y-104723110D01*
X135893607Y-104754431D01*
X135903915Y-104788409D01*
X135908000Y-104829890D01*
X135908000Y-105431110D01*
X135903915Y-105472591D01*
X135893607Y-105506569D01*
X135876866Y-105537890D01*
X135854339Y-105565339D01*
X135826890Y-105587866D01*
X135795569Y-105604607D01*
X135761591Y-105614915D01*
X135720110Y-105619000D01*
X135043890Y-105619000D01*
X135002409Y-105614915D01*
X134968431Y-105604607D01*
X134937110Y-105587866D01*
X134909661Y-105565339D01*
X134887134Y-105537890D01*
X134870393Y-105506569D01*
X134860085Y-105472591D01*
X134856000Y-105431110D01*
X134856000Y-104829890D01*
X134860085Y-104788409D01*
X134870393Y-104754431D01*
X134887134Y-104723110D01*
X134909661Y-104695661D01*
X134937110Y-104673134D01*
X134968431Y-104656393D01*
X135002409Y-104646085D01*
X135043890Y-104642000D01*
X135720110Y-104642000D01*
X135761591Y-104646085D01*
X135761591Y-104646085D01*
G37*
G36*
X137285591Y-104646085D02*
G01*
X137319569Y-104656393D01*
X137350890Y-104673134D01*
X137378339Y-104695661D01*
X137400866Y-104723110D01*
X137417607Y-104754431D01*
X137427915Y-104788409D01*
X137432000Y-104829890D01*
X137432000Y-105431110D01*
X137427915Y-105472591D01*
X137417607Y-105506569D01*
X137400866Y-105537890D01*
X137378339Y-105565339D01*
X137350890Y-105587866D01*
X137319569Y-105604607D01*
X137285591Y-105614915D01*
X137244110Y-105619000D01*
X136567890Y-105619000D01*
X136526409Y-105614915D01*
X136492431Y-105604607D01*
X136461110Y-105587866D01*
X136433661Y-105565339D01*
X136411134Y-105537890D01*
X136394393Y-105506569D01*
X136384085Y-105472591D01*
X136380000Y-105431110D01*
X136380000Y-104829890D01*
X136384085Y-104788409D01*
X136394393Y-104754431D01*
X136411134Y-104723110D01*
X136433661Y-104695661D01*
X136461110Y-104673134D01*
X136492431Y-104656393D01*
X136526409Y-104646085D01*
X136567890Y-104642000D01*
X137244110Y-104642000D01*
X137285591Y-104646085D01*
X137285591Y-104646085D01*
G37*
G36*
X131189591Y-104646085D02*
G01*
X131223569Y-104656393D01*
X131254890Y-104673134D01*
X131282339Y-104695661D01*
X131304866Y-104723110D01*
X131321607Y-104754431D01*
X131331915Y-104788409D01*
X131336000Y-104829890D01*
X131336000Y-105431110D01*
X131331915Y-105472591D01*
X131321607Y-105506569D01*
X131304866Y-105537890D01*
X131282339Y-105565339D01*
X131254890Y-105587866D01*
X131223569Y-105604607D01*
X131189591Y-105614915D01*
X131148110Y-105619000D01*
X130471890Y-105619000D01*
X130430409Y-105614915D01*
X130396431Y-105604607D01*
X130365110Y-105587866D01*
X130337661Y-105565339D01*
X130315134Y-105537890D01*
X130298393Y-105506569D01*
X130288085Y-105472591D01*
X130284000Y-105431110D01*
X130284000Y-104829890D01*
X130288085Y-104788409D01*
X130298393Y-104754431D01*
X130315134Y-104723110D01*
X130337661Y-104695661D01*
X130365110Y-104673134D01*
X130396431Y-104656393D01*
X130430409Y-104646085D01*
X130471890Y-104642000D01*
X131148110Y-104642000D01*
X131189591Y-104646085D01*
X131189591Y-104646085D01*
G37*
G36*
X138809591Y-104620585D02*
G01*
X138843569Y-104630893D01*
X138874890Y-104647634D01*
X138902339Y-104670161D01*
X138924866Y-104697610D01*
X138941607Y-104728931D01*
X138951915Y-104762909D01*
X138956000Y-104804390D01*
X138956000Y-105405610D01*
X138951915Y-105447091D01*
X138941607Y-105481069D01*
X138924866Y-105512390D01*
X138902339Y-105539839D01*
X138874890Y-105562366D01*
X138843569Y-105579107D01*
X138809591Y-105589415D01*
X138768110Y-105593500D01*
X138091890Y-105593500D01*
X138050409Y-105589415D01*
X138016431Y-105579107D01*
X137985110Y-105562366D01*
X137957661Y-105539839D01*
X137935134Y-105512390D01*
X137918393Y-105481069D01*
X137908085Y-105447091D01*
X137904000Y-105405610D01*
X137904000Y-104804390D01*
X137908085Y-104762909D01*
X137918393Y-104728931D01*
X137935134Y-104697610D01*
X137957661Y-104670161D01*
X137985110Y-104647634D01*
X138016431Y-104630893D01*
X138050409Y-104620585D01*
X138091890Y-104616500D01*
X138768110Y-104616500D01*
X138809591Y-104620585D01*
X138809591Y-104620585D01*
G37*
G36*
X134897000Y-104075000D02*
G01*
X133795000Y-104075000D01*
X133795000Y-102173000D01*
X134897000Y-102173000D01*
X134897000Y-104075000D01*
X134897000Y-104075000D01*
G37*
G36*
X132397000Y-104075000D02*
G01*
X131295000Y-104075000D01*
X131295000Y-102173000D01*
X132397000Y-102173000D01*
X132397000Y-104075000D01*
X132397000Y-104075000D01*
G37*
G36*
X139603000Y-103826000D02*
G01*
X138101000Y-103826000D01*
X138101000Y-102574000D01*
X139603000Y-102574000D01*
X139603000Y-103826000D01*
X139603000Y-103826000D01*
G37*
G36*
X137403000Y-103826000D02*
G01*
X135901000Y-103826000D01*
X135901000Y-102574000D01*
X137403000Y-102574000D01*
X137403000Y-103826000D01*
X137403000Y-103826000D01*
G37*
G36*
X128380442Y-101975518D02*
G01*
X128446627Y-101982037D01*
X128616466Y-102033557D01*
X128772991Y-102117222D01*
X128808729Y-102146552D01*
X128910186Y-102229814D01*
X128993448Y-102331271D01*
X129022778Y-102367009D01*
X129064611Y-102445272D01*
X129098979Y-102509569D01*
X129106443Y-102523534D01*
X129157963Y-102693373D01*
X129175359Y-102870000D01*
X129157963Y-103046627D01*
X129106443Y-103216466D01*
X129022778Y-103372991D01*
X128993448Y-103408729D01*
X128910186Y-103510186D01*
X128808729Y-103593448D01*
X128772991Y-103622778D01*
X128616466Y-103706443D01*
X128446627Y-103757963D01*
X128380443Y-103764481D01*
X128314260Y-103771000D01*
X128225740Y-103771000D01*
X128159557Y-103764481D01*
X128093373Y-103757963D01*
X127923534Y-103706443D01*
X127767009Y-103622778D01*
X127731271Y-103593448D01*
X127629814Y-103510186D01*
X127546552Y-103408729D01*
X127517222Y-103372991D01*
X127433557Y-103216466D01*
X127382037Y-103046627D01*
X127364641Y-102870000D01*
X127382037Y-102693373D01*
X127433557Y-102523534D01*
X127441022Y-102509569D01*
X127475389Y-102445272D01*
X127517222Y-102367009D01*
X127546552Y-102331271D01*
X127629814Y-102229814D01*
X127731271Y-102146552D01*
X127767009Y-102117222D01*
X127923534Y-102033557D01*
X128093373Y-101982037D01*
X128159558Y-101975518D01*
X128225740Y-101969000D01*
X128314260Y-101969000D01*
X128380442Y-101975518D01*
X128380442Y-101975518D01*
G37*
G36*
X143620442Y-101975518D02*
G01*
X143686627Y-101982037D01*
X143856466Y-102033557D01*
X144012991Y-102117222D01*
X144048729Y-102146552D01*
X144150186Y-102229814D01*
X144233448Y-102331271D01*
X144262778Y-102367009D01*
X144304611Y-102445272D01*
X144338979Y-102509569D01*
X144346443Y-102523534D01*
X144397963Y-102693373D01*
X144415359Y-102870000D01*
X144397963Y-103046627D01*
X144346443Y-103216466D01*
X144262778Y-103372991D01*
X144233448Y-103408729D01*
X144150186Y-103510186D01*
X144048729Y-103593448D01*
X144012991Y-103622778D01*
X143856466Y-103706443D01*
X143686627Y-103757963D01*
X143620443Y-103764481D01*
X143554260Y-103771000D01*
X143465740Y-103771000D01*
X143399557Y-103764481D01*
X143333373Y-103757963D01*
X143163534Y-103706443D01*
X143007009Y-103622778D01*
X142971271Y-103593448D01*
X142869814Y-103510186D01*
X142786552Y-103408729D01*
X142757222Y-103372991D01*
X142673557Y-103216466D01*
X142622037Y-103046627D01*
X142604641Y-102870000D01*
X142622037Y-102693373D01*
X142673557Y-102523534D01*
X142681022Y-102509569D01*
X142715389Y-102445272D01*
X142757222Y-102367009D01*
X142786552Y-102331271D01*
X142869814Y-102229814D01*
X142971271Y-102146552D01*
X143007009Y-102117222D01*
X143163534Y-102033557D01*
X143333373Y-101982037D01*
X143399558Y-101975518D01*
X143465740Y-101969000D01*
X143554260Y-101969000D01*
X143620442Y-101975518D01*
X143620442Y-101975518D01*
G37*
G36*
X141095591Y-101649085D02*
G01*
X141129569Y-101659393D01*
X141160890Y-101676134D01*
X141188339Y-101698661D01*
X141210866Y-101726110D01*
X141227607Y-101757431D01*
X141237915Y-101791409D01*
X141242000Y-101832890D01*
X141242000Y-102434110D01*
X141237915Y-102475591D01*
X141227607Y-102509569D01*
X141210866Y-102540890D01*
X141188339Y-102568339D01*
X141160890Y-102590866D01*
X141129569Y-102607607D01*
X141095591Y-102617915D01*
X141054110Y-102622000D01*
X140377890Y-102622000D01*
X140336409Y-102617915D01*
X140302431Y-102607607D01*
X140271110Y-102590866D01*
X140243661Y-102568339D01*
X140221134Y-102540890D01*
X140204393Y-102509569D01*
X140194085Y-102475591D01*
X140190000Y-102434110D01*
X140190000Y-101832890D01*
X140194085Y-101791409D01*
X140204393Y-101757431D01*
X140221134Y-101726110D01*
X140243661Y-101698661D01*
X140271110Y-101676134D01*
X140302431Y-101659393D01*
X140336409Y-101649085D01*
X140377890Y-101645000D01*
X141054110Y-101645000D01*
X141095591Y-101649085D01*
X141095591Y-101649085D01*
G37*
G36*
X139603000Y-102226000D02*
G01*
X138101000Y-102226000D01*
X138101000Y-100974000D01*
X139603000Y-100974000D01*
X139603000Y-102226000D01*
X139603000Y-102226000D01*
G37*
G36*
X137403000Y-102226000D02*
G01*
X135901000Y-102226000D01*
X135901000Y-100974000D01*
X137403000Y-100974000D01*
X137403000Y-102226000D01*
X137403000Y-102226000D01*
G37*
G36*
X132650591Y-100316085D02*
G01*
X132684569Y-100326393D01*
X132715890Y-100343134D01*
X132743339Y-100365661D01*
X132765866Y-100393110D01*
X132782607Y-100424431D01*
X132792915Y-100458409D01*
X132797000Y-100499890D01*
X132797000Y-101176110D01*
X132792915Y-101217591D01*
X132782607Y-101251569D01*
X132765866Y-101282890D01*
X132743339Y-101310339D01*
X132715890Y-101332866D01*
X132684569Y-101349607D01*
X132650591Y-101359915D01*
X132609110Y-101364000D01*
X132007890Y-101364000D01*
X131966409Y-101359915D01*
X131932431Y-101349607D01*
X131901110Y-101332866D01*
X131873661Y-101310339D01*
X131851134Y-101282890D01*
X131834393Y-101251569D01*
X131824085Y-101217591D01*
X131820000Y-101176110D01*
X131820000Y-100499890D01*
X131824085Y-100458409D01*
X131834393Y-100424431D01*
X131851134Y-100393110D01*
X131873661Y-100365661D01*
X131901110Y-100343134D01*
X131932431Y-100326393D01*
X131966409Y-100316085D01*
X132007890Y-100312000D01*
X132609110Y-100312000D01*
X132650591Y-100316085D01*
X132650591Y-100316085D01*
G37*
G36*
X134225591Y-100316085D02*
G01*
X134259569Y-100326393D01*
X134290890Y-100343134D01*
X134318339Y-100365661D01*
X134340866Y-100393110D01*
X134357607Y-100424431D01*
X134367915Y-100458409D01*
X134372000Y-100499890D01*
X134372000Y-101176110D01*
X134367915Y-101217591D01*
X134357607Y-101251569D01*
X134340866Y-101282890D01*
X134318339Y-101310339D01*
X134290890Y-101332866D01*
X134259569Y-101349607D01*
X134225591Y-101359915D01*
X134184110Y-101364000D01*
X133582890Y-101364000D01*
X133541409Y-101359915D01*
X133507431Y-101349607D01*
X133476110Y-101332866D01*
X133448661Y-101310339D01*
X133426134Y-101282890D01*
X133409393Y-101251569D01*
X133399085Y-101217591D01*
X133395000Y-101176110D01*
X133395000Y-100499890D01*
X133399085Y-100458409D01*
X133409393Y-100424431D01*
X133426134Y-100393110D01*
X133448661Y-100365661D01*
X133476110Y-100343134D01*
X133507431Y-100326393D01*
X133541409Y-100316085D01*
X133582890Y-100312000D01*
X134184110Y-100312000D01*
X134225591Y-100316085D01*
X134225591Y-100316085D01*
G37*
G36*
X143620443Y-99435519D02*
G01*
X143686627Y-99442037D01*
X143856466Y-99493557D01*
X144012991Y-99577222D01*
X144020945Y-99583750D01*
X144150186Y-99689814D01*
X144219553Y-99774339D01*
X144262778Y-99827009D01*
X144285598Y-99869702D01*
X144334534Y-99961253D01*
X144346443Y-99983534D01*
X144397963Y-100153373D01*
X144415359Y-100330000D01*
X144397963Y-100506627D01*
X144346443Y-100676466D01*
X144262778Y-100832991D01*
X144233448Y-100868729D01*
X144150186Y-100970186D01*
X144062305Y-101042307D01*
X144012991Y-101082778D01*
X143856466Y-101166443D01*
X143686627Y-101217963D01*
X143620443Y-101224481D01*
X143554260Y-101231000D01*
X143465740Y-101231000D01*
X143399558Y-101224482D01*
X143333373Y-101217963D01*
X143163534Y-101166443D01*
X143007009Y-101082778D01*
X142957695Y-101042307D01*
X142869814Y-100970186D01*
X142786552Y-100868729D01*
X142757222Y-100832991D01*
X142673557Y-100676466D01*
X142622037Y-100506627D01*
X142604641Y-100330000D01*
X142622037Y-100153373D01*
X142673557Y-99983534D01*
X142685467Y-99961253D01*
X142734402Y-99869702D01*
X142757222Y-99827009D01*
X142800447Y-99774339D01*
X142869814Y-99689814D01*
X142999055Y-99583750D01*
X143007009Y-99577222D01*
X143163534Y-99493557D01*
X143333373Y-99442037D01*
X143399558Y-99435518D01*
X143465740Y-99429000D01*
X143554260Y-99429000D01*
X143620443Y-99435519D01*
X143620443Y-99435519D01*
G37*
G36*
X128380443Y-99435519D02*
G01*
X128446627Y-99442037D01*
X128616466Y-99493557D01*
X128772991Y-99577222D01*
X128780945Y-99583750D01*
X128910186Y-99689814D01*
X128979553Y-99774339D01*
X129022778Y-99827009D01*
X129045598Y-99869702D01*
X129094534Y-99961253D01*
X129106443Y-99983534D01*
X129157963Y-100153373D01*
X129175359Y-100330000D01*
X129157963Y-100506627D01*
X129106443Y-100676466D01*
X129022778Y-100832991D01*
X128993448Y-100868729D01*
X128910186Y-100970186D01*
X128822305Y-101042307D01*
X128772991Y-101082778D01*
X128616466Y-101166443D01*
X128446627Y-101217963D01*
X128380443Y-101224481D01*
X128314260Y-101231000D01*
X128225740Y-101231000D01*
X128159558Y-101224482D01*
X128093373Y-101217963D01*
X127923534Y-101166443D01*
X127767009Y-101082778D01*
X127717695Y-101042307D01*
X127629814Y-100970186D01*
X127546552Y-100868729D01*
X127517222Y-100832991D01*
X127433557Y-100676466D01*
X127382037Y-100506627D01*
X127364641Y-100330000D01*
X127382037Y-100153373D01*
X127433557Y-99983534D01*
X127445467Y-99961253D01*
X127494402Y-99869702D01*
X127517222Y-99827009D01*
X127560447Y-99774339D01*
X127629814Y-99689814D01*
X127759055Y-99583750D01*
X127767009Y-99577222D01*
X127923534Y-99493557D01*
X128093373Y-99442037D01*
X128159558Y-99435518D01*
X128225740Y-99429000D01*
X128314260Y-99429000D01*
X128380443Y-99435519D01*
X128380443Y-99435519D01*
G37*
G36*
X141095591Y-98855085D02*
G01*
X141129569Y-98865393D01*
X141160890Y-98882134D01*
X141188339Y-98904661D01*
X141210866Y-98932110D01*
X141227607Y-98963431D01*
X141237915Y-98997409D01*
X141242000Y-99038890D01*
X141242000Y-99640110D01*
X141237915Y-99681591D01*
X141227607Y-99715569D01*
X141210866Y-99746890D01*
X141188339Y-99774339D01*
X141160890Y-99796866D01*
X141129569Y-99813607D01*
X141095591Y-99823915D01*
X141088601Y-99824603D01*
X141064568Y-99829383D01*
X141041929Y-99838761D01*
X141021555Y-99852374D01*
X141004228Y-99869701D01*
X140990614Y-99890075D01*
X140981237Y-99912714D01*
X140976456Y-99936747D01*
X140976456Y-99961252D01*
X140981236Y-99985285D01*
X140990614Y-100007924D01*
X141004227Y-100028298D01*
X141021554Y-100045625D01*
X141041928Y-100059239D01*
X141064567Y-100068616D01*
X141088601Y-100073397D01*
X141095591Y-100074085D01*
X141129569Y-100084393D01*
X141160890Y-100101134D01*
X141188339Y-100123661D01*
X141210866Y-100151110D01*
X141227607Y-100182431D01*
X141237915Y-100216409D01*
X141242000Y-100257890D01*
X141242000Y-100859110D01*
X141237915Y-100900591D01*
X141227607Y-100934569D01*
X141210866Y-100965890D01*
X141188339Y-100993339D01*
X141160890Y-101015866D01*
X141129569Y-101032607D01*
X141095591Y-101042915D01*
X141054110Y-101047000D01*
X140377890Y-101047000D01*
X140336409Y-101042915D01*
X140302431Y-101032607D01*
X140271110Y-101015866D01*
X140243661Y-100993339D01*
X140221134Y-100965890D01*
X140204393Y-100934569D01*
X140194085Y-100900591D01*
X140190000Y-100859110D01*
X140190000Y-100257890D01*
X140194085Y-100216409D01*
X140204393Y-100182431D01*
X140221134Y-100151110D01*
X140243661Y-100123661D01*
X140271110Y-100101134D01*
X140302431Y-100084393D01*
X140336409Y-100074085D01*
X140343399Y-100073397D01*
X140367432Y-100068617D01*
X140390071Y-100059239D01*
X140410445Y-100045626D01*
X140427772Y-100028299D01*
X140441386Y-100007925D01*
X140450763Y-99985286D01*
X140455544Y-99961253D01*
X140455544Y-99936748D01*
X140450764Y-99912715D01*
X140441386Y-99890076D01*
X140427773Y-99869702D01*
X140410446Y-99852375D01*
X140390072Y-99838761D01*
X140367433Y-99829384D01*
X140343399Y-99824603D01*
X140336409Y-99823915D01*
X140302431Y-99813607D01*
X140271110Y-99796866D01*
X140243661Y-99774339D01*
X140221134Y-99746890D01*
X140204393Y-99715569D01*
X140194085Y-99681591D01*
X140190000Y-99640110D01*
X140190000Y-99038890D01*
X140194085Y-98997409D01*
X140204393Y-98963431D01*
X140221134Y-98932110D01*
X140243661Y-98904661D01*
X140271110Y-98882134D01*
X140302431Y-98865393D01*
X140336409Y-98855085D01*
X140377890Y-98851000D01*
X141054110Y-98851000D01*
X141095591Y-98855085D01*
X141095591Y-98855085D01*
G37*
G36*
X131443591Y-98855085D02*
G01*
X131477569Y-98865393D01*
X131508890Y-98882134D01*
X131536339Y-98904661D01*
X131558866Y-98932110D01*
X131575607Y-98963431D01*
X131585915Y-98997409D01*
X131590000Y-99038890D01*
X131590000Y-99640110D01*
X131585915Y-99681591D01*
X131575607Y-99715569D01*
X131558866Y-99746890D01*
X131536339Y-99774339D01*
X131508890Y-99796866D01*
X131477569Y-99813607D01*
X131443591Y-99823915D01*
X131402110Y-99828000D01*
X130725890Y-99828000D01*
X130684409Y-99823915D01*
X130650431Y-99813607D01*
X130619110Y-99796866D01*
X130591661Y-99774339D01*
X130569134Y-99746890D01*
X130552393Y-99715569D01*
X130542085Y-99681591D01*
X130538000Y-99640110D01*
X130538000Y-99038890D01*
X130542085Y-98997409D01*
X130552393Y-98963431D01*
X130569134Y-98932110D01*
X130591661Y-98904661D01*
X130619110Y-98882134D01*
X130650431Y-98865393D01*
X130684409Y-98855085D01*
X130725890Y-98851000D01*
X131402110Y-98851000D01*
X131443591Y-98855085D01*
X131443591Y-98855085D01*
G37*
G36*
X138831000Y-98737000D02*
G01*
X132949000Y-98737000D01*
X132949000Y-97075000D01*
X138831000Y-97075000D01*
X138831000Y-98737000D01*
X138831000Y-98737000D01*
G37*
G36*
X128380442Y-96895518D02*
G01*
X128446627Y-96902037D01*
X128616466Y-96953557D01*
X128772991Y-97037222D01*
X128808729Y-97066552D01*
X128910186Y-97149814D01*
X128993448Y-97251271D01*
X129022778Y-97287009D01*
X129106443Y-97443534D01*
X129157963Y-97613373D01*
X129175359Y-97790000D01*
X129157963Y-97966627D01*
X129116831Y-98102220D01*
X129106442Y-98136468D01*
X129072836Y-98199339D01*
X129022778Y-98292991D01*
X128993448Y-98328729D01*
X128910186Y-98430186D01*
X128808729Y-98513448D01*
X128772991Y-98542778D01*
X128616466Y-98626443D01*
X128446627Y-98677963D01*
X128380442Y-98684482D01*
X128314260Y-98691000D01*
X128225740Y-98691000D01*
X128159558Y-98684482D01*
X128093373Y-98677963D01*
X127923534Y-98626443D01*
X127767009Y-98542778D01*
X127731271Y-98513448D01*
X127629814Y-98430186D01*
X127546552Y-98328729D01*
X127517222Y-98292991D01*
X127467164Y-98199339D01*
X127433558Y-98136468D01*
X127423169Y-98102220D01*
X127382037Y-97966627D01*
X127364641Y-97790000D01*
X127382037Y-97613373D01*
X127433557Y-97443534D01*
X127517222Y-97287009D01*
X127546552Y-97251271D01*
X127629814Y-97149814D01*
X127731271Y-97066552D01*
X127767009Y-97037222D01*
X127923534Y-96953557D01*
X128093373Y-96902037D01*
X128159558Y-96895518D01*
X128225740Y-96889000D01*
X128314260Y-96889000D01*
X128380442Y-96895518D01*
X128380442Y-96895518D01*
G37*
G36*
X143620442Y-96895518D02*
G01*
X143686627Y-96902037D01*
X143856466Y-96953557D01*
X144012991Y-97037222D01*
X144048729Y-97066552D01*
X144150186Y-97149814D01*
X144233448Y-97251271D01*
X144262778Y-97287009D01*
X144346443Y-97443534D01*
X144397963Y-97613373D01*
X144415359Y-97790000D01*
X144397963Y-97966627D01*
X144356831Y-98102220D01*
X144346442Y-98136468D01*
X144312836Y-98199339D01*
X144262778Y-98292991D01*
X144233448Y-98328729D01*
X144150186Y-98430186D01*
X144048729Y-98513448D01*
X144012991Y-98542778D01*
X143856466Y-98626443D01*
X143686627Y-98677963D01*
X143620442Y-98684482D01*
X143554260Y-98691000D01*
X143465740Y-98691000D01*
X143399558Y-98684482D01*
X143333373Y-98677963D01*
X143163534Y-98626443D01*
X143007009Y-98542778D01*
X142971271Y-98513448D01*
X142869814Y-98430186D01*
X142786552Y-98328729D01*
X142757222Y-98292991D01*
X142707164Y-98199339D01*
X142673558Y-98136468D01*
X142663169Y-98102220D01*
X142622037Y-97966627D01*
X142604641Y-97790000D01*
X142622037Y-97613373D01*
X142673557Y-97443534D01*
X142757222Y-97287009D01*
X142786552Y-97251271D01*
X142869814Y-97149814D01*
X142971271Y-97066552D01*
X143007009Y-97037222D01*
X143163534Y-96953557D01*
X143333373Y-96902037D01*
X143399558Y-96895518D01*
X143465740Y-96889000D01*
X143554260Y-96889000D01*
X143620442Y-96895518D01*
X143620442Y-96895518D01*
G37*
G36*
X131443591Y-97280085D02*
G01*
X131477569Y-97290393D01*
X131508890Y-97307134D01*
X131536339Y-97329661D01*
X131558866Y-97357110D01*
X131575607Y-97388431D01*
X131585915Y-97422409D01*
X131590000Y-97463890D01*
X131590000Y-98065110D01*
X131585915Y-98106591D01*
X131575607Y-98140569D01*
X131558866Y-98171890D01*
X131536339Y-98199339D01*
X131508890Y-98221866D01*
X131477569Y-98238607D01*
X131443591Y-98248915D01*
X131402110Y-98253000D01*
X130725890Y-98253000D01*
X130684409Y-98248915D01*
X130650431Y-98238607D01*
X130619110Y-98221866D01*
X130591661Y-98199339D01*
X130569134Y-98171890D01*
X130552393Y-98140569D01*
X130542085Y-98106591D01*
X130538000Y-98065110D01*
X130538000Y-97463890D01*
X130542085Y-97422409D01*
X130552393Y-97388431D01*
X130569134Y-97357110D01*
X130591661Y-97329661D01*
X130619110Y-97307134D01*
X130650431Y-97290393D01*
X130684409Y-97280085D01*
X130725890Y-97276000D01*
X131402110Y-97276000D01*
X131443591Y-97280085D01*
X131443591Y-97280085D01*
G37*
G36*
X141095591Y-97280085D02*
G01*
X141129569Y-97290393D01*
X141160890Y-97307134D01*
X141188339Y-97329661D01*
X141210866Y-97357110D01*
X141227607Y-97388431D01*
X141237915Y-97422409D01*
X141242000Y-97463890D01*
X141242000Y-98065110D01*
X141237915Y-98106591D01*
X141227607Y-98140569D01*
X141210866Y-98171890D01*
X141188339Y-98199339D01*
X141160890Y-98221866D01*
X141129569Y-98238607D01*
X141095591Y-98248915D01*
X141054110Y-98253000D01*
X140377890Y-98253000D01*
X140336409Y-98248915D01*
X140302431Y-98238607D01*
X140271110Y-98221866D01*
X140243661Y-98199339D01*
X140221134Y-98171890D01*
X140204393Y-98140569D01*
X140194085Y-98106591D01*
X140190000Y-98065110D01*
X140190000Y-97463890D01*
X140194085Y-97422409D01*
X140204393Y-97388431D01*
X140221134Y-97357110D01*
X140243661Y-97329661D01*
X140271110Y-97307134D01*
X140302431Y-97290393D01*
X140336409Y-97280085D01*
X140377890Y-97276000D01*
X141054110Y-97276000D01*
X141095591Y-97280085D01*
X141095591Y-97280085D01*
G37*
G36*
X132541000Y-96667000D02*
G01*
X130879000Y-96667000D01*
X130879000Y-90785000D01*
X132541000Y-90785000D01*
X132541000Y-96667000D01*
X132541000Y-96667000D01*
G37*
G36*
X140901000Y-96667000D02*
G01*
X139239000Y-96667000D01*
X139239000Y-90785000D01*
X140901000Y-90785000D01*
X140901000Y-96667000D01*
X140901000Y-96667000D01*
G37*
G36*
X143620442Y-94355518D02*
G01*
X143686627Y-94362037D01*
X143856466Y-94413557D01*
X144012991Y-94497222D01*
X144048729Y-94526552D01*
X144150186Y-94609814D01*
X144233448Y-94711271D01*
X144262778Y-94747009D01*
X144346443Y-94903534D01*
X144397963Y-95073373D01*
X144415359Y-95250000D01*
X144397963Y-95426627D01*
X144346443Y-95596466D01*
X144262778Y-95752991D01*
X144236509Y-95785000D01*
X144150186Y-95890186D01*
X144048729Y-95973448D01*
X144012991Y-96002778D01*
X143856466Y-96086443D01*
X143686627Y-96137963D01*
X143620443Y-96144481D01*
X143554260Y-96151000D01*
X143465740Y-96151000D01*
X143399558Y-96144482D01*
X143333373Y-96137963D01*
X143163534Y-96086443D01*
X143007009Y-96002778D01*
X142971271Y-95973448D01*
X142869814Y-95890186D01*
X142783491Y-95785000D01*
X142757222Y-95752991D01*
X142673557Y-95596466D01*
X142622037Y-95426627D01*
X142604641Y-95250000D01*
X142622037Y-95073373D01*
X142673557Y-94903534D01*
X142757222Y-94747009D01*
X142786552Y-94711271D01*
X142869814Y-94609814D01*
X142971271Y-94526552D01*
X143007009Y-94497222D01*
X143163534Y-94413557D01*
X143333373Y-94362037D01*
X143399557Y-94355519D01*
X143465740Y-94349000D01*
X143554260Y-94349000D01*
X143620442Y-94355518D01*
X143620442Y-94355518D01*
G37*
G36*
X128380442Y-94355518D02*
G01*
X128446627Y-94362037D01*
X128616466Y-94413557D01*
X128772991Y-94497222D01*
X128808729Y-94526552D01*
X128910186Y-94609814D01*
X128993448Y-94711271D01*
X129022778Y-94747009D01*
X129106443Y-94903534D01*
X129157963Y-95073373D01*
X129175359Y-95250000D01*
X129157963Y-95426627D01*
X129106443Y-95596466D01*
X129022778Y-95752991D01*
X128996509Y-95785000D01*
X128910186Y-95890186D01*
X128808729Y-95973448D01*
X128772991Y-96002778D01*
X128616466Y-96086443D01*
X128446627Y-96137963D01*
X128380443Y-96144481D01*
X128314260Y-96151000D01*
X128225740Y-96151000D01*
X128159558Y-96144482D01*
X128093373Y-96137963D01*
X127923534Y-96086443D01*
X127767009Y-96002778D01*
X127731271Y-95973448D01*
X127629814Y-95890186D01*
X127543491Y-95785000D01*
X127517222Y-95752991D01*
X127433557Y-95596466D01*
X127382037Y-95426627D01*
X127364641Y-95250000D01*
X127382037Y-95073373D01*
X127433557Y-94903534D01*
X127517222Y-94747009D01*
X127546552Y-94711271D01*
X127629814Y-94609814D01*
X127731271Y-94526552D01*
X127767009Y-94497222D01*
X127923534Y-94413557D01*
X128093373Y-94362037D01*
X128159557Y-94355519D01*
X128225740Y-94349000D01*
X128314260Y-94349000D01*
X128380442Y-94355518D01*
X128380442Y-94355518D01*
G37*
G36*
X128380442Y-91815518D02*
G01*
X128446627Y-91822037D01*
X128616466Y-91873557D01*
X128772991Y-91957222D01*
X128808729Y-91986552D01*
X128910186Y-92069814D01*
X128989943Y-92167000D01*
X129022778Y-92207009D01*
X129106443Y-92363534D01*
X129157963Y-92533373D01*
X129175359Y-92710000D01*
X129157963Y-92886627D01*
X129106443Y-93056466D01*
X129022778Y-93212991D01*
X128993448Y-93248729D01*
X128910186Y-93350186D01*
X128808729Y-93433448D01*
X128772991Y-93462778D01*
X128616466Y-93546443D01*
X128446627Y-93597963D01*
X128380442Y-93604482D01*
X128314260Y-93611000D01*
X128225740Y-93611000D01*
X128159557Y-93604481D01*
X128093373Y-93597963D01*
X127923534Y-93546443D01*
X127767009Y-93462778D01*
X127731271Y-93433448D01*
X127629814Y-93350186D01*
X127546552Y-93248729D01*
X127517222Y-93212991D01*
X127433557Y-93056466D01*
X127382037Y-92886627D01*
X127364641Y-92710000D01*
X127382037Y-92533373D01*
X127433557Y-92363534D01*
X127517222Y-92207009D01*
X127550057Y-92167000D01*
X127629814Y-92069814D01*
X127731271Y-91986552D01*
X127767009Y-91957222D01*
X127923534Y-91873557D01*
X128093373Y-91822037D01*
X128159558Y-91815518D01*
X128225740Y-91809000D01*
X128314260Y-91809000D01*
X128380442Y-91815518D01*
X128380442Y-91815518D01*
G37*
G36*
X143620442Y-91815518D02*
G01*
X143686627Y-91822037D01*
X143856466Y-91873557D01*
X144012991Y-91957222D01*
X144048729Y-91986552D01*
X144150186Y-92069814D01*
X144229943Y-92167000D01*
X144262778Y-92207009D01*
X144346443Y-92363534D01*
X144397963Y-92533373D01*
X144415359Y-92710000D01*
X144397963Y-92886627D01*
X144346443Y-93056466D01*
X144262778Y-93212991D01*
X144233448Y-93248729D01*
X144150186Y-93350186D01*
X144048729Y-93433448D01*
X144012991Y-93462778D01*
X143856466Y-93546443D01*
X143686627Y-93597963D01*
X143620442Y-93604482D01*
X143554260Y-93611000D01*
X143465740Y-93611000D01*
X143399557Y-93604481D01*
X143333373Y-93597963D01*
X143163534Y-93546443D01*
X143007009Y-93462778D01*
X142971271Y-93433448D01*
X142869814Y-93350186D01*
X142786552Y-93248729D01*
X142757222Y-93212991D01*
X142673557Y-93056466D01*
X142622037Y-92886627D01*
X142604641Y-92710000D01*
X142622037Y-92533373D01*
X142673557Y-92363534D01*
X142757222Y-92207009D01*
X142790057Y-92167000D01*
X142869814Y-92069814D01*
X142971271Y-91986552D01*
X143007009Y-91957222D01*
X143163534Y-91873557D01*
X143333373Y-91822037D01*
X143399558Y-91815518D01*
X143465740Y-91809000D01*
X143554260Y-91809000D01*
X143620442Y-91815518D01*
X143620442Y-91815518D01*
G37*
G36*
X128380443Y-89275519D02*
G01*
X128446627Y-89282037D01*
X128616466Y-89333557D01*
X128772991Y-89417222D01*
X128804706Y-89443250D01*
X128910186Y-89529814D01*
X128993448Y-89631271D01*
X129022778Y-89667009D01*
X129106443Y-89823534D01*
X129157963Y-89993373D01*
X129175359Y-90170000D01*
X129157963Y-90346627D01*
X129106443Y-90516466D01*
X129022778Y-90672991D01*
X128993448Y-90708729D01*
X128910186Y-90810186D01*
X128808729Y-90893448D01*
X128772991Y-90922778D01*
X128616466Y-91006443D01*
X128446627Y-91057963D01*
X128380442Y-91064482D01*
X128314260Y-91071000D01*
X128225740Y-91071000D01*
X128159558Y-91064482D01*
X128093373Y-91057963D01*
X127923534Y-91006443D01*
X127767009Y-90922778D01*
X127731271Y-90893448D01*
X127629814Y-90810186D01*
X127546552Y-90708729D01*
X127517222Y-90672991D01*
X127433557Y-90516466D01*
X127382037Y-90346627D01*
X127364641Y-90170000D01*
X127382037Y-89993373D01*
X127433557Y-89823534D01*
X127517222Y-89667009D01*
X127546552Y-89631271D01*
X127629814Y-89529814D01*
X127735294Y-89443250D01*
X127767009Y-89417222D01*
X127923534Y-89333557D01*
X128093373Y-89282037D01*
X128159557Y-89275519D01*
X128225740Y-89269000D01*
X128314260Y-89269000D01*
X128380443Y-89275519D01*
X128380443Y-89275519D01*
G37*
G36*
X143620443Y-89275519D02*
G01*
X143686627Y-89282037D01*
X143856466Y-89333557D01*
X144012991Y-89417222D01*
X144044706Y-89443250D01*
X144150186Y-89529814D01*
X144233448Y-89631271D01*
X144262778Y-89667009D01*
X144346443Y-89823534D01*
X144397963Y-89993373D01*
X144415359Y-90170000D01*
X144397963Y-90346627D01*
X144346443Y-90516466D01*
X144262778Y-90672991D01*
X144233448Y-90708729D01*
X144150186Y-90810186D01*
X144048729Y-90893448D01*
X144012991Y-90922778D01*
X143856466Y-91006443D01*
X143686627Y-91057963D01*
X143620442Y-91064482D01*
X143554260Y-91071000D01*
X143465740Y-91071000D01*
X143399558Y-91064482D01*
X143333373Y-91057963D01*
X143163534Y-91006443D01*
X143007009Y-90922778D01*
X142971271Y-90893448D01*
X142869814Y-90810186D01*
X142786552Y-90708729D01*
X142757222Y-90672991D01*
X142673557Y-90516466D01*
X142622037Y-90346627D01*
X142604641Y-90170000D01*
X142622037Y-89993373D01*
X142673557Y-89823534D01*
X142757222Y-89667009D01*
X142786552Y-89631271D01*
X142869814Y-89529814D01*
X142975294Y-89443250D01*
X143007009Y-89417222D01*
X143163534Y-89333557D01*
X143333373Y-89282037D01*
X143399557Y-89275519D01*
X143465740Y-89269000D01*
X143554260Y-89269000D01*
X143620443Y-89275519D01*
X143620443Y-89275519D01*
G37*
G36*
X138831000Y-90377000D02*
G01*
X132949000Y-90377000D01*
X132949000Y-88715000D01*
X138831000Y-88715000D01*
X138831000Y-90377000D01*
X138831000Y-90377000D01*
G37*
G36*
X141095591Y-89203085D02*
G01*
X141129569Y-89213393D01*
X141160890Y-89230134D01*
X141188339Y-89252661D01*
X141210866Y-89280110D01*
X141227607Y-89311431D01*
X141237915Y-89345409D01*
X141242000Y-89386890D01*
X141242000Y-89988110D01*
X141237915Y-90029591D01*
X141227607Y-90063569D01*
X141210866Y-90094890D01*
X141188339Y-90122339D01*
X141160890Y-90144866D01*
X141129569Y-90161607D01*
X141095591Y-90171915D01*
X141054110Y-90176000D01*
X140377890Y-90176000D01*
X140336409Y-90171915D01*
X140302431Y-90161607D01*
X140271110Y-90144866D01*
X140243661Y-90122339D01*
X140221134Y-90094890D01*
X140204393Y-90063569D01*
X140194085Y-90029591D01*
X140190000Y-89988110D01*
X140190000Y-89386890D01*
X140194085Y-89345409D01*
X140204393Y-89311431D01*
X140221134Y-89280110D01*
X140243661Y-89252661D01*
X140271110Y-89230134D01*
X140302431Y-89213393D01*
X140336409Y-89203085D01*
X140377890Y-89199000D01*
X141054110Y-89199000D01*
X141095591Y-89203085D01*
X141095591Y-89203085D01*
G37*
G36*
X131443591Y-89203085D02*
G01*
X131477569Y-89213393D01*
X131508890Y-89230134D01*
X131536339Y-89252661D01*
X131558866Y-89280110D01*
X131575607Y-89311431D01*
X131585915Y-89345409D01*
X131590000Y-89386890D01*
X131590000Y-89988110D01*
X131585915Y-90029591D01*
X131575607Y-90063569D01*
X131558866Y-90094890D01*
X131536339Y-90122339D01*
X131508890Y-90144866D01*
X131477569Y-90161607D01*
X131443591Y-90171915D01*
X131402110Y-90176000D01*
X130725890Y-90176000D01*
X130684409Y-90171915D01*
X130650431Y-90161607D01*
X130619110Y-90144866D01*
X130591661Y-90122339D01*
X130569134Y-90094890D01*
X130552393Y-90063569D01*
X130542085Y-90029591D01*
X130538000Y-89988110D01*
X130538000Y-89386890D01*
X130542085Y-89345409D01*
X130552393Y-89311431D01*
X130569134Y-89280110D01*
X130591661Y-89252661D01*
X130619110Y-89230134D01*
X130650431Y-89213393D01*
X130684409Y-89203085D01*
X130725890Y-89199000D01*
X131402110Y-89199000D01*
X131443591Y-89203085D01*
X131443591Y-89203085D01*
G37*
G36*
X141095591Y-87628085D02*
G01*
X141129569Y-87638393D01*
X141160890Y-87655134D01*
X141188339Y-87677661D01*
X141210866Y-87705110D01*
X141227607Y-87736431D01*
X141237915Y-87770409D01*
X141242000Y-87811890D01*
X141242000Y-88413110D01*
X141237915Y-88454591D01*
X141227607Y-88488569D01*
X141210866Y-88519890D01*
X141188339Y-88547339D01*
X141160890Y-88569866D01*
X141129569Y-88586607D01*
X141095591Y-88596915D01*
X141054110Y-88601000D01*
X140377890Y-88601000D01*
X140336409Y-88596915D01*
X140302431Y-88586607D01*
X140271110Y-88569866D01*
X140243661Y-88547339D01*
X140221134Y-88519890D01*
X140204393Y-88488569D01*
X140194085Y-88454591D01*
X140190000Y-88413110D01*
X140190000Y-87811890D01*
X140194085Y-87770409D01*
X140204393Y-87736431D01*
X140221134Y-87705110D01*
X140243661Y-87677661D01*
X140271110Y-87655134D01*
X140302431Y-87638393D01*
X140336409Y-87628085D01*
X140377890Y-87624000D01*
X141054110Y-87624000D01*
X141095591Y-87628085D01*
X141095591Y-87628085D01*
G37*
G36*
X131443591Y-87628085D02*
G01*
X131477569Y-87638393D01*
X131508890Y-87655134D01*
X131536339Y-87677661D01*
X131558866Y-87705110D01*
X131575607Y-87736431D01*
X131585915Y-87770409D01*
X131590000Y-87811890D01*
X131590000Y-88413110D01*
X131585915Y-88454591D01*
X131575607Y-88488569D01*
X131558866Y-88519890D01*
X131536339Y-88547339D01*
X131508890Y-88569866D01*
X131477569Y-88586607D01*
X131443591Y-88596915D01*
X131402110Y-88601000D01*
X130725890Y-88601000D01*
X130684409Y-88596915D01*
X130650431Y-88586607D01*
X130619110Y-88569866D01*
X130591661Y-88547339D01*
X130569134Y-88519890D01*
X130552393Y-88488569D01*
X130542085Y-88454591D01*
X130538000Y-88413110D01*
X130538000Y-87811890D01*
X130542085Y-87770409D01*
X130552393Y-87736431D01*
X130569134Y-87705110D01*
X130591661Y-87677661D01*
X130619110Y-87655134D01*
X130650431Y-87638393D01*
X130684409Y-87628085D01*
X130725890Y-87624000D01*
X131402110Y-87624000D01*
X131443591Y-87628085D01*
X131443591Y-87628085D01*
G37*
G36*
X128380442Y-86735518D02*
G01*
X128446627Y-86742037D01*
X128616466Y-86793557D01*
X128772991Y-86877222D01*
X128798834Y-86898431D01*
X128910186Y-86989814D01*
X128993448Y-87091271D01*
X129022778Y-87127009D01*
X129106443Y-87283534D01*
X129157963Y-87453373D01*
X129175359Y-87630000D01*
X129157963Y-87806627D01*
X129106443Y-87976466D01*
X129022778Y-88132991D01*
X128993448Y-88168729D01*
X128910186Y-88270186D01*
X128808729Y-88353448D01*
X128772991Y-88382778D01*
X128616466Y-88466443D01*
X128446627Y-88517963D01*
X128380442Y-88524482D01*
X128314260Y-88531000D01*
X128225740Y-88531000D01*
X128159558Y-88524482D01*
X128093373Y-88517963D01*
X127923534Y-88466443D01*
X127767009Y-88382778D01*
X127731271Y-88353448D01*
X127629814Y-88270186D01*
X127546552Y-88168729D01*
X127517222Y-88132991D01*
X127433557Y-87976466D01*
X127382037Y-87806627D01*
X127364641Y-87630000D01*
X127382037Y-87453373D01*
X127433557Y-87283534D01*
X127517222Y-87127009D01*
X127546552Y-87091271D01*
X127629814Y-86989814D01*
X127741166Y-86898431D01*
X127767009Y-86877222D01*
X127923534Y-86793557D01*
X128093373Y-86742037D01*
X128159558Y-86735518D01*
X128225740Y-86729000D01*
X128314260Y-86729000D01*
X128380442Y-86735518D01*
X128380442Y-86735518D01*
G37*
G36*
X143620442Y-86735518D02*
G01*
X143686627Y-86742037D01*
X143856466Y-86793557D01*
X144012991Y-86877222D01*
X144038834Y-86898431D01*
X144150186Y-86989814D01*
X144233448Y-87091271D01*
X144262778Y-87127009D01*
X144346443Y-87283534D01*
X144397963Y-87453373D01*
X144415359Y-87630000D01*
X144397963Y-87806627D01*
X144346443Y-87976466D01*
X144262778Y-88132991D01*
X144233448Y-88168729D01*
X144150186Y-88270186D01*
X144048729Y-88353448D01*
X144012991Y-88382778D01*
X143856466Y-88466443D01*
X143686627Y-88517963D01*
X143620442Y-88524482D01*
X143554260Y-88531000D01*
X143465740Y-88531000D01*
X143399558Y-88524482D01*
X143333373Y-88517963D01*
X143163534Y-88466443D01*
X143007009Y-88382778D01*
X142971271Y-88353448D01*
X142869814Y-88270186D01*
X142786552Y-88168729D01*
X142757222Y-88132991D01*
X142673557Y-87976466D01*
X142622037Y-87806627D01*
X142604641Y-87630000D01*
X142622037Y-87453373D01*
X142673557Y-87283534D01*
X142757222Y-87127009D01*
X142786552Y-87091271D01*
X142869814Y-86989814D01*
X142981166Y-86898431D01*
X143007009Y-86877222D01*
X143163534Y-86793557D01*
X143333373Y-86742037D01*
X143399558Y-86735518D01*
X143465740Y-86729000D01*
X143554260Y-86729000D01*
X143620442Y-86735518D01*
X143620442Y-86735518D01*
G37*
G36*
X139063591Y-86790085D02*
G01*
X139097569Y-86800393D01*
X139128890Y-86817134D01*
X139156339Y-86839661D01*
X139178866Y-86867110D01*
X139195607Y-86898431D01*
X139205915Y-86932409D01*
X139210000Y-86973890D01*
X139210000Y-87575110D01*
X139205915Y-87616591D01*
X139195607Y-87650569D01*
X139178866Y-87681890D01*
X139156339Y-87709339D01*
X139128890Y-87731866D01*
X139097569Y-87748607D01*
X139063591Y-87758915D01*
X139022110Y-87763000D01*
X138345890Y-87763000D01*
X138304409Y-87758915D01*
X138270431Y-87748607D01*
X138239110Y-87731866D01*
X138211661Y-87709339D01*
X138189134Y-87681890D01*
X138172393Y-87650569D01*
X138162085Y-87616591D01*
X138158000Y-87575110D01*
X138158000Y-86973890D01*
X138162085Y-86932409D01*
X138172393Y-86898431D01*
X138189134Y-86867110D01*
X138211661Y-86839661D01*
X138239110Y-86817134D01*
X138270431Y-86800393D01*
X138304409Y-86790085D01*
X138345890Y-86786000D01*
X139022110Y-86786000D01*
X139063591Y-86790085D01*
X139063591Y-86790085D01*
G37*
G36*
X137611000Y-87688000D02*
G01*
X136709000Y-87688000D01*
X136709000Y-86786000D01*
X137611000Y-86786000D01*
X137611000Y-87688000D01*
X137611000Y-87688000D01*
G37*
G36*
X131253591Y-85711085D02*
G01*
X131287569Y-85721393D01*
X131318890Y-85738134D01*
X131346339Y-85760661D01*
X131368866Y-85788110D01*
X131385607Y-85819431D01*
X131395915Y-85853409D01*
X131400000Y-85894890D01*
X131400000Y-86571110D01*
X131395915Y-86612591D01*
X131385607Y-86646569D01*
X131368866Y-86677890D01*
X131346339Y-86705339D01*
X131318890Y-86727866D01*
X131287569Y-86744607D01*
X131253591Y-86754915D01*
X131212110Y-86759000D01*
X130610890Y-86759000D01*
X130569409Y-86754915D01*
X130535431Y-86744607D01*
X130504110Y-86727866D01*
X130476661Y-86705339D01*
X130454134Y-86677890D01*
X130437393Y-86646569D01*
X130427085Y-86612591D01*
X130423000Y-86571110D01*
X130423000Y-85894890D01*
X130427085Y-85853409D01*
X130437393Y-85819431D01*
X130454134Y-85788110D01*
X130476661Y-85760661D01*
X130504110Y-85738134D01*
X130535431Y-85721393D01*
X130569409Y-85711085D01*
X130610890Y-85707000D01*
X131212110Y-85707000D01*
X131253591Y-85711085D01*
X131253591Y-85711085D01*
G37*
G36*
X132828591Y-85711085D02*
G01*
X132862569Y-85721393D01*
X132893890Y-85738134D01*
X132921339Y-85760661D01*
X132943866Y-85788110D01*
X132960607Y-85819431D01*
X132970915Y-85853409D01*
X132975000Y-85894890D01*
X132975000Y-86571110D01*
X132970915Y-86612591D01*
X132960607Y-86646569D01*
X132943866Y-86677890D01*
X132921339Y-86705339D01*
X132893890Y-86727866D01*
X132862569Y-86744607D01*
X132828591Y-86754915D01*
X132787110Y-86759000D01*
X132185890Y-86759000D01*
X132144409Y-86754915D01*
X132110431Y-86744607D01*
X132079110Y-86727866D01*
X132051661Y-86705339D01*
X132029134Y-86677890D01*
X132012393Y-86646569D01*
X132002085Y-86612591D01*
X131998000Y-86571110D01*
X131998000Y-85894890D01*
X132002085Y-85853409D01*
X132012393Y-85819431D01*
X132029134Y-85788110D01*
X132051661Y-85760661D01*
X132079110Y-85738134D01*
X132110431Y-85721393D01*
X132144409Y-85711085D01*
X132185890Y-85707000D01*
X132787110Y-85707000D01*
X132828591Y-85711085D01*
X132828591Y-85711085D01*
G37*
G36*
X139063591Y-85215085D02*
G01*
X139097569Y-85225393D01*
X139128890Y-85242134D01*
X139156339Y-85264661D01*
X139178866Y-85292110D01*
X139195607Y-85323431D01*
X139205915Y-85357409D01*
X139210000Y-85398890D01*
X139210000Y-86000110D01*
X139205915Y-86041591D01*
X139195607Y-86075569D01*
X139178866Y-86106890D01*
X139156339Y-86134339D01*
X139128890Y-86156866D01*
X139097569Y-86173607D01*
X139063591Y-86183915D01*
X139022110Y-86188000D01*
X138345890Y-86188000D01*
X138304409Y-86183915D01*
X138270431Y-86173607D01*
X138239110Y-86156866D01*
X138211661Y-86134339D01*
X138189134Y-86106890D01*
X138172393Y-86075569D01*
X138162085Y-86041591D01*
X138158000Y-86000110D01*
X138158000Y-85398890D01*
X138162085Y-85357409D01*
X138172393Y-85323431D01*
X138189134Y-85292110D01*
X138211661Y-85264661D01*
X138239110Y-85242134D01*
X138270431Y-85225393D01*
X138304409Y-85215085D01*
X138345890Y-85211000D01*
X139022110Y-85211000D01*
X139063591Y-85215085D01*
X139063591Y-85215085D01*
G37*
G36*
X137611000Y-86188000D02*
G01*
X136709000Y-86188000D01*
X136709000Y-85286000D01*
X137611000Y-85286000D01*
X137611000Y-86188000D01*
X137611000Y-86188000D01*
G37*
G36*
X143620442Y-84195518D02*
G01*
X143686627Y-84202037D01*
X143856466Y-84253557D01*
X144012991Y-84337222D01*
X144020945Y-84343750D01*
X144150186Y-84449814D01*
X144219553Y-84534339D01*
X144262778Y-84587009D01*
X144346443Y-84743534D01*
X144397963Y-84913373D01*
X144415359Y-85090000D01*
X144397963Y-85266627D01*
X144346443Y-85436466D01*
X144262778Y-85592991D01*
X144233448Y-85628729D01*
X144150186Y-85730186D01*
X144079604Y-85788110D01*
X144012991Y-85842778D01*
X143856466Y-85926443D01*
X143686627Y-85977963D01*
X143620442Y-85984482D01*
X143554260Y-85991000D01*
X143465740Y-85991000D01*
X143399558Y-85984482D01*
X143333373Y-85977963D01*
X143163534Y-85926443D01*
X143007009Y-85842778D01*
X142940396Y-85788110D01*
X142869814Y-85730186D01*
X142786552Y-85628729D01*
X142757222Y-85592991D01*
X142673557Y-85436466D01*
X142622037Y-85266627D01*
X142604641Y-85090000D01*
X142622037Y-84913373D01*
X142673557Y-84743534D01*
X142757222Y-84587009D01*
X142800447Y-84534339D01*
X142869814Y-84449814D01*
X142999055Y-84343750D01*
X143007009Y-84337222D01*
X143163534Y-84253557D01*
X143333373Y-84202037D01*
X143399558Y-84195518D01*
X143465740Y-84189000D01*
X143554260Y-84189000D01*
X143620442Y-84195518D01*
X143620442Y-84195518D01*
G37*
G36*
X128380442Y-84195518D02*
G01*
X128446627Y-84202037D01*
X128616466Y-84253557D01*
X128772991Y-84337222D01*
X128780945Y-84343750D01*
X128910186Y-84449814D01*
X128979553Y-84534339D01*
X129022778Y-84587009D01*
X129106443Y-84743534D01*
X129157963Y-84913373D01*
X129175359Y-85090000D01*
X129157963Y-85266627D01*
X129106443Y-85436466D01*
X129022778Y-85592991D01*
X128993448Y-85628729D01*
X128910186Y-85730186D01*
X128839604Y-85788110D01*
X128772991Y-85842778D01*
X128616466Y-85926443D01*
X128446627Y-85977963D01*
X128380442Y-85984482D01*
X128314260Y-85991000D01*
X128225740Y-85991000D01*
X128159558Y-85984482D01*
X128093373Y-85977963D01*
X127923534Y-85926443D01*
X127767009Y-85842778D01*
X127700396Y-85788110D01*
X127629814Y-85730186D01*
X127546552Y-85628729D01*
X127517222Y-85592991D01*
X127433557Y-85436466D01*
X127382037Y-85266627D01*
X127364641Y-85090000D01*
X127382037Y-84913373D01*
X127433557Y-84743534D01*
X127517222Y-84587009D01*
X127560447Y-84534339D01*
X127629814Y-84449814D01*
X127759055Y-84343750D01*
X127767009Y-84337222D01*
X127923534Y-84253557D01*
X128093373Y-84202037D01*
X128159558Y-84195518D01*
X128225740Y-84189000D01*
X128314260Y-84189000D01*
X128380442Y-84195518D01*
X128380442Y-84195518D01*
G37*
G36*
X141262300Y-85331500D02*
G01*
X139661700Y-85331500D01*
X139661700Y-84238900D01*
X141262300Y-84238900D01*
X141262300Y-85331500D01*
X141262300Y-85331500D01*
G37*
G36*
X131561000Y-85019000D02*
G01*
X130399000Y-85019000D01*
X130399000Y-84267000D01*
X131561000Y-84267000D01*
X131561000Y-85019000D01*
X131561000Y-85019000D01*
G37*
G36*
X133761000Y-85019000D02*
G01*
X132599000Y-85019000D01*
X132599000Y-82367000D01*
X133761000Y-82367000D01*
X133761000Y-85019000D01*
X133761000Y-85019000D01*
G37*
G36*
X135126591Y-83615085D02*
G01*
X135160569Y-83625393D01*
X135191890Y-83642134D01*
X135219339Y-83664661D01*
X135241866Y-83692110D01*
X135258607Y-83723431D01*
X135268915Y-83757409D01*
X135273000Y-83798890D01*
X135273000Y-84400110D01*
X135268915Y-84441591D01*
X135258607Y-84475569D01*
X135241866Y-84506890D01*
X135219339Y-84534339D01*
X135191890Y-84556866D01*
X135160569Y-84573607D01*
X135126591Y-84583915D01*
X135085110Y-84588000D01*
X134408890Y-84588000D01*
X134367409Y-84583915D01*
X134333431Y-84573607D01*
X134302110Y-84556866D01*
X134274661Y-84534339D01*
X134252134Y-84506890D01*
X134235393Y-84475569D01*
X134225085Y-84441591D01*
X134221000Y-84400110D01*
X134221000Y-83798890D01*
X134225085Y-83757409D01*
X134235393Y-83723431D01*
X134252134Y-83692110D01*
X134274661Y-83664661D01*
X134302110Y-83642134D01*
X134333431Y-83625393D01*
X134367409Y-83615085D01*
X134408890Y-83611000D01*
X135085110Y-83611000D01*
X135126591Y-83615085D01*
X135126591Y-83615085D01*
G37*
G36*
X143620443Y-81655519D02*
G01*
X143686627Y-81662037D01*
X143856466Y-81713557D01*
X144012991Y-81797222D01*
X144048729Y-81826552D01*
X144150186Y-81909814D01*
X144208237Y-81980551D01*
X144262778Y-82047009D01*
X144346443Y-82203534D01*
X144397963Y-82373373D01*
X144415359Y-82550000D01*
X144397963Y-82726627D01*
X144356831Y-82862220D01*
X144346442Y-82896468D01*
X144312836Y-82959339D01*
X144262778Y-83052991D01*
X144233448Y-83088729D01*
X144150186Y-83190186D01*
X144048729Y-83273448D01*
X144012991Y-83302778D01*
X143856466Y-83386443D01*
X143686627Y-83437963D01*
X143620443Y-83444481D01*
X143554260Y-83451000D01*
X143465740Y-83451000D01*
X143399557Y-83444481D01*
X143333373Y-83437963D01*
X143163534Y-83386443D01*
X143007009Y-83302778D01*
X142971271Y-83273448D01*
X142869814Y-83190186D01*
X142786552Y-83088729D01*
X142757222Y-83052991D01*
X142707164Y-82959339D01*
X142673558Y-82896468D01*
X142663169Y-82862220D01*
X142622037Y-82726627D01*
X142604641Y-82550000D01*
X142622037Y-82373373D01*
X142673557Y-82203534D01*
X142757222Y-82047009D01*
X142811763Y-81980551D01*
X142869814Y-81909814D01*
X142971271Y-81826552D01*
X143007009Y-81797222D01*
X143163534Y-81713557D01*
X143333373Y-81662037D01*
X143399557Y-81655519D01*
X143465740Y-81649000D01*
X143554260Y-81649000D01*
X143620443Y-81655519D01*
X143620443Y-81655519D01*
G37*
G36*
X128380443Y-81655519D02*
G01*
X128446627Y-81662037D01*
X128616466Y-81713557D01*
X128772991Y-81797222D01*
X128808729Y-81826552D01*
X128910186Y-81909814D01*
X128968237Y-81980551D01*
X129022778Y-82047009D01*
X129106443Y-82203534D01*
X129157963Y-82373373D01*
X129175359Y-82550000D01*
X129157963Y-82726627D01*
X129116831Y-82862220D01*
X129106442Y-82896468D01*
X129072836Y-82959339D01*
X129022778Y-83052991D01*
X128993448Y-83088729D01*
X128910186Y-83190186D01*
X128808729Y-83273448D01*
X128772991Y-83302778D01*
X128616466Y-83386443D01*
X128446627Y-83437963D01*
X128380443Y-83444481D01*
X128314260Y-83451000D01*
X128225740Y-83451000D01*
X128159557Y-83444481D01*
X128093373Y-83437963D01*
X127923534Y-83386443D01*
X127767009Y-83302778D01*
X127731271Y-83273448D01*
X127629814Y-83190186D01*
X127546552Y-83088729D01*
X127517222Y-83052991D01*
X127467164Y-82959339D01*
X127433558Y-82896468D01*
X127423169Y-82862220D01*
X127382037Y-82726627D01*
X127364641Y-82550000D01*
X127382037Y-82373373D01*
X127433557Y-82203534D01*
X127517222Y-82047009D01*
X127571763Y-81980551D01*
X127629814Y-81909814D01*
X127731271Y-81826552D01*
X127767009Y-81797222D01*
X127923534Y-81713557D01*
X128093373Y-81662037D01*
X128159557Y-81655519D01*
X128225740Y-81649000D01*
X128314260Y-81649000D01*
X128380443Y-81655519D01*
X128380443Y-81655519D01*
G37*
G36*
X141262300Y-83147100D02*
G01*
X139661700Y-83147100D01*
X139661700Y-82054500D01*
X141262300Y-82054500D01*
X141262300Y-83147100D01*
X141262300Y-83147100D01*
G37*
G36*
X130707090Y-80229419D02*
G01*
X130771489Y-80242229D01*
X130953478Y-80317611D01*
X131117263Y-80427049D01*
X131256551Y-80566337D01*
X131365989Y-80730122D01*
X131441371Y-80912111D01*
X131441371Y-80912112D01*
X131471911Y-81065644D01*
X131479800Y-81105309D01*
X131479800Y-81302291D01*
X131441371Y-81495489D01*
X131365989Y-81677478D01*
X131256551Y-81841263D01*
X131117263Y-81980551D01*
X130953478Y-82089989D01*
X130865286Y-82126519D01*
X130843679Y-82138068D01*
X130824737Y-82153613D01*
X130809192Y-82172555D01*
X130797641Y-82194166D01*
X130790528Y-82217615D01*
X130788126Y-82242001D01*
X130790528Y-82266387D01*
X130797641Y-82289836D01*
X130809192Y-82311447D01*
X130824737Y-82330389D01*
X130843679Y-82345934D01*
X130865290Y-82357485D01*
X130888739Y-82364598D01*
X130913125Y-82367000D01*
X131561000Y-82367000D01*
X131561000Y-83119000D01*
X130399000Y-83119000D01*
X130399000Y-82309903D01*
X130396598Y-82285517D01*
X130389485Y-82262068D01*
X130377934Y-82240457D01*
X130362389Y-82221515D01*
X130343447Y-82205970D01*
X130321836Y-82194419D01*
X130298387Y-82187306D01*
X130273768Y-82182409D01*
X130188111Y-82165371D01*
X130006122Y-82089989D01*
X129842337Y-81980551D01*
X129703049Y-81841263D01*
X129593611Y-81677478D01*
X129518229Y-81495489D01*
X129479800Y-81302291D01*
X129479800Y-81105309D01*
X129487690Y-81065644D01*
X129518229Y-80912112D01*
X129518229Y-80912111D01*
X129593611Y-80730122D01*
X129703049Y-80566337D01*
X129842337Y-80427049D01*
X130006122Y-80317611D01*
X130188111Y-80242229D01*
X130252510Y-80229419D01*
X130381307Y-80203800D01*
X130578293Y-80203800D01*
X130707090Y-80229419D01*
X130707090Y-80229419D01*
G37*
G36*
X135126591Y-82040085D02*
G01*
X135160569Y-82050393D01*
X135191890Y-82067134D01*
X135219339Y-82089661D01*
X135241866Y-82117110D01*
X135258607Y-82148431D01*
X135268915Y-82182409D01*
X135273000Y-82223890D01*
X135273000Y-82825110D01*
X135268915Y-82866591D01*
X135258607Y-82900569D01*
X135241866Y-82931890D01*
X135219339Y-82959339D01*
X135191890Y-82981866D01*
X135160569Y-82998607D01*
X135126591Y-83008915D01*
X135085110Y-83013000D01*
X134408890Y-83013000D01*
X134367409Y-83008915D01*
X134333431Y-82998607D01*
X134302110Y-82981866D01*
X134274661Y-82959339D01*
X134252134Y-82931890D01*
X134235393Y-82900569D01*
X134225085Y-82866591D01*
X134221000Y-82825110D01*
X134221000Y-82223890D01*
X134225085Y-82182409D01*
X134235393Y-82148431D01*
X134252134Y-82117110D01*
X134274661Y-82089661D01*
X134302110Y-82067134D01*
X134333431Y-82050393D01*
X134367409Y-82040085D01*
X134408890Y-82036000D01*
X135085110Y-82036000D01*
X135126591Y-82040085D01*
X135126591Y-82040085D01*
G37*
G36*
X137441000Y-81498000D02*
G01*
X134339000Y-81498000D01*
X134339000Y-80046000D01*
X137441000Y-80046000D01*
X137441000Y-81498000D01*
X137441000Y-81498000D01*
G37*
G36*
X139066000Y-80740027D02*
G01*
X139066601Y-80752266D01*
X139068545Y-80772000D01*
X139066601Y-80791734D01*
X139066000Y-80803973D01*
X139066000Y-81498000D01*
X137714000Y-81498000D01*
X137714000Y-80803973D01*
X137713399Y-80791734D01*
X137711455Y-80772000D01*
X137713399Y-80752266D01*
X137714000Y-80740027D01*
X137714000Y-80046000D01*
X139066000Y-80046000D01*
X139066000Y-80740027D01*
X139066000Y-80740027D01*
G37*
G36*
X134066000Y-80740027D02*
G01*
X134066601Y-80752266D01*
X134068545Y-80772000D01*
X134066601Y-80791734D01*
X134066000Y-80803973D01*
X134066000Y-81498000D01*
X132714000Y-81498000D01*
X132714000Y-80803973D01*
X132713399Y-80791734D01*
X132711455Y-80772000D01*
X132713399Y-80752266D01*
X132714000Y-80740027D01*
X132714000Y-80046000D01*
X134066000Y-80046000D01*
X134066000Y-80740027D01*
X134066000Y-80740027D01*
G37*
G36*
X143620443Y-79115519D02*
G01*
X143686627Y-79122037D01*
X143856466Y-79173557D01*
X144012991Y-79257222D01*
X144048729Y-79286552D01*
X144150186Y-79369814D01*
X144233448Y-79471271D01*
X144262778Y-79507009D01*
X144346443Y-79663534D01*
X144397963Y-79833373D01*
X144415359Y-80010000D01*
X144397963Y-80186627D01*
X144346443Y-80356466D01*
X144262778Y-80512991D01*
X144233448Y-80548729D01*
X144150186Y-80650186D01*
X144052782Y-80730122D01*
X144012991Y-80762778D01*
X143856466Y-80846443D01*
X143686627Y-80897963D01*
X143620442Y-80904482D01*
X143554260Y-80911000D01*
X143465740Y-80911000D01*
X143399558Y-80904482D01*
X143333373Y-80897963D01*
X143163534Y-80846443D01*
X143007009Y-80762778D01*
X142967218Y-80730122D01*
X142869814Y-80650186D01*
X142786552Y-80548729D01*
X142757222Y-80512991D01*
X142673557Y-80356466D01*
X142622037Y-80186627D01*
X142604641Y-80010000D01*
X142622037Y-79833373D01*
X142673557Y-79663534D01*
X142757222Y-79507009D01*
X142786552Y-79471271D01*
X142869814Y-79369814D01*
X142971271Y-79286552D01*
X143007009Y-79257222D01*
X143163534Y-79173557D01*
X143333373Y-79122037D01*
X143399557Y-79115519D01*
X143465740Y-79109000D01*
X143554260Y-79109000D01*
X143620443Y-79115519D01*
X143620443Y-79115519D01*
G37*
G36*
X128380443Y-79115519D02*
G01*
X128446627Y-79122037D01*
X128616466Y-79173557D01*
X128772991Y-79257222D01*
X128808729Y-79286552D01*
X128910186Y-79369814D01*
X128993448Y-79471271D01*
X129022778Y-79507009D01*
X129106443Y-79663534D01*
X129157963Y-79833373D01*
X129175359Y-80010000D01*
X129157963Y-80186627D01*
X129106443Y-80356466D01*
X129022778Y-80512991D01*
X128993448Y-80548729D01*
X128910186Y-80650186D01*
X128812782Y-80730122D01*
X128772991Y-80762778D01*
X128616466Y-80846443D01*
X128446627Y-80897963D01*
X128380442Y-80904482D01*
X128314260Y-80911000D01*
X128225740Y-80911000D01*
X128159558Y-80904482D01*
X128093373Y-80897963D01*
X127923534Y-80846443D01*
X127767009Y-80762778D01*
X127727218Y-80730122D01*
X127629814Y-80650186D01*
X127546552Y-80548729D01*
X127517222Y-80512991D01*
X127433557Y-80356466D01*
X127382037Y-80186627D01*
X127364641Y-80010000D01*
X127382037Y-79833373D01*
X127433557Y-79663534D01*
X127517222Y-79507009D01*
X127546552Y-79471271D01*
X127629814Y-79369814D01*
X127731271Y-79286552D01*
X127767009Y-79257222D01*
X127923534Y-79173557D01*
X128093373Y-79122037D01*
X128159557Y-79115519D01*
X128225740Y-79109000D01*
X128314260Y-79109000D01*
X128380443Y-79115519D01*
X128380443Y-79115519D01*
G37*
G36*
X140391000Y-79073000D02*
G01*
X138389000Y-79073000D01*
X138389000Y-77071000D01*
X140391000Y-77071000D01*
X140391000Y-79073000D01*
X140391000Y-79073000D01*
G37*
G36*
X133391000Y-79073000D02*
G01*
X131389000Y-79073000D01*
X131389000Y-77071000D01*
X133391000Y-77071000D01*
X133391000Y-79073000D01*
X133391000Y-79073000D01*
G37*
G36*
X143623512Y-76573927D02*
G01*
X143772812Y-76603624D01*
X143936784Y-76671544D01*
X144084354Y-76770147D01*
X144209853Y-76895646D01*
X144308456Y-77043216D01*
X144376376Y-77207188D01*
X144411000Y-77381259D01*
X144411000Y-77558741D01*
X144376376Y-77732812D01*
X144308456Y-77896784D01*
X144209853Y-78044354D01*
X144084354Y-78169853D01*
X143936784Y-78268456D01*
X143772812Y-78336376D01*
X143623512Y-78366073D01*
X143598742Y-78371000D01*
X143421258Y-78371000D01*
X143396488Y-78366073D01*
X143247188Y-78336376D01*
X143083216Y-78268456D01*
X142935646Y-78169853D01*
X142810147Y-78044354D01*
X142711544Y-77896784D01*
X142643624Y-77732812D01*
X142609000Y-77558741D01*
X142609000Y-77381259D01*
X142643624Y-77207188D01*
X142711544Y-77043216D01*
X142810147Y-76895646D01*
X142935646Y-76770147D01*
X143083216Y-76671544D01*
X143247188Y-76603624D01*
X143396488Y-76573927D01*
X143421258Y-76569000D01*
X143598742Y-76569000D01*
X143623512Y-76573927D01*
X143623512Y-76573927D01*
G37*
G36*
X128383512Y-76573927D02*
G01*
X128532812Y-76603624D01*
X128696784Y-76671544D01*
X128844354Y-76770147D01*
X128969853Y-76895646D01*
X129068456Y-77043216D01*
X129136376Y-77207188D01*
X129171000Y-77381259D01*
X129171000Y-77558741D01*
X129136376Y-77732812D01*
X129068456Y-77896784D01*
X128969853Y-78044354D01*
X128844354Y-78169853D01*
X128696784Y-78268456D01*
X128532812Y-78336376D01*
X128383512Y-78366073D01*
X128358742Y-78371000D01*
X128181258Y-78371000D01*
X128156488Y-78366073D01*
X128007188Y-78336376D01*
X127843216Y-78268456D01*
X127695646Y-78169853D01*
X127570147Y-78044354D01*
X127471544Y-77896784D01*
X127403624Y-77732812D01*
X127369000Y-77558741D01*
X127369000Y-77381259D01*
X127403624Y-77207188D01*
X127471544Y-77043216D01*
X127570147Y-76895646D01*
X127695646Y-76770147D01*
X127843216Y-76671544D01*
X128007188Y-76603624D01*
X128156488Y-76573927D01*
X128181258Y-76569000D01*
X128358742Y-76569000D01*
X128383512Y-76573927D01*
X128383512Y-76573927D01*
G37*
M02*
